G75*
G70*
%OFA0B0*%
%FSLAX24Y24*%
%IPPOS*%
%LPD*%
%AMOC8*
5,1,8,0,0,1.08239X$1,22.5*
%
%ADD10C,0.0160*%
%ADD11C,0.0060*%
%ADD12C,0.0020*%
%ADD13C,0.0080*%
%ADD14C,0.0010*%
%ADD15R,0.0280X0.0160*%
%ADD16R,0.0160X0.0280*%
D10*
X004429Y003291D02*
X004441Y003312D01*
X003488Y004423D02*
X003470Y004408D01*
X003852Y004742D02*
X003869Y004758D01*
X001877Y007227D02*
X001883Y007479D01*
X001902Y007730D01*
X001933Y007980D01*
X001976Y008228D01*
X002031Y008474D01*
X002098Y008717D01*
X002177Y008956D01*
X002268Y009191D01*
X002370Y009422D01*
X002483Y009647D01*
X002607Y009866D01*
X002742Y010079D01*
X002887Y010285D01*
X003042Y010483D01*
X003207Y010674D01*
X003380Y010857D01*
X003563Y011030D01*
X003754Y011195D01*
X003952Y011350D01*
X004158Y011495D01*
X004371Y011630D01*
X004590Y011754D01*
X004815Y011867D01*
X005046Y011969D01*
X005281Y012060D01*
X005520Y012139D01*
X005763Y012206D01*
X006009Y012261D01*
X006257Y012304D01*
X006507Y012335D01*
X006758Y012354D01*
X007010Y012360D01*
X007262Y012354D01*
X007513Y012335D01*
X007763Y012304D01*
X008011Y012261D01*
X008257Y012206D01*
X008500Y012139D01*
X008739Y012060D01*
X008974Y011969D01*
X009205Y011867D01*
X009430Y011754D01*
X009649Y011630D01*
X009862Y011495D01*
X010068Y011350D01*
X010266Y011195D01*
X010457Y011030D01*
X010640Y010857D01*
X010813Y010674D01*
X010978Y010483D01*
X011133Y010285D01*
X011278Y010079D01*
X011413Y009866D01*
X011537Y009647D01*
X011650Y009422D01*
X011752Y009191D01*
X011843Y008956D01*
X011922Y008717D01*
X011989Y008474D01*
X012044Y008228D01*
X012087Y007980D01*
X012118Y007730D01*
X012137Y007479D01*
X012143Y007227D01*
X012137Y006975D01*
X012118Y006724D01*
X012087Y006474D01*
X012044Y006226D01*
X011989Y005980D01*
X011922Y005737D01*
X011843Y005498D01*
X011752Y005263D01*
X011650Y005032D01*
X011537Y004807D01*
X011413Y004588D01*
X011278Y004375D01*
X011133Y004169D01*
X010978Y003971D01*
X010813Y003780D01*
X010640Y003597D01*
X010457Y003424D01*
X010266Y003259D01*
X010068Y003104D01*
X009862Y002959D01*
X009649Y002824D01*
X009430Y002700D01*
X009205Y002587D01*
X008974Y002485D01*
X008739Y002394D01*
X008500Y002315D01*
X008257Y002248D01*
X008011Y002193D01*
X007763Y002150D01*
X007513Y002119D01*
X007262Y002100D01*
X007010Y002094D01*
X006758Y002100D01*
X006507Y002119D01*
X006257Y002150D01*
X006009Y002193D01*
X005763Y002248D01*
X005520Y002315D01*
X005281Y002394D01*
X005046Y002485D01*
X004815Y002587D01*
X004590Y002700D01*
X004371Y002824D01*
X004158Y002959D01*
X003952Y003104D01*
X003754Y003259D01*
X003563Y003424D01*
X003380Y003597D01*
X003207Y003780D01*
X003042Y003971D01*
X002887Y004169D01*
X002742Y004375D01*
X002607Y004588D01*
X002483Y004807D01*
X002370Y005032D01*
X002268Y005263D01*
X002177Y005498D01*
X002098Y005737D01*
X002031Y005980D01*
X001976Y006226D01*
X001933Y006474D01*
X001902Y006724D01*
X001883Y006975D01*
X001877Y007227D01*
D11*
X003746Y006538D02*
X003746Y008309D01*
X003747Y008309D02*
X003748Y008326D01*
X003753Y008343D01*
X003760Y008358D01*
X003770Y008372D01*
X003782Y008384D01*
X003796Y008394D01*
X003811Y008401D01*
X003828Y008406D01*
X003845Y008407D01*
X003853Y008408D02*
X003904Y008408D01*
X004144Y008408D02*
X004400Y008408D01*
X004644Y008408D02*
X004900Y008408D01*
X005144Y008408D02*
X005396Y008408D01*
X005640Y008408D02*
X005691Y008408D01*
X005695Y008407D02*
X005712Y008406D01*
X005729Y008401D01*
X005744Y008394D01*
X005758Y008384D01*
X005770Y008372D01*
X005780Y008358D01*
X005787Y008343D01*
X005792Y008326D01*
X005793Y008309D01*
X005794Y008305D02*
X005794Y006538D01*
X005793Y006538D02*
X005792Y006521D01*
X005787Y006504D01*
X005780Y006489D01*
X005770Y006475D01*
X005758Y006463D01*
X005744Y006453D01*
X005729Y006446D01*
X005712Y006441D01*
X005695Y006440D01*
X005691Y006439D02*
X005640Y006439D01*
X005396Y006439D02*
X005144Y006439D01*
X004896Y006439D02*
X004644Y006439D01*
X004396Y006439D02*
X004144Y006439D01*
X003900Y006439D02*
X003841Y006439D01*
X003845Y006440D02*
X003828Y006441D01*
X003811Y006446D01*
X003796Y006453D01*
X003782Y006463D01*
X003770Y006475D01*
X003760Y006489D01*
X003753Y006504D01*
X003748Y006521D01*
X003747Y006538D01*
X006525Y005240D02*
X006525Y003820D01*
X008385Y003820D02*
X008385Y005240D01*
D12*
X005132Y007862D02*
X005134Y007889D01*
X005140Y007916D01*
X005149Y007942D01*
X005162Y007966D01*
X005178Y007989D01*
X005197Y008008D01*
X005219Y008025D01*
X005243Y008039D01*
X005268Y008049D01*
X005295Y008056D01*
X005322Y008059D01*
X005350Y008058D01*
X005377Y008053D01*
X005403Y008045D01*
X005427Y008033D01*
X005450Y008017D01*
X005471Y007999D01*
X005488Y007978D01*
X005503Y007954D01*
X005514Y007929D01*
X005522Y007903D01*
X005526Y007876D01*
X005526Y007848D01*
X005522Y007821D01*
X005514Y007795D01*
X005503Y007770D01*
X005488Y007746D01*
X005471Y007725D01*
X005450Y007707D01*
X005428Y007691D01*
X005403Y007679D01*
X005377Y007671D01*
X005350Y007666D01*
X005322Y007665D01*
X005295Y007668D01*
X005268Y007675D01*
X005243Y007685D01*
X005219Y007699D01*
X005197Y007716D01*
X005178Y007735D01*
X005162Y007758D01*
X005149Y007782D01*
X005140Y007808D01*
X005134Y007835D01*
X005132Y007862D01*
D13*
X006774Y007918D02*
X006774Y008118D01*
X006884Y008118D01*
X007964Y008118D02*
X008074Y008118D01*
X008074Y007918D01*
X008074Y007038D02*
X008074Y006838D01*
X007964Y006838D01*
X006884Y006798D02*
X006744Y006938D01*
X006688Y004140D02*
X006690Y004155D01*
X006696Y004168D01*
X006705Y004180D01*
X006716Y004189D01*
X006730Y004195D01*
X006745Y004197D01*
X006760Y004195D01*
X006773Y004189D01*
X006785Y004180D01*
X006794Y004169D01*
X006800Y004155D01*
X006802Y004140D01*
X006800Y004125D01*
X006794Y004112D01*
X006785Y004100D01*
X006774Y004091D01*
X006760Y004085D01*
X006745Y004083D01*
X006730Y004085D01*
X006717Y004091D01*
X006705Y004100D01*
X006696Y004111D01*
X006690Y004125D01*
X006688Y004140D01*
X003002Y005365D02*
X002886Y005441D01*
X002880Y005451D02*
X003002Y005543D01*
X002880Y005632D02*
X002880Y005451D01*
X002880Y005270D01*
X008715Y010601D02*
X008896Y010601D01*
X008988Y010479D01*
X009077Y010601D02*
X008896Y010601D01*
X008886Y010595D02*
X008810Y010479D01*
D14*
X003527Y003945D02*
X003414Y003846D01*
X003383Y003882D02*
X003334Y003938D01*
X003336Y003973D01*
X003393Y004023D01*
X003458Y003948D02*
X003383Y003882D01*
X003471Y003895D02*
X003504Y003858D01*
X003527Y003945D02*
X003593Y003870D01*
X003286Y003992D02*
X003220Y004068D01*
X003188Y004104D02*
X003172Y004123D01*
X003191Y004140D01*
X003207Y004121D01*
X003188Y004104D01*
X003159Y004175D02*
X003124Y004178D01*
X003091Y004215D01*
X003093Y004250D01*
X003235Y004241D01*
X003159Y004175D01*
X003093Y004250D02*
X003169Y004316D01*
X003204Y004314D01*
X003237Y004276D01*
X003235Y004241D01*
X003296Y004134D02*
X003366Y004129D01*
X003253Y004030D01*
X002944Y004373D02*
X002878Y004449D01*
X003020Y004439D01*
X003039Y004456D01*
X003041Y004491D01*
X003008Y004529D01*
X002973Y004531D01*
X002941Y004566D02*
X002944Y004602D01*
X002911Y004639D01*
X002876Y004642D01*
X002800Y004576D01*
X002798Y004541D01*
X002831Y004503D01*
X002866Y004501D01*
X002860Y005021D02*
X002960Y005021D01*
X003007Y005021D02*
X003082Y005021D01*
X003108Y005046D01*
X003108Y005146D01*
X003082Y005171D01*
X003007Y005171D01*
X003007Y005021D01*
X002910Y005096D02*
X002860Y005096D01*
X002860Y005171D02*
X002860Y005021D01*
X002813Y005021D02*
X002713Y005021D01*
X002713Y005171D01*
X002860Y005171D02*
X002960Y005171D01*
X003155Y005146D02*
X003180Y005171D01*
X003230Y005171D01*
X003255Y005146D01*
X003255Y005121D01*
X003155Y005021D01*
X003255Y005021D01*
X003736Y005245D02*
X003770Y005208D01*
X003805Y005206D01*
X003818Y005154D02*
X003886Y005080D01*
X003894Y005086D02*
X003961Y005012D01*
X003927Y005049D02*
X004039Y005149D01*
X003968Y005153D01*
X003963Y005218D02*
X003852Y005117D01*
X003893Y005221D02*
X003963Y005218D01*
X003880Y005273D02*
X003881Y005309D01*
X003848Y005346D01*
X003813Y005348D01*
X003738Y005280D01*
X003736Y005245D01*
X004011Y004993D02*
X004153Y004986D01*
X004078Y004919D01*
X004043Y004921D01*
X004009Y004958D01*
X004011Y004993D01*
X004085Y005060D01*
X004121Y005059D01*
X004154Y005022D01*
X004153Y004986D01*
X004166Y004934D02*
X004110Y004884D01*
X004108Y004849D01*
X004158Y004793D01*
X004233Y004860D01*
X004246Y004808D02*
X004279Y004771D01*
X004190Y004758D02*
X004302Y004859D01*
X004369Y004784D01*
X004471Y004085D02*
X004471Y003935D01*
X004421Y003935D02*
X004522Y003935D01*
X004569Y003935D02*
X004594Y003935D01*
X004594Y003960D01*
X004569Y003960D01*
X004569Y003935D01*
X004642Y003960D02*
X004667Y003935D01*
X004717Y003935D01*
X004743Y003960D01*
X004743Y004010D01*
X004717Y004035D01*
X004692Y004035D01*
X004642Y004010D01*
X004642Y004085D01*
X004743Y004085D01*
X004790Y004085D02*
X004790Y003935D01*
X004790Y003985D02*
X004865Y004035D01*
X004790Y003985D02*
X004865Y003935D01*
X005015Y003938D02*
X005015Y004088D01*
X005090Y004088D01*
X005115Y004063D01*
X005115Y004013D01*
X005090Y003988D01*
X005015Y003988D01*
X005065Y003988D02*
X005115Y003938D01*
X005163Y004013D02*
X005263Y004013D01*
X005238Y003938D02*
X005238Y004088D01*
X005163Y004013D01*
X005555Y003616D02*
X005630Y003616D01*
X005655Y003591D01*
X005655Y003541D01*
X005630Y003516D01*
X005555Y003516D01*
X005605Y003516D02*
X005655Y003466D01*
X005702Y003466D02*
X005802Y003466D01*
X005752Y003466D02*
X005752Y003616D01*
X005702Y003566D01*
X005704Y003416D02*
X005754Y003416D01*
X005779Y003391D01*
X005779Y003366D01*
X005754Y003341D01*
X005704Y003341D01*
X005679Y003366D01*
X005679Y003391D01*
X005704Y003416D01*
X005631Y003416D02*
X005581Y003391D01*
X005531Y003341D01*
X005606Y003341D01*
X005631Y003316D01*
X005631Y003291D01*
X005606Y003266D01*
X005556Y003266D01*
X005531Y003291D01*
X005531Y003341D01*
X005555Y003466D02*
X005555Y003616D01*
X005704Y003341D02*
X005679Y003316D01*
X005679Y003291D01*
X005704Y003266D01*
X005754Y003266D01*
X005779Y003291D01*
X005779Y003316D01*
X005754Y003341D01*
X005051Y003408D02*
X004965Y003459D01*
X004888Y003331D01*
X004848Y003355D02*
X004783Y003393D01*
X004775Y003428D01*
X004813Y003492D01*
X004786Y003538D02*
X004734Y003452D01*
X004700Y003443D01*
X004657Y003469D01*
X004648Y003503D01*
X004786Y003538D01*
X004777Y003572D01*
X004734Y003598D01*
X004700Y003589D01*
X004648Y003503D01*
X004595Y003506D02*
X004509Y003558D01*
X004552Y003532D02*
X004629Y003661D01*
X004561Y003643D01*
X004510Y003667D02*
X004476Y003659D01*
X004485Y003624D01*
X004472Y003603D01*
X004437Y003594D01*
X004394Y003620D01*
X004386Y003654D01*
X004345Y003679D02*
X004311Y003670D01*
X004268Y003696D01*
X004259Y003730D01*
X004311Y003816D01*
X004345Y003825D01*
X004388Y003799D01*
X004397Y003764D01*
X004437Y003740D02*
X004472Y003749D01*
X004514Y003723D01*
X004523Y003689D01*
X004510Y003667D01*
X004476Y003659D02*
X004454Y003672D01*
X004421Y004035D02*
X004471Y004085D01*
X004899Y003441D02*
X004848Y003355D01*
X004927Y003395D02*
X004970Y003369D01*
X005403Y002617D02*
X005403Y002466D01*
X005353Y002466D02*
X005453Y002466D01*
X005501Y002492D02*
X005601Y002592D01*
X005601Y002492D01*
X005576Y002466D01*
X005526Y002466D01*
X005501Y002492D01*
X005501Y002592D01*
X005526Y002617D01*
X005576Y002617D01*
X005601Y002592D01*
X005648Y002617D02*
X005648Y002466D01*
X005648Y002517D02*
X005723Y002466D01*
X005648Y002517D02*
X005723Y002567D01*
X005893Y002520D02*
X005968Y002520D01*
X005993Y002545D01*
X005993Y002595D01*
X005968Y002620D01*
X005893Y002620D01*
X005893Y002470D01*
X005943Y002520D02*
X005993Y002470D01*
X006041Y002495D02*
X006066Y002470D01*
X006116Y002470D01*
X006141Y002495D01*
X006141Y002545D01*
X006116Y002570D01*
X006091Y002570D01*
X006041Y002545D01*
X006041Y002620D01*
X006141Y002620D01*
X005403Y002617D02*
X005353Y002567D01*
X005744Y004845D02*
X005744Y004995D01*
X005669Y004920D01*
X005769Y004920D01*
X005816Y004870D02*
X005816Y004845D01*
X005816Y004870D02*
X005916Y004970D01*
X005916Y004995D01*
X005816Y004995D01*
X005837Y005038D02*
X005812Y005063D01*
X005837Y005038D02*
X005887Y005038D01*
X005912Y005063D01*
X005912Y005088D01*
X005887Y005113D01*
X005862Y005113D01*
X005887Y005113D02*
X005912Y005138D01*
X005912Y005163D01*
X005887Y005188D01*
X005837Y005188D01*
X005812Y005163D01*
X005765Y005163D02*
X005740Y005188D01*
X005665Y005188D01*
X005665Y005038D01*
X005665Y005088D02*
X005740Y005088D01*
X005765Y005113D01*
X005765Y005163D01*
X005715Y005088D02*
X005765Y005038D01*
X005963Y004970D02*
X005963Y004870D01*
X006064Y004970D01*
X006064Y004870D01*
X006039Y004845D01*
X005988Y004845D01*
X005963Y004870D01*
X005963Y004970D02*
X005988Y004995D01*
X006039Y004995D01*
X006064Y004970D01*
X006481Y006893D02*
X006606Y006893D01*
X006631Y006918D01*
X006631Y006968D01*
X006606Y006993D01*
X006481Y006993D01*
X006556Y007040D02*
X006481Y007115D01*
X006631Y007115D01*
X006556Y007140D02*
X006556Y007040D01*
X006794Y008272D02*
X006894Y008272D01*
X006942Y008272D02*
X006992Y008272D01*
X006967Y008272D02*
X006967Y008423D01*
X006942Y008423D02*
X006992Y008423D01*
X007040Y008398D02*
X007040Y008372D01*
X007065Y008347D01*
X007115Y008347D01*
X007140Y008322D01*
X007140Y008297D01*
X007115Y008272D01*
X007065Y008272D01*
X007040Y008297D01*
X007040Y008398D02*
X007065Y008423D01*
X007115Y008423D01*
X007140Y008398D01*
X007187Y008398D02*
X007212Y008423D01*
X007262Y008423D01*
X007287Y008398D01*
X007287Y008372D01*
X007262Y008347D01*
X007287Y008322D01*
X007287Y008297D01*
X007262Y008272D01*
X007212Y008272D01*
X007187Y008297D01*
X007237Y008347D02*
X007262Y008347D01*
X007335Y008297D02*
X007360Y008272D01*
X007410Y008272D01*
X007435Y008297D01*
X007435Y008322D01*
X007410Y008347D01*
X007385Y008347D01*
X007410Y008347D02*
X007435Y008372D01*
X007435Y008398D01*
X007410Y008423D01*
X007360Y008423D01*
X007335Y008398D01*
X007482Y008372D02*
X007532Y008423D01*
X007532Y008272D01*
X007482Y008272D02*
X007582Y008272D01*
X006948Y008846D02*
X006923Y008821D01*
X006873Y008821D01*
X006848Y008846D01*
X006948Y008946D01*
X006948Y008846D01*
X006948Y008946D02*
X006923Y008971D01*
X006873Y008971D01*
X006848Y008946D01*
X006848Y008846D01*
X006801Y008946D02*
X006701Y008846D01*
X006701Y008821D01*
X006628Y008821D02*
X006628Y008971D01*
X006553Y008896D01*
X006653Y008896D01*
X006701Y008971D02*
X006801Y008971D01*
X006801Y008946D01*
X006538Y008955D02*
X006488Y008930D01*
X006438Y008880D01*
X006513Y008880D01*
X006538Y008855D01*
X006538Y008830D01*
X006513Y008804D01*
X006463Y008804D01*
X006438Y008830D01*
X006438Y008880D01*
X006391Y008880D02*
X006366Y008855D01*
X006291Y008855D01*
X006341Y008855D02*
X006391Y008804D01*
X006391Y008880D02*
X006391Y008930D01*
X006366Y008955D01*
X006291Y008955D01*
X006291Y008804D01*
X006794Y008423D02*
X006794Y008272D01*
X005278Y009783D02*
X005253Y009758D01*
X005203Y009758D01*
X005178Y009783D01*
X005178Y009808D01*
X005203Y009833D01*
X005253Y009833D01*
X005278Y009808D01*
X005278Y009783D01*
X005253Y009833D02*
X005278Y009858D01*
X005278Y009883D01*
X005253Y009908D01*
X005203Y009908D01*
X005178Y009883D01*
X005178Y009858D01*
X005203Y009833D01*
X005131Y009808D02*
X005131Y009783D01*
X005106Y009758D01*
X005056Y009758D01*
X005031Y009783D01*
X005031Y009833D01*
X005106Y009833D01*
X005131Y009808D01*
X005081Y009883D02*
X005031Y009833D01*
X005081Y009883D02*
X005131Y009908D01*
X004920Y009880D02*
X004895Y009905D01*
X004845Y009905D01*
X004820Y009880D01*
X004773Y009880D02*
X004773Y009830D01*
X004748Y009805D01*
X004673Y009805D01*
X004723Y009805D02*
X004773Y009755D01*
X004820Y009755D02*
X004920Y009855D01*
X004920Y009880D01*
X004920Y009755D02*
X004820Y009755D01*
X004773Y009880D02*
X004748Y009905D01*
X004673Y009905D01*
X004673Y009755D01*
X009099Y010749D02*
X009199Y010749D01*
X009246Y010749D02*
X009346Y010749D01*
X009393Y010749D02*
X009468Y010749D01*
X009493Y010774D01*
X009493Y010874D01*
X009468Y010899D01*
X009393Y010899D01*
X009393Y010749D01*
X009296Y010824D02*
X009246Y010824D01*
X009246Y010899D02*
X009246Y010749D01*
X009099Y010749D02*
X009099Y010899D01*
X009246Y010899D02*
X009346Y010899D01*
X009541Y010849D02*
X009591Y010899D01*
X009591Y010749D01*
X009541Y010749D02*
X009641Y010749D01*
X008603Y004705D02*
X008503Y004705D01*
X008503Y004605D02*
X008603Y004605D01*
X008653Y004655D01*
X008603Y004705D01*
X008603Y004558D02*
X008628Y004558D01*
X008653Y004533D01*
X008653Y004458D01*
X008503Y004458D01*
X008503Y004533D01*
X008528Y004558D01*
X008553Y004558D01*
X008578Y004533D01*
X008578Y004458D01*
X008628Y004411D02*
X008653Y004386D01*
X008653Y004336D01*
X008628Y004311D01*
X008528Y004411D01*
X008628Y004411D01*
X008628Y004311D02*
X008528Y004311D01*
X008503Y004336D01*
X008503Y004386D01*
X008528Y004411D01*
X008578Y004533D02*
X008603Y004558D01*
X008603Y004264D02*
X008628Y004264D01*
X008653Y004238D01*
X008653Y004188D01*
X008628Y004163D01*
X008603Y004163D01*
X008578Y004188D01*
X008578Y004238D01*
X008603Y004264D01*
X008578Y004238D02*
X008553Y004264D01*
X008528Y004264D01*
X008503Y004238D01*
X008503Y004188D01*
X008528Y004163D01*
X008553Y004163D01*
X008578Y004188D01*
X008628Y004116D02*
X008653Y004091D01*
X008653Y004041D01*
X008628Y004016D01*
X008528Y004016D01*
X008503Y004041D01*
X008503Y004091D01*
X008528Y004116D01*
X008628Y004116D01*
X008653Y004116D02*
X008603Y004066D01*
X008628Y003969D02*
X008653Y003944D01*
X008653Y003894D01*
X008628Y003869D01*
X008578Y003869D02*
X008553Y003919D01*
X008553Y003944D01*
X008578Y003969D01*
X008628Y003969D01*
X008578Y003869D02*
X008503Y003869D01*
X008503Y003969D01*
X008528Y003822D02*
X008503Y003797D01*
X008503Y003746D01*
X008528Y003721D01*
X008503Y003674D02*
X008653Y003674D01*
X008603Y003624D01*
X008653Y003574D01*
X008503Y003574D01*
X008653Y003721D02*
X008553Y003822D01*
X008528Y003822D01*
X008653Y003822D02*
X008653Y003721D01*
D15*
X006061Y004038D03*
D16*
X005073Y004349D03*
X005006Y004975D03*
X005754Y002880D03*
X006447Y009215D03*
X005136Y009534D03*
M02*
