G75*
G70*
%OFA0B0*%
%FSLAX24Y24*%
%IPPOS*%
%LPD*%
%AMOC8*
5,1,8,0,0,1.08239X$1,22.5*
%
%ADD10R,0.2390X0.2390*%
%ADD11C,0.0396*%
%ADD12C,0.0100*%
%ADD13C,0.0060*%
%ADD14C,0.0080*%
D10*
X002081Y006979D03*
X007002Y006979D03*
X011923Y006979D03*
D11*
X009782Y005262D03*
X009089Y005175D03*
X009392Y004384D03*
X008093Y004223D03*
X006794Y004349D03*
X005494Y003833D03*
X005018Y005435D03*
X004754Y006868D03*
X005376Y006931D03*
X005947Y007030D03*
X005061Y007947D03*
X004569Y007612D03*
X004022Y006951D03*
X006014Y008699D03*
X006597Y008526D03*
X008014Y008486D03*
X008916Y008164D03*
X009435Y008294D03*
X008526Y006774D03*
X008530Y006207D03*
X007207Y006321D03*
X007660Y002664D03*
X007270Y010683D03*
D12*
X007282Y010683D01*
X007272Y010696D01*
X007259Y010705D01*
X007245Y010712D01*
X007229Y010715D01*
X007213Y010714D01*
X007198Y010710D01*
X007184Y010703D01*
X005817Y009069D02*
X008719Y009069D01*
X008219Y008860D02*
X006105Y008860D01*
X006105Y008861D02*
X006087Y008859D01*
X006070Y008854D01*
X006054Y008846D01*
X006041Y008834D01*
X006029Y008821D01*
X006021Y008805D01*
X006016Y008788D01*
X006014Y008770D01*
X006014Y008699D01*
X005817Y009069D02*
X005780Y009066D01*
X005744Y009060D01*
X005708Y009050D01*
X005674Y009036D01*
X005641Y009020D01*
X005610Y009000D01*
X005581Y008977D01*
X005554Y008952D01*
X005530Y008924D01*
X005509Y008894D01*
X005491Y008862D01*
X005476Y008828D01*
X005464Y008793D01*
X005456Y008757D01*
X005452Y008720D01*
X005451Y008683D01*
X005451Y007687D01*
X005652Y007443D02*
X005651Y007430D01*
X005646Y007417D01*
X005639Y007406D01*
X005630Y007397D01*
X005619Y007390D01*
X005606Y007385D01*
X005593Y007384D01*
X005652Y007443D02*
X005652Y008211D01*
X005654Y008233D01*
X005659Y008254D01*
X005667Y008274D01*
X005678Y008292D01*
X005692Y008309D01*
X005709Y008323D01*
X005727Y008334D01*
X005747Y008342D01*
X005768Y008347D01*
X005790Y008349D01*
X005908Y008349D01*
X006203Y008349D01*
X006420Y008349D01*
X006445Y008351D01*
X006470Y008356D01*
X006494Y008365D01*
X006516Y008377D01*
X006536Y008392D01*
X006554Y008410D01*
X006569Y008430D01*
X006581Y008452D01*
X006590Y008476D01*
X006595Y008501D01*
X006597Y008526D01*
X005593Y007385D02*
X005565Y007383D01*
X005537Y007378D01*
X005510Y007368D01*
X005484Y007356D01*
X005461Y007340D01*
X005440Y007321D01*
X005421Y007300D01*
X005405Y007277D01*
X005393Y007251D01*
X005383Y007224D01*
X005378Y007196D01*
X005376Y007168D01*
X005376Y006931D01*
X004754Y006510D02*
X004756Y006451D01*
X004762Y006393D01*
X004771Y006335D01*
X004785Y006278D01*
X004802Y006221D01*
X004822Y006166D01*
X004847Y006113D01*
X004874Y006061D01*
X004905Y006011D01*
X004940Y005963D01*
X004977Y005918D01*
X005017Y005875D01*
X005060Y005835D01*
X005105Y005798D01*
X005153Y005763D01*
X005203Y005732D01*
X005255Y005705D01*
X005308Y005680D01*
X005363Y005660D01*
X005420Y005643D01*
X005477Y005629D01*
X005535Y005620D01*
X005593Y005614D01*
X005652Y005612D01*
X008357Y005612D01*
X008395Y005614D01*
X008432Y005619D01*
X008469Y005629D01*
X008505Y005641D01*
X008539Y005658D01*
X008571Y005677D01*
X008602Y005700D01*
X008630Y005725D01*
X008655Y005753D01*
X008678Y005784D01*
X008697Y005816D01*
X008714Y005850D01*
X008726Y005886D01*
X008736Y005923D01*
X008741Y005960D01*
X008743Y005998D01*
X008742Y005998D02*
X008740Y006025D01*
X008734Y006051D01*
X008725Y006077D01*
X008712Y006100D01*
X008696Y006122D01*
X008677Y006141D01*
X008655Y006157D01*
X008632Y006170D01*
X008606Y006179D01*
X008580Y006185D01*
X008553Y006187D01*
X008530Y006207D01*
X008915Y003703D02*
X009044Y003709D01*
X009172Y003720D01*
X009299Y003738D01*
X009425Y003762D01*
X009550Y003792D01*
X009673Y003829D01*
X009795Y003871D01*
X009914Y003919D01*
X010030Y003973D01*
X010144Y004033D01*
X010255Y004098D01*
X010362Y004169D01*
X010466Y004244D01*
X010566Y004325D01*
X010662Y004411D01*
X010754Y004501D01*
X010841Y004595D01*
X010923Y004694D01*
X011000Y004796D01*
X011073Y004903D01*
X011139Y005012D01*
X011201Y005125D01*
X011257Y005241D01*
X011307Y005359D01*
X011351Y005480D01*
X011389Y005603D01*
X011422Y005727D01*
X011448Y005853D01*
X011468Y005980D01*
X011481Y006108D01*
X011489Y006236D01*
X011490Y006364D01*
X011923Y006979D01*
X009782Y005341D02*
X009782Y005262D01*
X009781Y005341D02*
X009779Y005378D01*
X009773Y005414D01*
X009764Y005449D01*
X009751Y005483D01*
X009734Y005516D01*
X009714Y005547D01*
X009691Y005575D01*
X009665Y005601D01*
X009637Y005624D01*
X009606Y005644D01*
X009573Y005661D01*
X009539Y005674D01*
X009504Y005683D01*
X009468Y005689D01*
X009431Y005691D01*
X009038Y005691D01*
X009001Y005689D01*
X008964Y005683D01*
X008929Y005674D01*
X008894Y005660D01*
X008861Y005644D01*
X008830Y005623D01*
X008801Y005600D01*
X008775Y005574D01*
X008752Y005545D01*
X008731Y005514D01*
X008715Y005481D01*
X008701Y005446D01*
X008692Y005411D01*
X008686Y005374D01*
X008684Y005337D01*
X008683Y005337D02*
X008683Y005278D01*
X009088Y005175D02*
X009086Y005139D01*
X009080Y005103D01*
X009071Y005068D01*
X009058Y005034D01*
X009042Y005002D01*
X009022Y004972D01*
X008999Y004943D01*
X008974Y004918D01*
X008945Y004895D01*
X008915Y004875D01*
X008883Y004859D01*
X008849Y004846D01*
X008814Y004837D01*
X008778Y004831D01*
X008742Y004829D01*
X008049Y004829D01*
X006404Y004829D01*
X006379Y004827D01*
X006355Y004822D01*
X006332Y004813D01*
X006310Y004802D01*
X006291Y004787D01*
X006273Y004769D01*
X006258Y004750D01*
X006247Y004728D01*
X006238Y004705D01*
X006233Y004681D01*
X006231Y004656D01*
X005191Y004656D01*
X005408Y004266D02*
X006534Y004266D01*
X006533Y004266D02*
X006535Y004282D01*
X006539Y004298D01*
X006547Y004312D01*
X006557Y004325D01*
X006570Y004335D01*
X006584Y004343D01*
X006600Y004347D01*
X006616Y004349D01*
X006794Y004349D01*
X006360Y005089D02*
X005364Y005089D01*
X005328Y005091D01*
X005292Y005097D01*
X005257Y005106D01*
X005223Y005119D01*
X005191Y005135D01*
X005161Y005155D01*
X005132Y005178D01*
X005107Y005203D01*
X005084Y005232D01*
X005064Y005262D01*
X005048Y005294D01*
X005035Y005328D01*
X005026Y005363D01*
X005020Y005399D01*
X005018Y005435D01*
X005191Y004656D02*
X005125Y004658D01*
X005060Y004663D01*
X004995Y004673D01*
X004931Y004685D01*
X004867Y004702D01*
X004805Y004722D01*
X004744Y004745D01*
X004684Y004772D01*
X004626Y004802D01*
X004569Y004835D01*
X004515Y004872D01*
X004462Y004911D01*
X004412Y004953D01*
X004364Y004998D01*
X004319Y005046D01*
X004277Y005096D01*
X004238Y005149D01*
X004201Y005203D01*
X004168Y005260D01*
X004138Y005318D01*
X004111Y005378D01*
X004088Y005439D01*
X004068Y005501D01*
X004051Y005565D01*
X004039Y005629D01*
X004029Y005694D01*
X004024Y005759D01*
X004022Y005825D01*
X004022Y006951D01*
X003675Y006908D02*
X003675Y005998D01*
X003459Y005868D02*
X003459Y007038D01*
X004754Y006868D02*
X004754Y006612D01*
X004754Y006510D01*
X003675Y006908D02*
X003677Y006973D01*
X003683Y007039D01*
X003692Y007104D01*
X003705Y007168D01*
X003722Y007231D01*
X003743Y007293D01*
X003767Y007354D01*
X003795Y007413D01*
X003826Y007471D01*
X003860Y007527D01*
X003898Y007580D01*
X003938Y007632D01*
X003982Y007681D01*
X004028Y007727D01*
X004077Y007771D01*
X004129Y007811D01*
X004182Y007849D01*
X004238Y007883D01*
X004296Y007914D01*
X004355Y007942D01*
X004416Y007966D01*
X004478Y007987D01*
X004541Y008004D01*
X004605Y008017D01*
X004670Y008026D01*
X004736Y008032D01*
X004801Y008034D01*
X004975Y008034D01*
X004569Y007613D02*
X004608Y007582D01*
X004649Y007555D01*
X004692Y007532D01*
X004737Y007511D01*
X004783Y007494D01*
X004831Y007481D01*
X004879Y007472D01*
X004928Y007467D01*
X004977Y007465D01*
X005026Y007467D01*
X005075Y007473D01*
X005123Y007483D01*
X005170Y007497D01*
X005216Y007514D01*
X005261Y007535D01*
X005303Y007559D01*
X005344Y007587D01*
X005382Y007617D01*
X005418Y007651D01*
X005451Y007687D01*
X005062Y007947D02*
X005060Y007964D01*
X005055Y007980D01*
X005047Y007995D01*
X005037Y008009D01*
X005023Y008019D01*
X005008Y008027D01*
X004992Y008032D01*
X004975Y008034D01*
X003676Y005998D02*
X003678Y005916D01*
X003684Y005833D01*
X003694Y005752D01*
X003707Y005670D01*
X003725Y005590D01*
X003746Y005510D01*
X003771Y005432D01*
X003800Y005354D01*
X003833Y005279D01*
X003869Y005204D01*
X003908Y005132D01*
X003951Y005062D01*
X003997Y004993D01*
X004047Y004927D01*
X004099Y004864D01*
X004154Y004803D01*
X004213Y004744D01*
X004274Y004689D01*
X004337Y004637D01*
X004403Y004587D01*
X004472Y004541D01*
X004542Y004498D01*
X004614Y004459D01*
X004689Y004423D01*
X004764Y004390D01*
X004842Y004361D01*
X004920Y004336D01*
X005000Y004315D01*
X005080Y004297D01*
X005162Y004284D01*
X005243Y004274D01*
X005326Y004268D01*
X005408Y004266D01*
X006360Y005089D02*
X008266Y005089D01*
X008267Y005094D01*
X008270Y005097D01*
X008273Y005100D01*
X008278Y005101D01*
X008506Y005101D01*
X008531Y005103D01*
X008556Y005108D01*
X008580Y005117D01*
X008602Y005129D01*
X008622Y005144D01*
X008640Y005162D01*
X008655Y005182D01*
X008667Y005204D01*
X008676Y005228D01*
X008681Y005253D01*
X008683Y005278D01*
X009392Y004872D02*
X009392Y004384D01*
X009392Y004872D02*
X009394Y004910D01*
X009399Y004948D01*
X009409Y004985D01*
X009422Y005021D01*
X009438Y005056D01*
X009458Y005089D01*
X009481Y005119D01*
X009506Y005148D01*
X009535Y005173D01*
X009565Y005196D01*
X009598Y005216D01*
X009633Y005232D01*
X009669Y005245D01*
X009706Y005255D01*
X009744Y005260D01*
X009782Y005262D01*
X008916Y003703D02*
X008699Y003703D01*
X008636Y003701D01*
X008574Y003695D01*
X008512Y003686D01*
X008450Y003673D01*
X008390Y003656D01*
X008331Y003635D01*
X008273Y003611D01*
X008216Y003584D01*
X008161Y003553D01*
X008109Y003519D01*
X008058Y003482D01*
X008010Y003442D01*
X007964Y003399D01*
X007921Y003353D01*
X007881Y003305D01*
X007844Y003254D01*
X007810Y003202D01*
X007779Y003147D01*
X007752Y003090D01*
X007728Y003032D01*
X007707Y002973D01*
X007690Y002913D01*
X007677Y002851D01*
X007668Y002789D01*
X007662Y002727D01*
X007660Y002664D01*
X005494Y003833D02*
X005397Y003835D01*
X005301Y003842D01*
X005204Y003854D01*
X005109Y003870D01*
X005014Y003890D01*
X004921Y003915D01*
X004828Y003945D01*
X004738Y003979D01*
X004649Y004017D01*
X004562Y004059D01*
X004476Y004106D01*
X004394Y004156D01*
X004314Y004210D01*
X004236Y004268D01*
X004161Y004330D01*
X004090Y004395D01*
X004021Y004464D01*
X003956Y004535D01*
X003894Y004610D01*
X003836Y004688D01*
X003782Y004768D01*
X003732Y004851D01*
X003685Y004936D01*
X003643Y005023D01*
X003605Y005112D01*
X003571Y005202D01*
X003541Y005295D01*
X003516Y005388D01*
X003496Y005483D01*
X003480Y005578D01*
X003468Y005675D01*
X003461Y005771D01*
X003459Y005868D01*
X003459Y007038D02*
X003465Y007219D01*
X003480Y007400D01*
X003503Y007579D01*
X003536Y007758D01*
X003577Y007934D01*
X003627Y008109D01*
X003685Y008281D01*
X003752Y008449D01*
X003826Y008614D01*
X003909Y008776D01*
X004000Y008933D01*
X004098Y009085D01*
X004204Y009233D01*
X004317Y009375D01*
X004436Y009511D01*
X004562Y009642D01*
X004695Y009766D01*
X004833Y009883D01*
X004977Y009993D01*
X005126Y010097D01*
X005280Y010192D01*
X005438Y010281D01*
X005601Y010361D01*
X005767Y010433D01*
X005937Y010497D01*
X006110Y010552D01*
X006285Y010599D01*
X006462Y010638D01*
X006641Y010667D01*
X006821Y010688D01*
X007002Y010700D01*
X007184Y010703D01*
X008719Y009069D02*
X008772Y009065D01*
X008824Y009058D01*
X008877Y009046D01*
X008928Y009031D01*
X008978Y009012D01*
X009026Y008990D01*
X009073Y008964D01*
X009117Y008935D01*
X009160Y008903D01*
X009200Y008868D01*
X009238Y008830D01*
X009272Y008789D01*
X009304Y008747D01*
X009333Y008702D01*
X009358Y008655D01*
X009380Y008606D01*
X009399Y008556D01*
X009414Y008505D01*
X009425Y008453D01*
X009432Y008400D01*
X009436Y008347D01*
X009435Y008293D01*
X008526Y007975D02*
X008526Y006774D01*
X008526Y007975D02*
X008524Y008017D01*
X008519Y008059D01*
X008510Y008101D01*
X008498Y008141D01*
X008483Y008181D01*
X008464Y008219D01*
X008443Y008255D01*
X008418Y008289D01*
X008391Y008322D01*
X008361Y008352D01*
X008328Y008379D01*
X008294Y008404D01*
X008258Y008425D01*
X008220Y008444D01*
X008180Y008459D01*
X008140Y008471D01*
X008098Y008480D01*
X008056Y008485D01*
X008014Y008487D01*
X008219Y008861D02*
X008271Y008859D01*
X008323Y008853D01*
X008374Y008844D01*
X008424Y008830D01*
X008474Y008813D01*
X008521Y008792D01*
X008568Y008768D01*
X008612Y008740D01*
X008654Y008709D01*
X008693Y008675D01*
X008730Y008638D01*
X008764Y008599D01*
X008795Y008557D01*
X008823Y008513D01*
X008847Y008466D01*
X008868Y008419D01*
X008885Y008369D01*
X008899Y008319D01*
X008908Y008268D01*
X008914Y008216D01*
X008916Y008164D01*
D13*
X007562Y002371D02*
X002438Y002371D01*
X002350Y002429D02*
X007458Y002429D01*
X007485Y002402D02*
X007598Y002356D01*
X007721Y002356D01*
X007834Y002402D01*
X007921Y002489D01*
X007968Y002602D01*
X007968Y002725D01*
X007921Y002838D01*
X007862Y002897D01*
X011884Y002897D01*
X011843Y002839D02*
X007920Y002839D01*
X007945Y002780D02*
X011802Y002780D01*
X011761Y002722D02*
X007968Y002722D01*
X007968Y002663D02*
X011719Y002663D01*
X011678Y002605D02*
X007968Y002605D01*
X007945Y002546D02*
X011637Y002546D01*
X011595Y002488D02*
X007920Y002488D01*
X007861Y002429D02*
X011554Y002429D01*
X011513Y002371D02*
X007758Y002371D01*
X007485Y002402D02*
X007398Y002489D01*
X007352Y002602D01*
X007352Y002725D01*
X007398Y002838D01*
X007485Y002925D01*
X007529Y002943D01*
X007617Y003215D01*
X007617Y003215D01*
X007840Y003522D01*
X007840Y003522D01*
X007840Y003522D01*
X008148Y003746D01*
X008148Y003746D01*
X008509Y003863D01*
X008913Y003863D01*
X009188Y003883D01*
X009207Y003888D01*
X008153Y003888D01*
X008107Y003915D01*
X008031Y003915D01*
X007918Y003961D01*
X007832Y004048D01*
X007785Y004161D01*
X007785Y004284D01*
X007832Y004397D01*
X007918Y004484D01*
X008031Y004531D01*
X008154Y004531D01*
X008267Y004484D01*
X008354Y004397D01*
X008401Y004284D01*
X008401Y004188D01*
X009153Y004188D01*
X009131Y004210D01*
X009084Y004323D01*
X009084Y004445D01*
X009131Y004559D01*
X009217Y004645D01*
X009232Y004651D01*
X009232Y004901D01*
X009151Y004868D01*
X009029Y004746D01*
X008843Y004669D01*
X008843Y004669D01*
X006404Y004669D01*
X006400Y004669D01*
X006394Y004665D01*
X006391Y004659D01*
X006391Y004656D01*
X006391Y004589D01*
X006297Y004496D01*
X004992Y004496D01*
X005202Y004439D01*
X005408Y004426D01*
X006429Y004426D01*
X006439Y004444D01*
X006439Y004444D01*
X006518Y004490D01*
X006532Y004523D01*
X006619Y004610D01*
X006732Y004657D01*
X006855Y004657D01*
X006968Y004610D01*
X007055Y004523D01*
X007102Y004410D01*
X007102Y004287D01*
X007055Y004174D01*
X006968Y004087D01*
X006855Y004041D01*
X006732Y004041D01*
X006619Y004087D01*
X006600Y004106D01*
X006600Y004106D01*
X005640Y004106D01*
X005669Y004094D01*
X005756Y004007D01*
X005802Y003894D01*
X005802Y003772D01*
X005756Y003658D01*
X005669Y003572D01*
X005556Y003525D01*
X005433Y003525D01*
X005320Y003572D01*
X005233Y003658D01*
X005225Y003678D01*
X004765Y003783D01*
X004765Y003783D01*
X004319Y003998D01*
X004319Y003998D01*
X003932Y004306D01*
X003932Y004306D01*
X003932Y004306D01*
X003624Y004693D01*
X003624Y004693D01*
X003409Y005139D01*
X003409Y005139D01*
X003299Y005621D01*
X003299Y005674D01*
X000840Y005674D01*
X000776Y005738D01*
X000776Y008219D01*
X000840Y008283D01*
X003321Y008283D01*
X003386Y008219D01*
X003386Y007823D01*
X003456Y008162D01*
X003456Y008162D01*
X003752Y008861D01*
X003752Y008861D01*
X004179Y009489D01*
X004179Y009489D01*
X004720Y010022D01*
X004720Y010022D01*
X005355Y010439D01*
X005355Y010439D01*
X006059Y010724D01*
X006059Y010724D01*
X006805Y010866D01*
X006805Y010866D01*
X007015Y010864D01*
X007095Y010945D01*
X007209Y010991D01*
X007331Y010991D01*
X007444Y010945D01*
X007531Y010858D01*
X007578Y010745D01*
X007578Y010622D01*
X007531Y010509D01*
X007444Y010422D01*
X007331Y010375D01*
X007209Y010375D01*
X007095Y010422D01*
X007009Y010509D01*
X006998Y010535D01*
X006835Y010529D01*
X006155Y010399D01*
X005512Y010139D01*
X004933Y009759D01*
X004439Y009272D01*
X004050Y008699D01*
X003779Y008061D01*
X003671Y007540D01*
X003881Y007828D01*
X003881Y007828D01*
X003881Y007828D01*
X004210Y008068D01*
X004210Y008068D01*
X004598Y008194D01*
X004872Y008194D01*
X004887Y008208D01*
X005000Y008255D01*
X005123Y008255D01*
X005236Y008208D01*
X005291Y008153D01*
X005291Y008681D01*
X005288Y008786D01*
X005288Y008786D01*
X005365Y008985D01*
X005365Y008985D01*
X005512Y009140D01*
X005512Y009140D01*
X005706Y009226D01*
X005706Y009226D01*
X005749Y009227D01*
X005751Y009229D01*
X005815Y009229D01*
X005879Y009231D01*
X005881Y009229D01*
X008656Y009229D01*
X008659Y009232D01*
X008722Y009229D01*
X008785Y009229D01*
X008788Y009227D01*
X008869Y009223D01*
X008869Y009223D01*
X009138Y009124D01*
X009138Y009124D01*
X009363Y008946D01*
X009363Y008946D01*
X009363Y008946D01*
X009523Y008707D01*
X009523Y008707D01*
X009560Y008575D01*
X009610Y008555D01*
X009696Y008468D01*
X009743Y008355D01*
X009743Y008232D01*
X009696Y008119D01*
X009610Y008032D01*
X009497Y007985D01*
X009374Y007985D01*
X009261Y008032D01*
X009214Y008079D01*
X009177Y007989D01*
X009090Y007902D01*
X008977Y007856D01*
X008854Y007856D01*
X008741Y007902D01*
X008654Y007989D01*
X008607Y008102D01*
X008607Y008225D01*
X008654Y008338D01*
X006844Y008338D01*
X006858Y008351D02*
X006905Y008465D01*
X006905Y008587D01*
X006858Y008700D01*
X006858Y008700D01*
X008152Y008700D01*
X008219Y008700D01*
X008323Y008690D01*
X008517Y008610D01*
X008665Y008462D01*
X008698Y008382D01*
X008654Y008338D01*
X008630Y008279D02*
X008274Y008279D01*
X008277Y008277D02*
X008247Y008295D01*
X008214Y008303D01*
X007032Y008303D01*
X007032Y007009D01*
X006972Y007009D01*
X006972Y008303D01*
X006810Y008303D01*
X006858Y008351D01*
X006877Y008396D02*
X008692Y008396D01*
X008668Y008455D02*
X006901Y008455D01*
X006905Y008513D02*
X008614Y008513D01*
X008555Y008572D02*
X006905Y008572D01*
X006887Y008630D02*
X008468Y008630D01*
X008327Y008689D02*
X006863Y008689D01*
X006972Y008279D02*
X007032Y008279D01*
X007032Y008221D02*
X006972Y008221D01*
X006972Y008162D02*
X007032Y008162D01*
X007032Y008104D02*
X006972Y008104D01*
X006972Y008045D02*
X007032Y008045D01*
X007032Y007987D02*
X006972Y007987D01*
X006972Y007928D02*
X007032Y007928D01*
X007032Y007870D02*
X006972Y007870D01*
X006972Y007811D02*
X007032Y007811D01*
X007032Y007753D02*
X006972Y007753D01*
X006972Y007694D02*
X007032Y007694D01*
X007032Y007636D02*
X006972Y007636D01*
X006972Y007577D02*
X007032Y007577D01*
X007032Y007519D02*
X006972Y007519D01*
X006972Y007460D02*
X007032Y007460D01*
X007032Y007402D02*
X006972Y007402D01*
X006972Y007343D02*
X007032Y007343D01*
X007032Y007285D02*
X006972Y007285D01*
X006972Y007226D02*
X007032Y007226D01*
X007032Y007168D02*
X006972Y007168D01*
X006972Y007109D02*
X007032Y007109D01*
X007032Y007051D02*
X006972Y007051D01*
X006972Y007009D02*
X005678Y007009D01*
X005684Y006993D01*
X005684Y006949D01*
X006972Y006949D01*
X006972Y007009D01*
X006972Y006992D02*
X005684Y006992D01*
X005998Y006979D02*
X007002Y006979D01*
X007032Y006992D02*
X010619Y006992D01*
X010619Y006934D02*
X008327Y006934D01*
X008327Y006949D02*
X007032Y006949D01*
X007032Y007009D01*
X008327Y007009D01*
X008327Y008191D01*
X008318Y008224D01*
X008301Y008253D01*
X008277Y008277D01*
X008319Y008221D02*
X008607Y008221D01*
X008607Y008162D02*
X008327Y008162D01*
X008327Y008104D02*
X008607Y008104D01*
X008631Y008045D02*
X008327Y008045D01*
X008327Y007987D02*
X008657Y007987D01*
X008715Y007928D02*
X008327Y007928D01*
X008327Y007870D02*
X008820Y007870D01*
X009011Y007870D02*
X010619Y007870D01*
X010619Y007928D02*
X009116Y007928D01*
X009174Y007987D02*
X009371Y007987D01*
X009500Y007987D02*
X010619Y007987D01*
X010619Y008045D02*
X009623Y008045D01*
X009681Y008104D02*
X010619Y008104D01*
X010619Y008162D02*
X009714Y008162D01*
X009739Y008221D02*
X010620Y008221D01*
X010619Y008219D02*
X010619Y005738D01*
X010683Y005674D01*
X011232Y005674D01*
X011206Y005548D01*
X010975Y005048D01*
X010639Y004612D01*
X010215Y004261D01*
X010169Y004238D01*
X010278Y004503D01*
X010278Y005894D01*
X010185Y006055D01*
X010024Y006148D01*
X008870Y006148D01*
X008838Y006203D01*
X008838Y006268D01*
X008791Y006381D01*
X008704Y006468D01*
X008591Y006515D01*
X008468Y006515D01*
X008355Y006468D01*
X008327Y006440D01*
X008327Y006949D01*
X008327Y006875D02*
X010619Y006875D01*
X010619Y006817D02*
X008327Y006817D01*
X008327Y006758D02*
X010619Y006758D01*
X010619Y006700D02*
X008327Y006700D01*
X008327Y006641D02*
X010619Y006641D01*
X010619Y006583D02*
X008327Y006583D01*
X008327Y006524D02*
X010619Y006524D01*
X010619Y006466D02*
X008707Y006466D01*
X008765Y006407D02*
X010619Y006407D01*
X010619Y006349D02*
X008805Y006349D01*
X008829Y006290D02*
X010619Y006290D01*
X010619Y006232D02*
X008838Y006232D01*
X008855Y006173D02*
X010619Y006173D01*
X010619Y006115D02*
X010082Y006115D01*
X010184Y006056D02*
X010619Y006056D01*
X010619Y005998D02*
X010218Y005998D01*
X010185Y006055D02*
X010185Y006055D01*
X010185Y006055D01*
X010252Y005939D02*
X010619Y005939D01*
X010619Y005881D02*
X010278Y005881D01*
X010278Y005822D02*
X010619Y005822D01*
X010619Y005764D02*
X010278Y005764D01*
X010278Y005705D02*
X010651Y005705D01*
X010278Y005647D02*
X011227Y005647D01*
X011214Y005588D02*
X010278Y005588D01*
X010278Y005530D02*
X011198Y005530D01*
X011171Y005471D02*
X010278Y005471D01*
X010278Y005413D02*
X011144Y005413D01*
X011117Y005354D02*
X010278Y005354D01*
X010278Y005296D02*
X011090Y005296D01*
X011063Y005237D02*
X010278Y005237D01*
X010278Y005179D02*
X011036Y005179D01*
X011009Y005120D02*
X010278Y005120D01*
X010278Y005062D02*
X010982Y005062D01*
X010941Y005003D02*
X010278Y005003D01*
X010278Y004945D02*
X010896Y004945D01*
X010851Y004886D02*
X010278Y004886D01*
X010278Y004828D02*
X010806Y004828D01*
X010761Y004769D02*
X010278Y004769D01*
X010278Y004711D02*
X010716Y004711D01*
X010670Y004652D02*
X010278Y004652D01*
X010278Y004594D02*
X010617Y004594D01*
X010547Y004535D02*
X010278Y004535D01*
X010267Y004477D02*
X010476Y004477D01*
X010405Y004418D02*
X010243Y004418D01*
X010219Y004360D02*
X010334Y004360D01*
X010263Y004301D02*
X010195Y004301D01*
X010177Y004243D02*
X010170Y004243D01*
X010342Y003950D02*
X012627Y003950D01*
X012586Y003892D02*
X010226Y003892D01*
X010109Y003833D02*
X012545Y003833D01*
X012504Y003775D02*
X009993Y003775D01*
X009876Y003716D02*
X012462Y003716D01*
X012421Y003658D02*
X009677Y003658D01*
X009839Y003698D02*
X009839Y003698D01*
X009231Y003548D01*
X009231Y003548D01*
X008983Y003544D01*
X008982Y003543D01*
X008917Y003543D01*
X008852Y003542D01*
X008851Y003543D01*
X008699Y003543D01*
X008561Y003532D01*
X008300Y003447D01*
X008077Y003285D01*
X007916Y003063D01*
X007862Y002897D01*
X007881Y002956D02*
X011926Y002956D01*
X011967Y003014D02*
X007900Y003014D01*
X007923Y003073D02*
X012008Y003073D01*
X012049Y003131D02*
X007965Y003131D01*
X008008Y003190D02*
X012091Y003190D01*
X012132Y003248D02*
X008050Y003248D01*
X008107Y003307D02*
X012173Y003307D01*
X012215Y003365D02*
X008187Y003365D01*
X008268Y003424D02*
X012256Y003424D01*
X012297Y003482D02*
X008408Y003482D01*
X008670Y003541D02*
X012338Y003541D01*
X012380Y003599D02*
X009439Y003599D01*
X009839Y003698D02*
X010399Y003979D01*
X010882Y004377D01*
X011264Y004873D01*
X011526Y005441D01*
X011526Y005441D01*
X011575Y005674D01*
X013164Y005674D01*
X013228Y005738D01*
X013228Y008219D01*
X013164Y008283D01*
X010683Y008283D01*
X010619Y008219D01*
X010679Y008279D02*
X009743Y008279D01*
X009743Y008338D02*
X013531Y008338D01*
X013502Y008396D02*
X009726Y008396D01*
X009702Y008455D02*
X013473Y008455D01*
X013444Y008513D02*
X009651Y008513D01*
X009569Y008572D02*
X013414Y008572D01*
X013385Y008630D02*
X009545Y008630D01*
X009528Y008689D02*
X013356Y008689D01*
X013327Y008747D02*
X009496Y008747D01*
X009457Y008806D02*
X013297Y008806D01*
X013268Y008864D02*
X009418Y008864D01*
X009379Y008923D02*
X013239Y008923D01*
X013210Y008981D02*
X009319Y008981D01*
X009245Y009040D02*
X013180Y009040D01*
X013151Y009098D02*
X009170Y009098D01*
X009049Y009157D02*
X013122Y009157D01*
X013093Y009215D02*
X008890Y009215D01*
X009200Y008045D02*
X009248Y008045D01*
X008327Y007811D02*
X010619Y007811D01*
X010619Y007753D02*
X008327Y007753D01*
X008327Y007694D02*
X010619Y007694D01*
X010619Y007636D02*
X008327Y007636D01*
X008327Y007577D02*
X010619Y007577D01*
X010619Y007519D02*
X008327Y007519D01*
X008327Y007460D02*
X010619Y007460D01*
X010619Y007402D02*
X008327Y007402D01*
X008327Y007343D02*
X010619Y007343D01*
X010619Y007285D02*
X008327Y007285D01*
X008327Y007226D02*
X010619Y007226D01*
X010619Y007168D02*
X008327Y007168D01*
X008327Y007109D02*
X010619Y007109D01*
X010619Y007051D02*
X008327Y007051D01*
X008327Y006466D02*
X008353Y006466D01*
X007207Y006321D02*
X007207Y006282D01*
X007205Y006290D01*
X007201Y006296D01*
X007195Y006300D01*
X007187Y006302D01*
X007187Y006301D02*
X006675Y006301D01*
X006972Y006290D02*
X007032Y006290D01*
X007032Y006232D02*
X006972Y006232D01*
X006972Y006173D02*
X007032Y006173D01*
X007032Y006115D02*
X006972Y006115D01*
X006972Y006056D02*
X007032Y006056D01*
X007032Y005998D02*
X006972Y005998D01*
X006972Y005939D02*
X007032Y005939D01*
X007032Y005881D02*
X006972Y005881D01*
X006972Y005822D02*
X007032Y005822D01*
X007032Y005772D02*
X006972Y005772D01*
X006972Y006949D01*
X007032Y006949D01*
X007032Y005772D01*
X007032Y006349D02*
X006972Y006349D01*
X006972Y006407D02*
X007032Y006407D01*
X007032Y006466D02*
X006972Y006466D01*
X006972Y006524D02*
X007032Y006524D01*
X007032Y006583D02*
X006972Y006583D01*
X006972Y006641D02*
X007032Y006641D01*
X007032Y006700D02*
X006972Y006700D01*
X006972Y006758D02*
X007032Y006758D01*
X007032Y006817D02*
X006972Y006817D01*
X006972Y006875D02*
X007032Y006875D01*
X007032Y006934D02*
X006972Y006934D01*
X006675Y006302D02*
X006623Y006304D01*
X006571Y006309D01*
X006520Y006319D01*
X006470Y006331D01*
X006421Y006348D01*
X006373Y006368D01*
X006326Y006391D01*
X006281Y006418D01*
X006239Y006447D01*
X006198Y006480D01*
X006160Y006515D01*
X006125Y006553D01*
X006092Y006594D01*
X006063Y006636D01*
X006036Y006681D01*
X006013Y006728D01*
X005993Y006776D01*
X005976Y006825D01*
X005964Y006875D01*
X005954Y006926D01*
X005949Y006978D01*
X005947Y007030D01*
X005949Y007017D01*
X005954Y007004D01*
X005962Y006994D01*
X005973Y006986D01*
X005985Y006981D01*
X005998Y006979D01*
X005291Y008162D02*
X005282Y008162D01*
X005291Y008221D02*
X005206Y008221D01*
X005291Y008279D02*
X003872Y008279D01*
X003847Y008221D02*
X004917Y008221D01*
X005291Y008338D02*
X003896Y008338D01*
X003921Y008396D02*
X005291Y008396D01*
X005291Y008455D02*
X003946Y008455D01*
X003971Y008513D02*
X005291Y008513D01*
X005291Y008572D02*
X003996Y008572D01*
X004020Y008630D02*
X005291Y008630D01*
X005291Y008689D02*
X004045Y008689D01*
X004082Y008747D02*
X005289Y008747D01*
X005296Y008806D02*
X004122Y008806D01*
X004162Y008864D02*
X005318Y008864D01*
X005341Y008923D02*
X004201Y008923D01*
X004241Y008981D02*
X005363Y008981D01*
X005417Y009040D02*
X004281Y009040D01*
X004321Y009098D02*
X005472Y009098D01*
X005550Y009157D02*
X004361Y009157D01*
X004400Y009215D02*
X005682Y009215D01*
X005175Y009917D02*
X012742Y009917D01*
X012771Y009859D02*
X005086Y009859D01*
X004997Y009800D02*
X012800Y009800D01*
X012829Y009742D02*
X004916Y009742D01*
X004857Y009683D02*
X012859Y009683D01*
X012888Y009625D02*
X004797Y009625D01*
X004738Y009566D02*
X012917Y009566D01*
X012946Y009508D02*
X004678Y009508D01*
X004619Y009449D02*
X012976Y009449D01*
X013005Y009391D02*
X004559Y009391D01*
X004500Y009332D02*
X013034Y009332D01*
X013063Y009274D02*
X004441Y009274D01*
X004198Y009508D02*
X000853Y009508D01*
X000860Y009566D02*
X004257Y009566D01*
X004317Y009625D02*
X000867Y009625D01*
X000874Y009683D02*
X004376Y009683D01*
X004436Y009742D02*
X000880Y009742D01*
X000887Y009800D02*
X004495Y009800D01*
X004554Y009859D02*
X000931Y009859D01*
X000888Y009805D02*
X002896Y012305D01*
X005671Y013546D01*
X008290Y013565D01*
X011912Y011577D01*
X013585Y008231D01*
X013467Y005140D01*
X010967Y001597D01*
X007876Y000357D01*
X005160Y000573D01*
X001912Y002719D01*
X000416Y005829D01*
X000888Y009805D01*
X000978Y009917D02*
X004614Y009917D01*
X004673Y009976D02*
X001025Y009976D01*
X001072Y010034D02*
X004739Y010034D01*
X004828Y010093D02*
X001119Y010093D01*
X001166Y010151D02*
X004917Y010151D01*
X005006Y010210D02*
X001213Y010210D01*
X001260Y010268D02*
X005095Y010268D01*
X005184Y010327D02*
X001307Y010327D01*
X001354Y010385D02*
X005274Y010385D01*
X005367Y010444D02*
X001401Y010444D01*
X001448Y010502D02*
X005512Y010502D01*
X005656Y010561D02*
X001495Y010561D01*
X001542Y010619D02*
X005801Y010619D01*
X005945Y010678D02*
X001589Y010678D01*
X001636Y010736D02*
X006124Y010736D01*
X006431Y010795D02*
X001683Y010795D01*
X001730Y010853D02*
X006738Y010853D01*
X007063Y010912D02*
X001777Y010912D01*
X001824Y010970D02*
X007158Y010970D01*
X007382Y010970D02*
X012215Y010970D01*
X012244Y010912D02*
X007477Y010912D01*
X007533Y010853D02*
X012274Y010853D01*
X012303Y010795D02*
X007557Y010795D01*
X007578Y010736D02*
X012332Y010736D01*
X012361Y010678D02*
X007578Y010678D01*
X007577Y010619D02*
X012391Y010619D01*
X012420Y010561D02*
X007553Y010561D01*
X007525Y010502D02*
X012449Y010502D01*
X012478Y010444D02*
X007466Y010444D01*
X007356Y010385D02*
X012508Y010385D01*
X012537Y010327D02*
X005976Y010327D01*
X005832Y010268D02*
X012566Y010268D01*
X012595Y010210D02*
X005687Y010210D01*
X005543Y010151D02*
X012625Y010151D01*
X012654Y010093D02*
X005442Y010093D01*
X005353Y010034D02*
X012683Y010034D01*
X012712Y009976D02*
X005264Y009976D01*
X006121Y010385D02*
X007184Y010385D01*
X007074Y010444D02*
X006390Y010444D01*
X006696Y010502D02*
X007015Y010502D01*
X009393Y012959D02*
X004359Y012959D01*
X004229Y012901D02*
X009500Y012901D01*
X009607Y012842D02*
X004098Y012842D01*
X003967Y012784D02*
X009713Y012784D01*
X009820Y012725D02*
X003836Y012725D01*
X003705Y012667D02*
X009926Y012667D01*
X010033Y012608D02*
X003574Y012608D01*
X003443Y012550D02*
X010139Y012550D01*
X010246Y012491D02*
X003312Y012491D01*
X003181Y012433D02*
X010353Y012433D01*
X010459Y012374D02*
X003050Y012374D01*
X002919Y012316D02*
X010566Y012316D01*
X010672Y012257D02*
X002857Y012257D01*
X002810Y012199D02*
X010779Y012199D01*
X010886Y012140D02*
X002763Y012140D01*
X002716Y012082D02*
X010992Y012082D01*
X011099Y012023D02*
X002669Y012023D01*
X002622Y011965D02*
X011205Y011965D01*
X011312Y011906D02*
X002575Y011906D01*
X002528Y011848D02*
X011418Y011848D01*
X011525Y011789D02*
X002481Y011789D01*
X002434Y011731D02*
X011632Y011731D01*
X011738Y011672D02*
X002387Y011672D01*
X002340Y011614D02*
X011845Y011614D01*
X011923Y011555D02*
X002293Y011555D01*
X002246Y011497D02*
X011952Y011497D01*
X011981Y011438D02*
X002200Y011438D01*
X002153Y011380D02*
X012010Y011380D01*
X012040Y011321D02*
X002106Y011321D01*
X002059Y011263D02*
X012069Y011263D01*
X012098Y011204D02*
X002012Y011204D01*
X001965Y011146D02*
X012127Y011146D01*
X012157Y011087D02*
X001918Y011087D01*
X001871Y011029D02*
X012186Y011029D01*
X013168Y008279D02*
X013561Y008279D01*
X013585Y008221D02*
X013227Y008221D01*
X013228Y008162D02*
X013582Y008162D01*
X013580Y008104D02*
X013228Y008104D01*
X013228Y008045D02*
X013578Y008045D01*
X013576Y007987D02*
X013228Y007987D01*
X013228Y007928D02*
X013573Y007928D01*
X013571Y007870D02*
X013228Y007870D01*
X013228Y007811D02*
X013569Y007811D01*
X013567Y007753D02*
X013228Y007753D01*
X013228Y007694D02*
X013564Y007694D01*
X013562Y007636D02*
X013228Y007636D01*
X013228Y007577D02*
X013560Y007577D01*
X013558Y007519D02*
X013228Y007519D01*
X013228Y007460D02*
X013555Y007460D01*
X013553Y007402D02*
X013228Y007402D01*
X013228Y007343D02*
X013551Y007343D01*
X013549Y007285D02*
X013228Y007285D01*
X013228Y007226D02*
X013547Y007226D01*
X013544Y007168D02*
X013228Y007168D01*
X013228Y007109D02*
X013542Y007109D01*
X013540Y007051D02*
X013228Y007051D01*
X013228Y006992D02*
X013538Y006992D01*
X013535Y006934D02*
X013228Y006934D01*
X013228Y006875D02*
X013533Y006875D01*
X013531Y006817D02*
X013228Y006817D01*
X013228Y006758D02*
X013529Y006758D01*
X013526Y006700D02*
X013228Y006700D01*
X013228Y006641D02*
X013524Y006641D01*
X013522Y006583D02*
X013228Y006583D01*
X013228Y006524D02*
X013520Y006524D01*
X013517Y006466D02*
X013228Y006466D01*
X013228Y006407D02*
X013515Y006407D01*
X013513Y006349D02*
X013228Y006349D01*
X013228Y006290D02*
X013511Y006290D01*
X013508Y006232D02*
X013228Y006232D01*
X013228Y006173D02*
X013506Y006173D01*
X013504Y006115D02*
X013228Y006115D01*
X013228Y006056D02*
X013502Y006056D01*
X013500Y005998D02*
X013228Y005998D01*
X013228Y005939D02*
X013497Y005939D01*
X013495Y005881D02*
X013228Y005881D01*
X013228Y005822D02*
X013493Y005822D01*
X013491Y005764D02*
X013228Y005764D01*
X013195Y005705D02*
X013488Y005705D01*
X013486Y005647D02*
X011570Y005647D01*
X011557Y005588D02*
X013484Y005588D01*
X013482Y005530D02*
X011545Y005530D01*
X011533Y005471D02*
X013479Y005471D01*
X013477Y005413D02*
X011513Y005413D01*
X011486Y005354D02*
X013475Y005354D01*
X013473Y005296D02*
X011459Y005296D01*
X011432Y005237D02*
X013470Y005237D01*
X013468Y005179D02*
X011405Y005179D01*
X011378Y005120D02*
X013453Y005120D01*
X013412Y005062D02*
X011351Y005062D01*
X011324Y005003D02*
X013370Y005003D01*
X013329Y004945D02*
X011297Y004945D01*
X011270Y004886D02*
X013288Y004886D01*
X013246Y004828D02*
X011229Y004828D01*
X011264Y004873D02*
X011264Y004873D01*
X011184Y004769D02*
X013205Y004769D01*
X013164Y004711D02*
X011139Y004711D01*
X011094Y004652D02*
X013123Y004652D01*
X013081Y004594D02*
X011049Y004594D01*
X011004Y004535D02*
X013040Y004535D01*
X012999Y004477D02*
X010959Y004477D01*
X010914Y004418D02*
X012958Y004418D01*
X012916Y004360D02*
X010861Y004360D01*
X010882Y004377D02*
X010882Y004377D01*
X010882Y004377D01*
X010790Y004301D02*
X012875Y004301D01*
X012834Y004243D02*
X010719Y004243D01*
X010648Y004184D02*
X012792Y004184D01*
X012751Y004126D02*
X010577Y004126D01*
X010506Y004067D02*
X012710Y004067D01*
X012669Y004009D02*
X010435Y004009D01*
X010399Y003979D02*
X010399Y003979D01*
X009232Y004652D02*
X006866Y004652D01*
X006984Y004594D02*
X009166Y004594D01*
X009121Y004535D02*
X007043Y004535D01*
X007074Y004477D02*
X007911Y004477D01*
X007853Y004418D02*
X007098Y004418D01*
X007102Y004360D02*
X007816Y004360D01*
X007792Y004301D02*
X007102Y004301D01*
X007083Y004243D02*
X007785Y004243D01*
X007785Y004184D02*
X007059Y004184D01*
X007006Y004126D02*
X007799Y004126D01*
X007824Y004067D02*
X006919Y004067D01*
X006668Y004067D02*
X005696Y004067D01*
X005754Y004009D02*
X007871Y004009D01*
X007945Y003950D02*
X005779Y003950D01*
X005802Y003892D02*
X008146Y003892D01*
X008237Y003775D02*
X005802Y003775D01*
X005802Y003833D02*
X008418Y003833D01*
X008107Y003716D02*
X005779Y003716D01*
X005755Y003658D02*
X008027Y003658D01*
X007946Y003599D02*
X005696Y003599D01*
X005594Y003541D02*
X007866Y003541D01*
X007811Y003482D02*
X001544Y003482D01*
X001573Y003424D02*
X007769Y003424D01*
X007726Y003365D02*
X001601Y003365D01*
X001629Y003307D02*
X007684Y003307D01*
X007641Y003248D02*
X001657Y003248D01*
X001685Y003190D02*
X007609Y003190D01*
X007590Y003131D02*
X001713Y003131D01*
X001741Y003073D02*
X007571Y003073D01*
X007552Y003014D02*
X001770Y003014D01*
X001798Y002956D02*
X007533Y002956D01*
X007458Y002897D02*
X001826Y002897D01*
X001854Y002839D02*
X007399Y002839D01*
X007374Y002780D02*
X001882Y002780D01*
X001910Y002722D02*
X007352Y002722D01*
X007352Y002663D02*
X001996Y002663D01*
X002084Y002605D02*
X007352Y002605D01*
X007375Y002546D02*
X002173Y002546D01*
X002261Y002488D02*
X007400Y002488D01*
X009105Y000850D02*
X004741Y000850D01*
X004652Y000908D02*
X009251Y000908D01*
X009397Y000967D02*
X004564Y000967D01*
X004475Y001025D02*
X009543Y001025D01*
X009688Y001084D02*
X004387Y001084D01*
X004298Y001142D02*
X009834Y001142D01*
X009980Y001201D02*
X004210Y001201D01*
X004121Y001259D02*
X010126Y001259D01*
X010272Y001318D02*
X004032Y001318D01*
X003944Y001376D02*
X010417Y001376D01*
X010563Y001435D02*
X003855Y001435D01*
X003767Y001493D02*
X010709Y001493D01*
X010855Y001552D02*
X003678Y001552D01*
X003590Y001610D02*
X010976Y001610D01*
X011018Y001669D02*
X003501Y001669D01*
X003413Y001727D02*
X011059Y001727D01*
X011100Y001786D02*
X003324Y001786D01*
X003235Y001844D02*
X011141Y001844D01*
X011183Y001903D02*
X003147Y001903D01*
X003058Y001961D02*
X011224Y001961D01*
X011265Y002020D02*
X002970Y002020D01*
X002881Y002078D02*
X011307Y002078D01*
X011348Y002137D02*
X002793Y002137D01*
X002704Y002195D02*
X011389Y002195D01*
X011430Y002254D02*
X002616Y002254D01*
X002527Y002312D02*
X011472Y002312D01*
X009117Y004243D02*
X008401Y004243D01*
X008394Y004301D02*
X009093Y004301D01*
X009084Y004360D02*
X008369Y004360D01*
X008333Y004418D02*
X009084Y004418D01*
X009097Y004477D02*
X008274Y004477D01*
X008944Y004711D02*
X009232Y004711D01*
X009232Y004769D02*
X009052Y004769D01*
X009111Y004828D02*
X009232Y004828D01*
X009232Y004886D02*
X009196Y004886D01*
X006721Y004652D02*
X006391Y004652D01*
X006391Y004594D02*
X006603Y004594D01*
X006544Y004535D02*
X006336Y004535D01*
X006496Y004477D02*
X005063Y004477D01*
X004660Y003833D02*
X001376Y003833D01*
X001404Y003775D02*
X004801Y003775D01*
X005057Y003716D02*
X001432Y003716D01*
X001460Y003658D02*
X005234Y003658D01*
X005292Y003599D02*
X001488Y003599D01*
X001516Y003541D02*
X005395Y003541D01*
X004539Y003892D02*
X001347Y003892D01*
X001319Y003950D02*
X004417Y003950D01*
X004305Y004009D02*
X001291Y004009D01*
X001263Y004067D02*
X004232Y004067D01*
X004158Y004126D02*
X001235Y004126D01*
X001207Y004184D02*
X004085Y004184D01*
X004012Y004243D02*
X001179Y004243D01*
X001150Y004301D02*
X003938Y004301D01*
X003889Y004360D02*
X001122Y004360D01*
X001094Y004418D02*
X003843Y004418D01*
X003796Y004477D02*
X001066Y004477D01*
X001038Y004535D02*
X003749Y004535D01*
X003703Y004594D02*
X001010Y004594D01*
X000982Y004652D02*
X003656Y004652D01*
X003615Y004711D02*
X000953Y004711D01*
X000925Y004769D02*
X003587Y004769D01*
X003559Y004828D02*
X000897Y004828D01*
X000869Y004886D02*
X003531Y004886D01*
X003502Y004945D02*
X000841Y004945D01*
X000813Y005003D02*
X003474Y005003D01*
X003446Y005062D02*
X000785Y005062D01*
X000757Y005120D02*
X003418Y005120D01*
X003400Y005179D02*
X000728Y005179D01*
X000700Y005237D02*
X003386Y005237D01*
X003373Y005296D02*
X000672Y005296D01*
X000644Y005354D02*
X003360Y005354D01*
X003346Y005413D02*
X000616Y005413D01*
X000588Y005471D02*
X003333Y005471D01*
X003320Y005530D02*
X000560Y005530D01*
X000531Y005588D02*
X003306Y005588D01*
X003299Y005647D02*
X000503Y005647D01*
X000475Y005705D02*
X000809Y005705D01*
X000776Y005764D02*
X000447Y005764D01*
X000419Y005822D02*
X000776Y005822D01*
X000776Y005881D02*
X000422Y005881D01*
X000429Y005939D02*
X000776Y005939D01*
X000776Y005998D02*
X000436Y005998D01*
X000443Y006056D02*
X000776Y006056D01*
X000776Y006115D02*
X000450Y006115D01*
X000456Y006173D02*
X000776Y006173D01*
X000776Y006232D02*
X000463Y006232D01*
X000470Y006290D02*
X000776Y006290D01*
X000776Y006349D02*
X000477Y006349D01*
X000484Y006407D02*
X000776Y006407D01*
X000776Y006466D02*
X000491Y006466D01*
X000498Y006524D02*
X000776Y006524D01*
X000776Y006583D02*
X000505Y006583D01*
X000512Y006641D02*
X000776Y006641D01*
X000776Y006700D02*
X000519Y006700D01*
X000526Y006758D02*
X000776Y006758D01*
X000776Y006817D02*
X000533Y006817D01*
X000540Y006875D02*
X000776Y006875D01*
X000776Y006934D02*
X000547Y006934D01*
X000554Y006992D02*
X000776Y006992D01*
X000776Y007051D02*
X000561Y007051D01*
X000568Y007109D02*
X000776Y007109D01*
X000776Y007168D02*
X000575Y007168D01*
X000582Y007226D02*
X000776Y007226D01*
X000776Y007285D02*
X000589Y007285D01*
X000596Y007343D02*
X000776Y007343D01*
X000776Y007402D02*
X000602Y007402D01*
X000609Y007460D02*
X000776Y007460D01*
X000776Y007519D02*
X000616Y007519D01*
X000623Y007577D02*
X000776Y007577D01*
X000776Y007636D02*
X000630Y007636D01*
X000637Y007694D02*
X000776Y007694D01*
X000776Y007753D02*
X000644Y007753D01*
X000651Y007811D02*
X000776Y007811D01*
X000776Y007870D02*
X000658Y007870D01*
X000665Y007928D02*
X000776Y007928D01*
X000776Y007987D02*
X000672Y007987D01*
X000679Y008045D02*
X000776Y008045D01*
X000776Y008104D02*
X000686Y008104D01*
X000693Y008162D02*
X000776Y008162D01*
X000778Y008221D02*
X000700Y008221D01*
X000707Y008279D02*
X000836Y008279D01*
X000714Y008338D02*
X003530Y008338D01*
X003555Y008396D02*
X000721Y008396D01*
X000728Y008455D02*
X003580Y008455D01*
X003605Y008513D02*
X000735Y008513D01*
X000741Y008572D02*
X003630Y008572D01*
X003654Y008630D02*
X000748Y008630D01*
X000755Y008689D02*
X003679Y008689D01*
X003704Y008747D02*
X000762Y008747D01*
X000769Y008806D02*
X003729Y008806D01*
X003754Y008864D02*
X000776Y008864D01*
X000783Y008923D02*
X003794Y008923D01*
X003834Y008981D02*
X000790Y008981D01*
X000797Y009040D02*
X003873Y009040D01*
X003913Y009098D02*
X000804Y009098D01*
X000811Y009157D02*
X003953Y009157D01*
X003993Y009215D02*
X000818Y009215D01*
X000825Y009274D02*
X004033Y009274D01*
X004072Y009332D02*
X000832Y009332D01*
X000839Y009391D02*
X004112Y009391D01*
X004152Y009449D02*
X000846Y009449D01*
X003326Y008279D02*
X003506Y008279D01*
X003481Y008221D02*
X003384Y008221D01*
X003386Y008162D02*
X003456Y008162D01*
X003444Y008104D02*
X003386Y008104D01*
X003386Y008045D02*
X003432Y008045D01*
X003420Y007987D02*
X003386Y007987D01*
X003386Y007928D02*
X003408Y007928D01*
X003395Y007870D02*
X003386Y007870D01*
X003691Y007636D02*
X003741Y007636D01*
X003703Y007694D02*
X003783Y007694D01*
X003826Y007753D02*
X003715Y007753D01*
X003727Y007811D02*
X003868Y007811D01*
X003938Y007870D02*
X003740Y007870D01*
X003752Y007928D02*
X004018Y007928D01*
X004099Y007987D02*
X003764Y007987D01*
X003776Y008045D02*
X004179Y008045D01*
X004321Y008104D02*
X003797Y008104D01*
X003822Y008162D02*
X004501Y008162D01*
X003698Y007577D02*
X003679Y007577D01*
X004490Y013018D02*
X009287Y013018D01*
X009180Y013076D02*
X004621Y013076D01*
X004752Y013135D02*
X009074Y013135D01*
X008967Y013193D02*
X004883Y013193D01*
X005014Y013252D02*
X008861Y013252D01*
X008754Y013310D02*
X005145Y013310D01*
X005276Y013369D02*
X008647Y013369D01*
X008541Y013427D02*
X005407Y013427D01*
X005538Y013486D02*
X008434Y013486D01*
X008328Y013544D02*
X005669Y013544D01*
X004829Y000791D02*
X008959Y000791D01*
X008814Y000733D02*
X004918Y000733D01*
X005007Y000674D02*
X008668Y000674D01*
X008522Y000616D02*
X005095Y000616D01*
X005359Y000557D02*
X008376Y000557D01*
X008231Y000499D02*
X006092Y000499D01*
X006826Y000440D02*
X008085Y000440D01*
X007939Y000382D02*
X007560Y000382D01*
D14*
X008231Y004038D02*
X009510Y004038D01*
X009558Y004040D01*
X009607Y004046D01*
X009654Y004055D01*
X009701Y004068D01*
X009746Y004085D01*
X009791Y004105D01*
X009833Y004129D01*
X009873Y004156D01*
X009911Y004186D01*
X009947Y004219D01*
X009980Y004255D01*
X010010Y004293D01*
X010037Y004333D01*
X010061Y004375D01*
X010081Y004420D01*
X010098Y004465D01*
X010111Y004512D01*
X010120Y004559D01*
X010126Y004608D01*
X010128Y004656D01*
X010128Y005801D01*
X010126Y005827D01*
X010121Y005852D01*
X010113Y005876D01*
X010102Y005899D01*
X010087Y005921D01*
X010070Y005940D01*
X010051Y005957D01*
X010030Y005972D01*
X010006Y005983D01*
X009982Y005991D01*
X009957Y005996D01*
X009931Y005998D01*
X008742Y005998D01*
X008093Y004223D02*
X008093Y004175D01*
X008095Y004153D01*
X008100Y004132D01*
X008108Y004112D01*
X008119Y004094D01*
X008133Y004077D01*
X008150Y004063D01*
X008168Y004052D01*
X008188Y004044D01*
X008209Y004039D01*
X008231Y004037D01*
M02*
