G75*
G70*
%OFA0B0*%
%FSLAX24Y24*%
%IPPOS*%
%LPD*%
%AMOC8*
5,1,8,0,0,1.08239X$1,22.5*
%
%ADD10C,0.0160*%
%ADD11C,0.0020*%
%ADD12C,0.0080*%
D10*
X001877Y007227D02*
X001883Y007479D01*
X001902Y007730D01*
X001933Y007980D01*
X001976Y008228D01*
X002031Y008474D01*
X002098Y008717D01*
X002177Y008956D01*
X002268Y009191D01*
X002370Y009422D01*
X002483Y009647D01*
X002607Y009866D01*
X002742Y010079D01*
X002887Y010285D01*
X003042Y010483D01*
X003207Y010674D01*
X003380Y010857D01*
X003563Y011030D01*
X003754Y011195D01*
X003952Y011350D01*
X004158Y011495D01*
X004371Y011630D01*
X004590Y011754D01*
X004815Y011867D01*
X005046Y011969D01*
X005281Y012060D01*
X005520Y012139D01*
X005763Y012206D01*
X006009Y012261D01*
X006257Y012304D01*
X006507Y012335D01*
X006758Y012354D01*
X007010Y012360D01*
X007262Y012354D01*
X007513Y012335D01*
X007763Y012304D01*
X008011Y012261D01*
X008257Y012206D01*
X008500Y012139D01*
X008739Y012060D01*
X008974Y011969D01*
X009205Y011867D01*
X009430Y011754D01*
X009649Y011630D01*
X009862Y011495D01*
X010068Y011350D01*
X010266Y011195D01*
X010457Y011030D01*
X010640Y010857D01*
X010813Y010674D01*
X010978Y010483D01*
X011133Y010285D01*
X011278Y010079D01*
X011413Y009866D01*
X011537Y009647D01*
X011650Y009422D01*
X011752Y009191D01*
X011843Y008956D01*
X011922Y008717D01*
X011989Y008474D01*
X012044Y008228D01*
X012087Y007980D01*
X012118Y007730D01*
X012137Y007479D01*
X012143Y007227D01*
X012137Y006975D01*
X012118Y006724D01*
X012087Y006474D01*
X012044Y006226D01*
X011989Y005980D01*
X011922Y005737D01*
X011843Y005498D01*
X011752Y005263D01*
X011650Y005032D01*
X011537Y004807D01*
X011413Y004588D01*
X011278Y004375D01*
X011133Y004169D01*
X010978Y003971D01*
X010813Y003780D01*
X010640Y003597D01*
X010457Y003424D01*
X010266Y003259D01*
X010068Y003104D01*
X009862Y002959D01*
X009649Y002824D01*
X009430Y002700D01*
X009205Y002587D01*
X008974Y002485D01*
X008739Y002394D01*
X008500Y002315D01*
X008257Y002248D01*
X008011Y002193D01*
X007763Y002150D01*
X007513Y002119D01*
X007262Y002100D01*
X007010Y002094D01*
X006758Y002100D01*
X006507Y002119D01*
X006257Y002150D01*
X006009Y002193D01*
X005763Y002248D01*
X005520Y002315D01*
X005281Y002394D01*
X005046Y002485D01*
X004815Y002587D01*
X004590Y002700D01*
X004371Y002824D01*
X004158Y002959D01*
X003952Y003104D01*
X003754Y003259D01*
X003563Y003424D01*
X003380Y003597D01*
X003207Y003780D01*
X003042Y003971D01*
X002887Y004169D01*
X002742Y004375D01*
X002607Y004588D01*
X002483Y004807D01*
X002370Y005032D01*
X002268Y005263D01*
X002177Y005498D01*
X002098Y005737D01*
X002031Y005980D01*
X001976Y006226D01*
X001933Y006474D01*
X001902Y006724D01*
X001883Y006975D01*
X001877Y007227D01*
D11*
X006370Y011508D02*
X006517Y011508D01*
X006444Y011508D02*
X006444Y011728D01*
X006370Y011655D01*
X006347Y011863D02*
X006384Y011899D01*
X006384Y011973D01*
X006347Y012009D01*
X006274Y012009D01*
X006237Y011973D01*
X006237Y011899D01*
X006274Y011863D01*
X006347Y011863D01*
X006458Y011863D02*
X006532Y011863D01*
X006495Y011863D02*
X006495Y012009D01*
X006458Y012009D01*
X006495Y012083D02*
X006495Y012119D01*
X006605Y012009D02*
X006716Y012009D01*
X006752Y011973D01*
X006752Y011863D01*
X006826Y011863D02*
X006973Y011863D01*
X007047Y011899D02*
X007084Y011863D01*
X007158Y011863D01*
X007194Y011899D01*
X007194Y011973D01*
X007158Y012009D01*
X007084Y012009D01*
X007047Y011973D01*
X007047Y011899D01*
X006826Y011863D02*
X006826Y012083D01*
X006605Y012009D02*
X006605Y011863D01*
X006628Y011728D02*
X006591Y011692D01*
X006628Y011728D02*
X006702Y011728D01*
X006738Y011692D01*
X006738Y011655D01*
X006591Y011508D01*
X006738Y011508D01*
X006812Y011508D02*
X006959Y011728D01*
X007033Y011655D02*
X007107Y011728D01*
X007107Y011508D01*
X007180Y011508D02*
X007033Y011508D01*
X007022Y011394D02*
X006985Y011357D01*
X006985Y011320D01*
X007022Y011284D01*
X007095Y011284D01*
X007132Y011247D01*
X007132Y011210D01*
X007095Y011174D01*
X007022Y011174D01*
X006985Y011210D01*
X006911Y011174D02*
X006911Y011394D01*
X006911Y011284D02*
X006764Y011284D01*
X006764Y011174D02*
X006764Y011394D01*
X007022Y011394D02*
X007095Y011394D01*
X007132Y011357D01*
X007291Y011508D02*
X007365Y011508D01*
X007401Y011545D01*
X007401Y011692D01*
X007365Y011728D01*
X007291Y011728D01*
X007254Y011692D01*
X007254Y011655D01*
X007291Y011618D01*
X007401Y011618D01*
X007475Y011508D02*
X007622Y011728D01*
X007599Y011789D02*
X007636Y011826D01*
X007636Y012009D01*
X007526Y012009D01*
X007489Y011973D01*
X007489Y011899D01*
X007526Y011863D01*
X007636Y011863D01*
X007599Y011789D02*
X007563Y011789D01*
X007415Y011826D02*
X007415Y012009D01*
X007305Y012009D01*
X007268Y011973D01*
X007268Y011899D01*
X007305Y011863D01*
X007415Y011863D01*
X007415Y011826D02*
X007379Y011789D01*
X007342Y011789D01*
X007254Y011545D02*
X007291Y011508D01*
X007696Y011508D02*
X007843Y011508D01*
X007770Y011508D02*
X007770Y011728D01*
X007696Y011655D01*
X007747Y011863D02*
X007710Y011899D01*
X007710Y011973D01*
X007747Y012009D01*
X007820Y012009D01*
X007857Y011973D01*
X007857Y011936D01*
X007710Y011936D01*
X007747Y011863D02*
X007820Y011863D01*
X007931Y011863D02*
X007931Y012009D01*
X007931Y011936D02*
X008005Y012009D01*
X008041Y012009D01*
X008027Y011728D02*
X007954Y011728D01*
X007917Y011692D01*
X007991Y011618D02*
X008027Y011618D01*
X008064Y011582D01*
X008064Y011545D01*
X008027Y011508D01*
X007954Y011508D01*
X007917Y011545D01*
X008027Y011618D02*
X008064Y011655D01*
X008064Y011692D01*
X008027Y011728D01*
X008410Y011863D02*
X008337Y012009D01*
X008483Y012009D02*
X008410Y011863D01*
X008558Y011863D02*
X008704Y011863D01*
X008631Y011863D02*
X008631Y012083D01*
X008558Y012009D01*
X006163Y012046D02*
X006126Y012083D01*
X006053Y012083D01*
X006016Y012046D01*
X006016Y011899D01*
X006053Y011863D01*
X006126Y011863D01*
X006163Y011899D01*
D12*
X002868Y005640D02*
X002868Y005207D01*
X005546Y002817D01*
X008459Y002817D01*
X011136Y005207D01*
X011136Y005640D01*
X011136Y008317D02*
X011136Y009459D01*
X011135Y009526D01*
X011130Y009594D01*
X011121Y009661D01*
X011109Y009728D01*
X011092Y009793D01*
X011072Y009858D01*
X011048Y009921D01*
X011020Y009983D01*
X010989Y010043D01*
X010954Y010102D01*
X010916Y010158D01*
X010875Y010212D01*
X010831Y010263D01*
X010784Y010312D01*
X010734Y010358D01*
X010682Y010401D01*
X010627Y010440D01*
X010570Y010477D01*
X010511Y010510D01*
X010450Y010540D01*
X010387Y010566D01*
X010323Y010589D01*
X010258Y010607D01*
X010192Y010622D01*
X010125Y010633D01*
X010058Y010641D01*
X009990Y010644D01*
X009922Y010643D01*
X009855Y010639D01*
X009788Y010630D01*
X009721Y010618D01*
X009655Y010601D01*
X009590Y010581D01*
X009527Y010558D01*
X009465Y010530D01*
X009405Y010499D01*
X009346Y010465D01*
X009290Y010427D01*
X009236Y010386D01*
X009184Y010342D01*
X009136Y010295D01*
X009089Y010246D01*
X008941Y010148D01*
X008788Y010057D01*
X008631Y009973D01*
X008470Y009897D01*
X008306Y009830D01*
X008138Y009770D01*
X007968Y009719D01*
X007796Y009676D01*
X007621Y009641D01*
X007445Y009615D01*
X007268Y009598D01*
X007091Y009589D01*
X006913Y009589D01*
X006736Y009598D01*
X006559Y009615D01*
X006383Y009641D01*
X006208Y009676D01*
X006036Y009719D01*
X005866Y009770D01*
X005698Y009830D01*
X005534Y009897D01*
X005373Y009973D01*
X005216Y010057D01*
X005063Y010148D01*
X004915Y010246D01*
X004916Y010246D02*
X004869Y010294D01*
X004820Y010340D01*
X004768Y010382D01*
X004713Y010422D01*
X004657Y010458D01*
X004599Y010491D01*
X004538Y010521D01*
X004477Y010547D01*
X004413Y010570D01*
X004349Y010589D01*
X004284Y010604D01*
X004218Y010616D01*
X004151Y010623D01*
X004084Y010627D01*
X004017Y010628D01*
X003950Y010624D01*
X003883Y010617D01*
X003817Y010605D01*
X003752Y010590D01*
X003687Y010572D01*
X003624Y010549D01*
X003562Y010524D01*
X003501Y010494D01*
X003443Y010461D01*
X003386Y010425D01*
X003332Y010386D01*
X003280Y010344D01*
X003230Y010299D01*
X003183Y010251D01*
X003139Y010201D01*
X003097Y010148D01*
X003059Y010093D01*
X003024Y010035D01*
X002992Y009976D01*
X002964Y009915D01*
X002939Y009853D01*
X002918Y009789D01*
X002901Y009724D01*
X002887Y009659D01*
X002877Y009592D01*
X002870Y009526D01*
X002868Y009459D01*
X002868Y008317D01*
M02*
