G75*
G70*
%OFA0B0*%
%FSLAX24Y24*%
%IPPOS*%
%LPD*%
%AMOC8*
5,1,8,0,0,1.08239X$1,22.5*
%
%ADD10C,0.0080*%
%ADD11R,0.0197X0.0866*%
%ADD12R,0.1181X0.0394*%
%ADD13R,0.0110X0.0276*%
%ADD14R,0.0276X0.0110*%
%ADD15R,0.0138X0.0433*%
%ADD16R,0.0138X0.0591*%
%ADD17R,0.0354X0.0276*%
%ADD18R,0.0276X0.0354*%
%ADD19R,0.0315X0.0315*%
%ADD20R,0.0240X0.0870*%
%ADD21C,0.0100*%
%ADD22C,0.0060*%
%ADD23C,0.0396*%
D10*
X004215Y003433D02*
X004220Y003456D01*
X004222Y003479D01*
X004220Y003503D01*
X004215Y003526D01*
X004207Y003548D01*
X004196Y003568D01*
X004182Y003587D01*
X004165Y003604D01*
X004146Y003618D01*
X004125Y003629D01*
X004103Y003637D01*
X004080Y003642D01*
X004057Y003644D01*
X003999Y003647D01*
X003940Y003653D01*
X003883Y003663D01*
X003826Y003677D01*
X003770Y003695D01*
X003715Y003716D01*
X003662Y003741D01*
X003611Y003769D01*
X003561Y003801D01*
X003514Y003835D01*
X003469Y003873D01*
X003427Y003913D01*
X003387Y003957D01*
X003350Y004002D01*
X003317Y004050D01*
X003286Y004101D01*
X003259Y004153D01*
X003235Y004206D01*
X003215Y004261D01*
X003199Y004318D01*
X003186Y004375D01*
X003177Y004433D01*
X003172Y004491D01*
X003171Y004550D01*
X003171Y004549D02*
X003349Y004648D01*
X003388Y004648D01*
X003382Y004635D01*
X003374Y004624D01*
X003363Y004615D01*
X003351Y004609D01*
X003337Y004606D01*
X003323Y004605D01*
X003310Y004608D01*
X002652Y005266D02*
X002652Y005451D01*
X002652Y005266D02*
X002658Y005215D01*
X002668Y005166D01*
X002682Y005117D01*
X002699Y005069D01*
X002720Y005023D01*
X002744Y004978D01*
X002772Y004935D01*
X002803Y004895D01*
X002836Y004856D01*
X002873Y004821D01*
X002912Y004788D01*
X002953Y004759D01*
X002996Y004732D01*
X003041Y004709D01*
X003088Y004689D01*
X003136Y004673D01*
X003186Y004660D01*
X003236Y004651D01*
X003286Y004646D01*
X003337Y004645D01*
X003388Y004648D01*
X005520Y006182D02*
X005520Y006662D01*
X005521Y006667D01*
X005524Y006672D01*
X005529Y006675D01*
X005534Y006676D01*
X005534Y006675D02*
X005534Y006774D01*
X005533Y006774D02*
X005531Y006796D01*
X005527Y006818D01*
X005519Y006839D01*
X005508Y006859D01*
X005495Y006877D01*
X005479Y006893D01*
X005461Y006906D01*
X005441Y006917D01*
X005420Y006925D01*
X005398Y006929D01*
X005376Y006931D01*
X000140Y006990D02*
X000148Y007326D01*
X000173Y007661D01*
X000214Y007995D01*
X000272Y008326D01*
X000345Y008654D01*
X000435Y008978D01*
X000540Y009298D01*
X000661Y009611D01*
X000798Y009919D01*
X000949Y010219D01*
X001115Y010512D01*
X001294Y010796D01*
X001488Y011071D01*
X001695Y011336D01*
X001914Y011590D01*
X002146Y011834D01*
X002390Y012066D01*
X002644Y012285D01*
X002909Y012492D01*
X003184Y012686D01*
X003468Y012865D01*
X003761Y013031D01*
X004061Y013182D01*
X004369Y013319D01*
X004682Y013440D01*
X005002Y013545D01*
X005326Y013635D01*
X005654Y013708D01*
X005985Y013766D01*
X006319Y013807D01*
X006654Y013832D01*
X006990Y013840D01*
X007326Y013832D01*
X007661Y013807D01*
X007995Y013766D01*
X008326Y013708D01*
X008654Y013635D01*
X008978Y013545D01*
X009298Y013440D01*
X009611Y013319D01*
X009919Y013182D01*
X010219Y013031D01*
X010512Y012865D01*
X010796Y012686D01*
X011071Y012492D01*
X011336Y012285D01*
X011590Y012066D01*
X011834Y011834D01*
X012066Y011590D01*
X012285Y011336D01*
X012492Y011071D01*
X012686Y010796D01*
X012865Y010512D01*
X013031Y010219D01*
X013182Y009919D01*
X013319Y009611D01*
X013440Y009298D01*
X013545Y008978D01*
X013635Y008654D01*
X013708Y008326D01*
X013766Y007995D01*
X013807Y007661D01*
X013832Y007326D01*
X013840Y006990D01*
X013832Y006654D01*
X013807Y006319D01*
X013766Y005985D01*
X013708Y005654D01*
X013635Y005326D01*
X013545Y005002D01*
X013440Y004682D01*
X013319Y004369D01*
X013182Y004061D01*
X013031Y003761D01*
X012865Y003468D01*
X012686Y003184D01*
X012492Y002909D01*
X012285Y002644D01*
X012066Y002390D01*
X011834Y002146D01*
X011590Y001914D01*
X011336Y001695D01*
X011071Y001488D01*
X010796Y001294D01*
X010512Y001115D01*
X010219Y000949D01*
X009919Y000798D01*
X009611Y000661D01*
X009298Y000540D01*
X008978Y000435D01*
X008654Y000345D01*
X008326Y000272D01*
X007995Y000214D01*
X007661Y000173D01*
X007326Y000148D01*
X006990Y000140D01*
X006654Y000148D01*
X006319Y000173D01*
X005985Y000214D01*
X005654Y000272D01*
X005326Y000345D01*
X005002Y000435D01*
X004682Y000540D01*
X004369Y000661D01*
X004061Y000798D01*
X003761Y000949D01*
X003468Y001115D01*
X003184Y001294D01*
X002909Y001488D01*
X002644Y001695D01*
X002390Y001914D01*
X002146Y002146D01*
X001914Y002390D01*
X001695Y002644D01*
X001488Y002909D01*
X001294Y003184D01*
X001115Y003468D01*
X000949Y003761D01*
X000798Y004061D01*
X000661Y004369D01*
X000540Y004682D01*
X000435Y005002D01*
X000345Y005326D01*
X000272Y005654D01*
X000214Y005985D01*
X000173Y006319D01*
X000148Y006654D01*
X000140Y006990D01*
X006479Y010022D02*
X006479Y010471D01*
X006479Y010750D01*
X006478Y010750D02*
X006480Y010792D01*
X006486Y010833D01*
X006495Y010874D01*
X006509Y010914D01*
X006525Y010952D01*
X006546Y010988D01*
X006569Y011023D01*
X006596Y011055D01*
X006626Y011085D01*
X006658Y011112D01*
X006693Y011135D01*
X006729Y011156D01*
X006767Y011172D01*
X006807Y011186D01*
X006848Y011195D01*
X006889Y011201D01*
X006931Y011203D01*
X007057Y011203D01*
X008522Y011203D01*
X008559Y011201D01*
X008595Y011196D01*
X008631Y011187D01*
X008665Y011175D01*
X008698Y011159D01*
X008730Y011140D01*
X008759Y011118D01*
X008786Y011093D01*
X008811Y011066D01*
X008833Y011037D01*
X008852Y011005D01*
X008868Y010972D01*
X008880Y010938D01*
X008889Y010902D01*
X008894Y010866D01*
X008896Y010829D01*
X007270Y010683D02*
X007270Y010085D01*
X007269Y010083D01*
X007268Y010082D01*
X007266Y010081D01*
X006498Y010002D02*
X006490Y010004D01*
X006484Y010008D01*
X006480Y010014D01*
X006478Y010022D01*
X007705Y005433D02*
X007705Y005154D01*
X007707Y005105D01*
X007713Y005056D01*
X007722Y005008D01*
X007736Y004961D01*
X007752Y004915D01*
X007773Y004871D01*
X007797Y004828D01*
X007824Y004787D01*
X007855Y004749D01*
X007888Y004713D01*
X007924Y004680D01*
X007962Y004649D01*
X008003Y004622D01*
X008046Y004598D01*
X008090Y004577D01*
X008136Y004561D01*
X008183Y004547D01*
X008231Y004538D01*
X008280Y004532D01*
X008329Y004530D01*
X009266Y004530D01*
X009287Y004526D01*
X009307Y004520D01*
X009326Y004510D01*
X009344Y004498D01*
X009359Y004483D01*
X009372Y004466D01*
X009381Y004447D01*
X009388Y004427D01*
X009392Y004406D01*
X009392Y004384D01*
D11*
X005520Y006182D03*
X005020Y006182D03*
X004520Y006182D03*
X004020Y006182D03*
X004024Y008665D03*
X004524Y008665D03*
X005024Y008665D03*
X005520Y008665D03*
D12*
X010290Y008778D03*
X010290Y009778D03*
X010290Y007778D03*
X010290Y006778D03*
X010290Y005778D03*
X010290Y004778D03*
D13*
X007817Y006927D03*
X007620Y006927D03*
X007423Y006927D03*
X007227Y006927D03*
X007030Y006927D03*
X007030Y008030D03*
X007227Y008030D03*
X007423Y008030D03*
X007620Y008030D03*
X007817Y008030D03*
D14*
X007975Y007675D03*
X007975Y007479D03*
X007975Y007282D03*
X006872Y007282D03*
X006872Y007479D03*
X006872Y007675D03*
D15*
X006498Y010002D03*
X007522Y010002D03*
D16*
X007266Y010081D03*
X007010Y010081D03*
X006754Y010081D03*
D17*
X006061Y004294D03*
X006061Y003782D03*
D18*
X005329Y004349D03*
X004817Y004349D03*
X004750Y004975D03*
X005262Y004975D03*
G36*
X004070Y004781D02*
X004255Y004576D01*
X003994Y004339D01*
X003809Y004544D01*
X004070Y004781D01*
G37*
G36*
X003727Y005161D02*
X003912Y004956D01*
X003651Y004719D01*
X003466Y004924D01*
X003727Y005161D01*
G37*
G36*
X003352Y004828D02*
X003534Y004620D01*
X003268Y004388D01*
X003086Y004596D01*
X003352Y004828D01*
G37*
G36*
X003689Y004443D02*
X003871Y004235D01*
X003605Y004003D01*
X003423Y004211D01*
X003689Y004443D01*
G37*
G36*
X004189Y003655D02*
X004425Y003514D01*
X004243Y003211D01*
X004007Y003352D01*
X004189Y003655D01*
G37*
G36*
X004628Y003392D02*
X004864Y003251D01*
X004682Y002948D01*
X004446Y003089D01*
X004628Y003392D01*
G37*
X005498Y002880D03*
X006010Y002880D03*
X006191Y009215D03*
X006703Y009215D03*
X005392Y009534D03*
X004880Y009534D03*
D19*
X008896Y010238D03*
X008896Y010829D03*
X003242Y005451D03*
X002652Y005451D03*
D20*
X006705Y005560D03*
X007205Y005560D03*
X007705Y005560D03*
X008205Y005560D03*
X008205Y003500D03*
X007705Y003500D03*
X007205Y003500D03*
X006705Y003500D03*
D21*
X006694Y003501D01*
X006685Y003505D01*
X006676Y003512D01*
X006669Y003520D01*
X006665Y003530D01*
X006664Y003541D01*
X006664Y003876D01*
X006684Y003878D01*
X006704Y003882D01*
X006723Y003890D01*
X006740Y003901D01*
X006756Y003914D01*
X006769Y003930D01*
X006780Y003947D01*
X006788Y003966D01*
X006792Y003986D01*
X006794Y004006D01*
X006794Y004349D01*
X006423Y003782D02*
X006061Y003782D01*
X006061Y002931D01*
X006059Y002918D01*
X006054Y002905D01*
X006046Y002895D01*
X006035Y002887D01*
X006023Y002882D01*
X006010Y002880D01*
X005884Y002447D02*
X005846Y002449D01*
X005809Y002454D01*
X005772Y002464D01*
X005736Y002476D01*
X005702Y002493D01*
X005670Y002512D01*
X005639Y002535D01*
X005611Y002560D01*
X005586Y002588D01*
X005563Y002619D01*
X005544Y002651D01*
X005527Y002685D01*
X005515Y002721D01*
X005505Y002758D01*
X005500Y002795D01*
X005498Y002833D01*
X005498Y002880D01*
X005496Y002912D01*
X005491Y002945D01*
X005482Y002976D01*
X005469Y003006D01*
X005454Y003034D01*
X005435Y003061D01*
X005413Y003085D01*
X005389Y003107D01*
X005362Y003126D01*
X005334Y003141D01*
X005304Y003154D01*
X005273Y003163D01*
X005240Y003168D01*
X005208Y003170D01*
X004655Y003170D01*
X004678Y003172D01*
X004701Y003177D01*
X004722Y003185D01*
X004743Y003196D01*
X004761Y003210D01*
X004777Y003226D01*
X004791Y003244D01*
X004802Y003265D01*
X004810Y003286D01*
X004815Y003309D01*
X004817Y003332D01*
X004817Y004349D01*
X004817Y004498D01*
X004818Y004498D02*
X004820Y004520D01*
X004824Y004542D01*
X004832Y004563D01*
X004843Y004583D01*
X004856Y004601D01*
X004872Y004617D01*
X004890Y004630D01*
X004910Y004641D01*
X004931Y004649D01*
X004953Y004653D01*
X004975Y004655D01*
X004975Y004656D02*
X005191Y004656D01*
X005191Y004655D02*
X005208Y004657D01*
X005224Y004662D01*
X005239Y004670D01*
X005253Y004680D01*
X005263Y004694D01*
X005271Y004709D01*
X005276Y004725D01*
X005278Y004742D01*
X005278Y004959D01*
X005277Y004965D01*
X005273Y004970D01*
X005268Y004974D01*
X005262Y004975D01*
X005293Y004977D01*
X005324Y004982D01*
X005353Y004992D01*
X005382Y005005D01*
X005409Y005021D01*
X005433Y005040D01*
X005455Y005062D01*
X005474Y005086D01*
X005490Y005113D01*
X005503Y005142D01*
X005513Y005171D01*
X005518Y005202D01*
X005520Y005233D01*
X005520Y006182D01*
X005020Y006182D02*
X005020Y006819D01*
X005019Y006819D02*
X005002Y006841D01*
X004983Y006859D01*
X004960Y006875D01*
X004936Y006887D01*
X004910Y006896D01*
X004883Y006901D01*
X004856Y006902D01*
X004829Y006899D01*
X004803Y006893D01*
X004777Y006882D01*
X004754Y006868D01*
X004520Y006182D02*
X004520Y005760D01*
X004274Y005451D02*
X003242Y005451D01*
X002652Y005451D02*
X002652Y007573D01*
X002654Y007636D01*
X002659Y007700D01*
X002669Y007763D01*
X002681Y007825D01*
X002698Y007886D01*
X002718Y007946D01*
X002741Y008006D01*
X002768Y008063D01*
X002798Y008119D01*
X002832Y008173D01*
X002868Y008225D01*
X002907Y008275D01*
X002950Y008322D01*
X002995Y008367D01*
X003042Y008410D01*
X003092Y008449D01*
X003144Y008485D01*
X003198Y008519D01*
X003254Y008549D01*
X003311Y008576D01*
X003371Y008599D01*
X003431Y008619D01*
X003492Y008636D01*
X003554Y008648D01*
X003617Y008658D01*
X003681Y008663D01*
X003744Y008665D01*
X004024Y008665D01*
X004023Y008665D01*
X004022Y008666D01*
X004022Y008667D01*
X004022Y008943D01*
X004022Y009333D01*
X004524Y009177D02*
X004524Y008665D01*
X004524Y008268D01*
X004523Y008268D02*
X004498Y008237D01*
X004476Y008203D01*
X004456Y008167D01*
X004440Y008130D01*
X004427Y008092D01*
X004418Y008052D01*
X004412Y008012D01*
X004409Y007972D01*
X004410Y007931D01*
X004415Y007891D01*
X004423Y007851D01*
X004434Y007812D01*
X004449Y007774D01*
X004467Y007738D01*
X004488Y007703D01*
X004512Y007671D01*
X004539Y007640D01*
X004569Y007612D01*
X005062Y007947D02*
X005069Y007962D01*
X005074Y007979D01*
X005075Y007997D01*
X005073Y008014D01*
X005069Y008031D01*
X005061Y008047D01*
X005051Y008061D01*
X005039Y008073D01*
X005024Y008083D01*
X005024Y008665D01*
X005520Y008665D02*
X005520Y009004D01*
X005519Y009012D01*
X005515Y009019D01*
X005509Y009025D01*
X005502Y009029D01*
X005494Y009030D01*
X006006Y009030D01*
X006032Y009032D01*
X006058Y009037D01*
X006083Y009047D01*
X006106Y009059D01*
X006127Y009075D01*
X006146Y009094D01*
X006162Y009115D01*
X006174Y009138D01*
X006184Y009163D01*
X006189Y009189D01*
X006191Y009215D01*
X006186Y009182D01*
X006185Y009148D01*
X006188Y009115D01*
X006194Y009082D01*
X006205Y009050D01*
X006218Y009019D01*
X006235Y008990D01*
X006255Y008963D01*
X006278Y008938D01*
X006304Y008917D01*
X006332Y008898D01*
X006362Y008882D01*
X006393Y008870D01*
X006426Y008862D01*
X006631Y008862D01*
X006703Y009215D02*
X007282Y009215D01*
X006778Y009534D02*
X005392Y009534D01*
X004880Y009533D02*
X004843Y009531D01*
X004806Y009525D01*
X004770Y009516D01*
X004735Y009502D01*
X004702Y009485D01*
X004671Y009465D01*
X004642Y009442D01*
X004615Y009415D01*
X004592Y009386D01*
X004572Y009355D01*
X004555Y009322D01*
X004541Y009287D01*
X004532Y009251D01*
X004526Y009214D01*
X004524Y009177D01*
X004022Y009333D02*
X004024Y009383D01*
X004029Y009433D01*
X004039Y009482D01*
X004052Y009530D01*
X004068Y009577D01*
X004088Y009623D01*
X004112Y009668D01*
X004138Y009710D01*
X004168Y009750D01*
X004201Y009788D01*
X004236Y009823D01*
X004274Y009856D01*
X004314Y009886D01*
X004356Y009912D01*
X004401Y009936D01*
X004447Y009956D01*
X004494Y009972D01*
X004542Y009985D01*
X004591Y009995D01*
X004641Y010000D01*
X004691Y010002D01*
X006498Y010002D01*
X006494Y010003D01*
X006491Y010006D01*
X006490Y010010D01*
X006778Y009534D02*
X006806Y009536D01*
X006834Y009541D01*
X006860Y009549D01*
X006886Y009561D01*
X006910Y009575D01*
X006932Y009592D01*
X006952Y009612D01*
X006969Y009634D01*
X006983Y009658D01*
X006995Y009684D01*
X007003Y009710D01*
X007008Y009738D01*
X007010Y009766D01*
X007010Y010081D01*
X007282Y009215D02*
X007330Y009217D01*
X007377Y009222D01*
X007424Y009231D01*
X007470Y009243D01*
X007515Y009259D01*
X007559Y009278D01*
X007601Y009300D01*
X007641Y009326D01*
X007680Y009354D01*
X007716Y009385D01*
X007750Y009419D01*
X007781Y009455D01*
X007809Y009494D01*
X007835Y009534D01*
X007857Y009576D01*
X007876Y009620D01*
X007892Y009665D01*
X007904Y009711D01*
X007913Y009758D01*
X007918Y009805D01*
X007920Y009853D01*
X007919Y009853D02*
X007921Y009891D01*
X007926Y009928D01*
X007936Y009965D01*
X007948Y010001D01*
X007965Y010035D01*
X007984Y010067D01*
X008007Y010098D01*
X008032Y010126D01*
X008060Y010151D01*
X008091Y010174D01*
X008123Y010193D01*
X008157Y010210D01*
X008193Y010222D01*
X008230Y010232D01*
X008267Y010237D01*
X008305Y010239D01*
X008305Y010238D02*
X008896Y010238D01*
X009046Y009766D02*
X010451Y009766D01*
X010450Y009766D02*
X010436Y009779D01*
X010420Y009791D01*
X010401Y009799D01*
X010382Y009804D01*
X010362Y009805D01*
X010343Y009803D01*
X010323Y009798D01*
X010306Y009789D01*
X010289Y009777D01*
X010290Y008778D02*
X009825Y008778D01*
X009392Y008778D01*
X009227Y008778D01*
X009435Y008388D02*
X009435Y008294D01*
X009301Y007778D02*
X009263Y007780D01*
X009226Y007785D01*
X009189Y007795D01*
X009153Y007807D01*
X009119Y007824D01*
X009087Y007843D01*
X009056Y007866D01*
X009028Y007891D01*
X009003Y007919D01*
X008980Y007950D01*
X008961Y007982D01*
X008944Y008016D01*
X008932Y008052D01*
X008922Y008089D01*
X008917Y008126D01*
X008915Y008164D01*
X007424Y008144D02*
X007426Y008224D01*
X007432Y008303D01*
X007442Y008382D01*
X007455Y008460D01*
X007473Y008538D01*
X007494Y008615D01*
X007519Y008690D01*
X007547Y008765D01*
X007580Y008837D01*
X007616Y008909D01*
X007655Y008978D01*
X007697Y009045D01*
X007743Y009110D01*
X007792Y009173D01*
X007844Y009233D01*
X007899Y009291D01*
X007957Y009346D01*
X008017Y009398D01*
X008080Y009447D01*
X008145Y009493D01*
X008212Y009535D01*
X008281Y009574D01*
X008353Y009610D01*
X008425Y009643D01*
X008500Y009671D01*
X008575Y009696D01*
X008652Y009717D01*
X008730Y009735D01*
X008808Y009748D01*
X008887Y009758D01*
X008966Y009764D01*
X009046Y009766D01*
X008014Y008486D02*
X007876Y008486D01*
X007876Y008487D02*
X007845Y008485D01*
X007815Y008480D01*
X007785Y008470D01*
X007757Y008458D01*
X007731Y008442D01*
X007706Y008423D01*
X007684Y008401D01*
X007665Y008376D01*
X007649Y008350D01*
X007637Y008322D01*
X007627Y008292D01*
X007622Y008262D01*
X007620Y008231D01*
X007620Y008030D01*
X007620Y007821D01*
X007621Y007821D02*
X007619Y007803D01*
X007614Y007786D01*
X007606Y007770D01*
X007594Y007757D01*
X007581Y007745D01*
X007565Y007737D01*
X007548Y007732D01*
X007530Y007730D01*
X007530Y007731D02*
X007313Y007731D01*
X007313Y007372D01*
X007227Y007286D01*
X006876Y007286D01*
X006875Y007284D01*
X006874Y007283D01*
X006872Y007282D01*
X006880Y007471D02*
X006471Y007471D01*
X006341Y007601D01*
X006341Y008171D01*
X006597Y008526D01*
X006631Y008862D02*
X006686Y008859D01*
X006741Y008852D01*
X006796Y008841D01*
X006849Y008826D01*
X006902Y008808D01*
X006953Y008787D01*
X007002Y008762D01*
X007050Y008733D01*
X007096Y008702D01*
X007139Y008667D01*
X007180Y008630D01*
X007218Y008589D01*
X007254Y008547D01*
X007286Y008502D01*
X007316Y008454D01*
X007342Y008405D01*
X007364Y008355D01*
X007383Y008303D01*
X007399Y008249D01*
X007411Y008195D01*
X007419Y008140D01*
X007423Y008085D01*
X007424Y008029D01*
X007423Y008030D02*
X007423Y008144D01*
X007227Y008030D02*
X007227Y007817D01*
X007226Y007817D02*
X007228Y007800D01*
X007233Y007784D01*
X007241Y007769D01*
X007251Y007755D01*
X007265Y007745D01*
X007280Y007737D01*
X007296Y007732D01*
X007313Y007730D01*
X007227Y008030D02*
X007030Y008030D01*
X007030Y008101D01*
X007026Y008034D02*
X007028Y008033D01*
X007029Y008032D01*
X007030Y008030D01*
X006872Y007675D02*
X006872Y007479D01*
X006880Y007471D01*
X006876Y007472D01*
X006873Y007475D01*
X006872Y007479D01*
X006943Y006927D02*
X007030Y006927D01*
X006943Y006927D02*
X006915Y006925D01*
X006887Y006920D01*
X006859Y006912D01*
X006833Y006900D01*
X006809Y006885D01*
X006787Y006868D01*
X006766Y006847D01*
X006749Y006825D01*
X006734Y006801D01*
X006722Y006775D01*
X006714Y006747D01*
X006709Y006719D01*
X006707Y006691D01*
X006707Y005562D01*
X006707Y005561D01*
X006706Y005560D01*
X006705Y005560D01*
X006142Y005560D01*
X006093Y005562D01*
X006045Y005568D01*
X005997Y005577D01*
X005950Y005590D01*
X005904Y005607D01*
X005860Y005628D01*
X005817Y005652D01*
X005776Y005679D01*
X005738Y005709D01*
X005702Y005742D01*
X005669Y005778D01*
X005639Y005816D01*
X005612Y005857D01*
X005588Y005900D01*
X005567Y005944D01*
X005550Y005990D01*
X005537Y006037D01*
X005528Y006085D01*
X005522Y006133D01*
X005520Y006182D01*
X005018Y005436D02*
X004979Y005430D01*
X004941Y005427D01*
X004902Y005428D01*
X004863Y005433D01*
X004825Y005441D01*
X004788Y005452D01*
X004752Y005467D01*
X004718Y005485D01*
X004686Y005506D01*
X004655Y005530D01*
X004627Y005557D01*
X004602Y005586D01*
X004579Y005618D01*
X004559Y005651D01*
X004543Y005686D01*
X004530Y005723D01*
X004520Y005760D01*
X004020Y006182D02*
X004020Y006862D01*
X004020Y006949D01*
X004022Y006951D01*
X005061Y007947D02*
X005063Y007964D01*
X005068Y007980D01*
X005076Y007995D01*
X005086Y008009D01*
X005100Y008019D01*
X005115Y008027D01*
X005131Y008032D01*
X005148Y008034D01*
X005841Y008034D01*
X005866Y008036D01*
X005890Y008041D01*
X005913Y008050D01*
X005935Y008061D01*
X005954Y008076D01*
X005972Y008094D01*
X005987Y008113D01*
X005998Y008135D01*
X006007Y008158D01*
X006012Y008182D01*
X006014Y008207D01*
X006014Y008699D01*
X007975Y007675D02*
X008124Y007675D01*
X007975Y007479D02*
X007976Y007475D01*
X007979Y007472D01*
X007983Y007471D01*
X007975Y007479D02*
X008561Y007479D01*
X008412Y007282D02*
X008152Y007282D01*
X007975Y007282D01*
X007817Y006927D02*
X007817Y006754D01*
X007620Y006731D02*
X007620Y006927D01*
X007817Y006754D02*
X007819Y006723D01*
X007824Y006693D01*
X007834Y006663D01*
X007846Y006635D01*
X007862Y006609D01*
X007881Y006584D01*
X007903Y006562D01*
X007928Y006543D01*
X007954Y006527D01*
X007982Y006515D01*
X008012Y006505D01*
X008042Y006500D01*
X008073Y006498D01*
X008250Y006498D01*
X008412Y007282D02*
X008465Y007280D01*
X008517Y007275D01*
X008570Y007266D01*
X008621Y007253D01*
X008671Y007237D01*
X008721Y007218D01*
X008768Y007195D01*
X008814Y007169D01*
X008859Y007140D01*
X008901Y007108D01*
X008940Y007073D01*
X008978Y007035D01*
X009012Y006995D01*
X009044Y006953D01*
X009073Y006909D01*
X009099Y006863D01*
X009121Y006815D01*
X009141Y006765D01*
X009156Y006715D01*
X011730Y006531D02*
X011726Y006381D01*
X011716Y006231D01*
X011698Y006081D01*
X011673Y005933D01*
X011641Y005786D01*
X011602Y005640D01*
X011556Y005497D01*
X011504Y005356D01*
X011444Y005218D01*
X011379Y005083D01*
X011307Y004951D01*
X011228Y004822D01*
X011144Y004697D01*
X011054Y004577D01*
X010958Y004461D01*
X010857Y004350D01*
X010750Y004243D01*
X010639Y004142D01*
X010523Y004046D01*
X010403Y003956D01*
X010278Y003872D01*
X010150Y003793D01*
X010017Y003721D01*
X009882Y003656D01*
X009744Y003596D01*
X009603Y003544D01*
X009460Y003498D01*
X009314Y003459D01*
X009167Y003427D01*
X009019Y003402D01*
X008869Y003384D01*
X008719Y003374D01*
X008569Y003370D01*
X008205Y003500D01*
X008186Y003502D01*
X008167Y003507D01*
X008149Y003515D01*
X008133Y003526D01*
X008119Y003540D01*
X008108Y003556D01*
X008100Y003574D01*
X008095Y003593D01*
X008093Y003612D01*
X008093Y004223D01*
X007705Y003500D02*
X007205Y003500D01*
X007213Y003498D01*
X007221Y003494D01*
X007225Y003486D01*
X007227Y003478D01*
X007227Y003140D01*
X007660Y003454D02*
X007660Y002664D01*
X007660Y003454D02*
X007662Y003466D01*
X007666Y003476D01*
X007673Y003486D01*
X007683Y003493D01*
X007693Y003497D01*
X007705Y003499D01*
X007227Y003140D02*
X007225Y003088D01*
X007219Y003037D01*
X007210Y002986D01*
X007196Y002936D01*
X007179Y002887D01*
X007158Y002839D01*
X007134Y002794D01*
X007107Y002750D01*
X007076Y002708D01*
X007042Y002669D01*
X007005Y002632D01*
X006966Y002598D01*
X006924Y002567D01*
X006881Y002540D01*
X006835Y002516D01*
X006787Y002495D01*
X006738Y002478D01*
X006688Y002464D01*
X006637Y002455D01*
X006586Y002449D01*
X006534Y002447D01*
X005884Y002447D01*
X006705Y003500D02*
X006703Y003532D01*
X006698Y003563D01*
X006689Y003593D01*
X006677Y003622D01*
X006662Y003650D01*
X006643Y003676D01*
X006622Y003699D01*
X006599Y003720D01*
X006573Y003739D01*
X006545Y003754D01*
X006516Y003766D01*
X006486Y003775D01*
X006455Y003780D01*
X006423Y003782D01*
X006061Y004294D02*
X005384Y004294D01*
X005372Y004295D01*
X005360Y004299D01*
X005350Y004306D01*
X005341Y004315D01*
X005334Y004325D01*
X005330Y004337D01*
X005329Y004349D01*
X005329Y004348D02*
X005352Y004346D01*
X005375Y004341D01*
X005398Y004333D01*
X005418Y004322D01*
X005437Y004308D01*
X005454Y004291D01*
X005468Y004272D01*
X005479Y004252D01*
X005487Y004229D01*
X005492Y004206D01*
X005494Y004183D01*
X005494Y003833D01*
X004750Y004975D02*
X004748Y005016D01*
X004743Y005058D01*
X004734Y005098D01*
X004721Y005138D01*
X004705Y005176D01*
X004686Y005213D01*
X004664Y005248D01*
X004639Y005281D01*
X004611Y005312D01*
X004580Y005340D01*
X004547Y005365D01*
X004512Y005387D01*
X004475Y005406D01*
X004437Y005422D01*
X004397Y005435D01*
X004357Y005444D01*
X004315Y005449D01*
X004274Y005451D01*
X007705Y005433D02*
X007705Y005560D01*
X008205Y005560D02*
X008205Y005868D01*
X008644Y005868D01*
X008205Y005560D02*
X008207Y005504D01*
X008213Y005449D01*
X008223Y005394D01*
X008237Y005340D01*
X008254Y005287D01*
X008276Y005235D01*
X008301Y005185D01*
X008329Y005137D01*
X008361Y005091D01*
X008396Y005048D01*
X008434Y005007D01*
X008475Y004969D01*
X008518Y004934D01*
X008564Y004902D01*
X008612Y004874D01*
X008662Y004849D01*
X008714Y004827D01*
X008767Y004810D01*
X008821Y004796D01*
X008876Y004786D01*
X008931Y004780D01*
X008987Y004778D01*
X009132Y004778D01*
X010290Y004778D01*
X009947Y005262D02*
X009782Y005262D01*
X009947Y005262D02*
X009986Y005271D01*
X010024Y005285D01*
X010061Y005302D01*
X010096Y005322D01*
X010129Y005345D01*
X010160Y005372D01*
X010188Y005401D01*
X010213Y005432D01*
X010236Y005466D01*
X010255Y005501D01*
X010271Y005539D01*
X010283Y005577D01*
X010292Y005617D01*
X010297Y005657D01*
X010298Y005697D01*
X010296Y005738D01*
X010289Y005778D01*
X010290Y005778D02*
X010301Y005797D01*
X010302Y005797D02*
X010257Y005786D01*
X010212Y005779D01*
X010166Y005775D01*
X010120Y005776D01*
X010074Y005779D01*
X010029Y005786D01*
X009984Y005797D01*
X009940Y005812D01*
X009898Y005829D01*
X009857Y005850D01*
X009818Y005874D01*
X009781Y005901D01*
X009746Y005931D01*
X009714Y005964D01*
X009684Y005999D01*
X009657Y006036D01*
X009633Y006075D01*
X009612Y006116D01*
X009595Y006159D01*
X009581Y006202D01*
X010290Y006778D02*
X010561Y006778D01*
X011484Y006778D01*
X011514Y006776D01*
X011543Y006771D01*
X011572Y006762D01*
X011599Y006750D01*
X011624Y006734D01*
X011648Y006716D01*
X011669Y006695D01*
X011687Y006671D01*
X011703Y006646D01*
X011715Y006619D01*
X011724Y006590D01*
X011729Y006561D01*
X011731Y006531D01*
X010290Y007778D02*
X009301Y007778D01*
X008440Y007990D02*
X008442Y008044D01*
X008447Y008097D01*
X008456Y008150D01*
X008469Y008202D01*
X008485Y008254D01*
X008505Y008304D01*
X008528Y008352D01*
X008555Y008399D01*
X008584Y008444D01*
X008617Y008487D01*
X008652Y008527D01*
X008690Y008565D01*
X008730Y008600D01*
X008773Y008633D01*
X008818Y008662D01*
X008865Y008689D01*
X008913Y008712D01*
X008963Y008732D01*
X009015Y008748D01*
X009067Y008761D01*
X009120Y008770D01*
X009173Y008775D01*
X009227Y008777D01*
X009435Y008388D02*
X009437Y008426D01*
X009442Y008464D01*
X009452Y008501D01*
X009465Y008537D01*
X009481Y008572D01*
X009501Y008605D01*
X009524Y008635D01*
X009549Y008664D01*
X009578Y008689D01*
X009608Y008712D01*
X009641Y008732D01*
X009676Y008748D01*
X009712Y008761D01*
X009749Y008771D01*
X009787Y008776D01*
X009825Y008778D01*
X008439Y007990D02*
X008437Y007957D01*
X008432Y007925D01*
X008424Y007893D01*
X008412Y007862D01*
X008397Y007832D01*
X008379Y007805D01*
X008358Y007779D01*
X008335Y007756D01*
X008309Y007735D01*
X008281Y007717D01*
X008252Y007702D01*
X008221Y007690D01*
X008189Y007682D01*
X008157Y007677D01*
X008124Y007675D01*
X008526Y006774D02*
X008524Y006743D01*
X008519Y006713D01*
X008511Y006683D01*
X008499Y006654D01*
X008484Y006627D01*
X008466Y006602D01*
X008445Y006579D01*
X008422Y006558D01*
X008397Y006540D01*
X008370Y006525D01*
X008341Y006513D01*
X008311Y006505D01*
X008281Y006500D01*
X008250Y006498D01*
X008561Y007479D02*
X008628Y007470D01*
X008693Y007456D01*
X008758Y007439D01*
X008822Y007418D01*
X008885Y007394D01*
X008946Y007366D01*
X009005Y007334D01*
X009063Y007299D01*
X009118Y007261D01*
X009171Y007220D01*
X009221Y007175D01*
X009269Y007128D01*
X009314Y007078D01*
X009356Y007026D01*
X009395Y006971D01*
X009430Y006914D01*
X009462Y006855D01*
X009491Y006794D01*
X009516Y006732D01*
X009538Y006668D01*
X009555Y006603D01*
X009569Y006538D01*
X009579Y006471D01*
X009586Y006404D01*
X009588Y006337D01*
X009586Y006270D01*
X009581Y006203D01*
X008530Y006207D02*
X008164Y006187D01*
X008644Y005869D02*
X008693Y005881D01*
X008740Y005897D01*
X008787Y005917D01*
X008831Y005940D01*
X008874Y005966D01*
X008915Y005995D01*
X008954Y006027D01*
X008990Y006062D01*
X009024Y006100D01*
X009054Y006140D01*
X009082Y006182D01*
X009106Y006226D01*
X009127Y006271D01*
X009145Y006318D01*
X009159Y006367D01*
X009170Y006416D01*
X009177Y006466D01*
X009180Y006516D01*
X009179Y006566D01*
X009175Y006616D01*
X009167Y006666D01*
X009156Y006715D01*
X008164Y006188D02*
X008119Y006190D01*
X008075Y006195D01*
X008031Y006205D01*
X007988Y006217D01*
X007946Y006234D01*
X007906Y006253D01*
X007867Y006276D01*
X007830Y006302D01*
X007796Y006332D01*
X007765Y006363D01*
X007735Y006397D01*
X007709Y006434D01*
X007686Y006473D01*
X007667Y006513D01*
X007650Y006555D01*
X007638Y006598D01*
X007628Y006642D01*
X007623Y006686D01*
X007621Y006731D01*
X009089Y005175D02*
X009089Y004821D01*
X009090Y004810D01*
X009095Y004799D01*
X009102Y004791D01*
X009111Y004784D01*
X009121Y004779D01*
X009132Y004778D01*
D22*
X011493Y002371D02*
X002469Y002371D01*
X002380Y002429D02*
X011534Y002429D01*
X011576Y002488D02*
X002292Y002488D01*
X002203Y002546D02*
X011617Y002546D01*
X011658Y002605D02*
X006205Y002605D01*
X006193Y002593D02*
X006258Y002657D01*
X006258Y003103D01*
X006221Y003139D01*
X006221Y003534D01*
X006284Y003534D01*
X006348Y003598D01*
X006348Y003622D01*
X006423Y003622D01*
X006455Y003618D01*
X006475Y003606D01*
X006475Y003019D01*
X006539Y002955D01*
X006871Y002955D01*
X006935Y003019D01*
X006935Y003896D01*
X006954Y003928D01*
X006954Y004081D01*
X006968Y004087D01*
X007055Y004174D01*
X007102Y004287D01*
X007102Y004410D01*
X007055Y004523D01*
X006968Y004610D01*
X006855Y004657D01*
X006732Y004657D01*
X006619Y004610D01*
X006532Y004523D01*
X006485Y004410D01*
X006485Y004287D01*
X006532Y004174D01*
X006619Y004087D01*
X006634Y004081D01*
X006634Y004045D01*
X006539Y004045D01*
X006475Y003980D01*
X006475Y003942D01*
X006348Y003942D01*
X006348Y003965D01*
X006284Y004030D01*
X005839Y004030D01*
X005774Y003965D01*
X005774Y003963D01*
X005756Y004007D01*
X005669Y004094D01*
X005654Y004100D01*
X005654Y004134D01*
X005774Y004134D01*
X005774Y004110D01*
X005839Y004046D01*
X006284Y004046D01*
X006348Y004110D01*
X006348Y004477D01*
X006284Y004541D01*
X005839Y004541D01*
X005774Y004477D01*
X005774Y004454D01*
X005577Y004454D01*
X005577Y004571D01*
X005512Y004636D01*
X005146Y004636D01*
X005081Y004571D01*
X005081Y004557D01*
X005076Y004576D01*
X005059Y004606D01*
X005035Y004630D01*
X005005Y004647D01*
X004972Y004656D01*
X004847Y004656D01*
X004847Y004379D01*
X004787Y004379D01*
X004787Y004656D01*
X004662Y004656D01*
X004629Y004647D01*
X004600Y004630D01*
X004575Y004606D01*
X004558Y004576D01*
X004549Y004543D01*
X004549Y004379D01*
X004787Y004379D01*
X004787Y004319D01*
X004549Y004319D01*
X004549Y004154D01*
X004558Y004121D01*
X004575Y004092D01*
X004600Y004067D01*
X003876Y004067D01*
X003846Y004041D02*
X003970Y004150D01*
X003989Y004178D01*
X003999Y004209D01*
X004003Y004209D01*
X004037Y004216D01*
X004067Y004231D01*
X004189Y004342D01*
X004030Y004518D01*
X004074Y004558D01*
X004234Y004382D01*
X004356Y004492D01*
X004374Y004521D01*
X004385Y004553D01*
X004387Y004587D01*
X004379Y004621D01*
X004364Y004651D01*
X004280Y004744D01*
X004074Y004558D01*
X004034Y004603D01*
X004240Y004789D01*
X004156Y004881D01*
X004127Y004900D01*
X004095Y004910D01*
X004061Y004912D01*
X004027Y004905D01*
X004010Y004896D01*
X004020Y004906D01*
X004025Y004997D01*
X003779Y005269D01*
X003688Y005273D01*
X003358Y004975D01*
X003356Y004939D01*
X003314Y004941D01*
X003183Y004826D01*
X003074Y004861D01*
X002916Y004994D01*
X002820Y005177D01*
X002819Y005184D01*
X002855Y005184D01*
X002919Y005248D01*
X002919Y005654D01*
X002855Y005719D01*
X002812Y005719D01*
X002812Y007573D01*
X002823Y007719D01*
X002913Y007996D01*
X003085Y008232D01*
X003321Y008404D01*
X003598Y008494D01*
X003744Y008505D01*
X003815Y008505D01*
X003815Y008187D01*
X003880Y008122D01*
X003882Y008122D01*
X003882Y007940D01*
X003864Y007801D01*
X003942Y007513D01*
X004124Y007276D01*
X004124Y007276D01*
X004383Y007127D01*
X004383Y007127D01*
X004484Y007114D01*
X004491Y007106D01*
X004540Y007106D01*
X004555Y007104D01*
X004493Y007043D01*
X004446Y006930D01*
X004446Y006807D01*
X004480Y006725D01*
X004376Y006725D01*
X004311Y006660D01*
X004311Y005703D01*
X004376Y005639D01*
X004382Y005639D01*
X004387Y005614D01*
X004389Y005611D01*
X003510Y005611D01*
X003510Y005654D01*
X003445Y005719D01*
X003039Y005719D01*
X002975Y005654D01*
X002975Y005248D01*
X003039Y005184D01*
X003445Y005184D01*
X003510Y005248D01*
X003510Y005291D01*
X004274Y005291D01*
X004336Y005285D01*
X004450Y005238D01*
X004502Y005185D01*
X004502Y004752D01*
X004567Y004687D01*
X004934Y004687D01*
X004998Y004752D01*
X004998Y004766D01*
X005003Y004747D01*
X005020Y004718D01*
X005044Y004693D01*
X005074Y004676D01*
X005107Y004667D01*
X005232Y004667D01*
X005232Y004945D01*
X005292Y004945D01*
X007578Y004945D01*
X007555Y005000D02*
X007673Y004715D01*
X007891Y004498D01*
X007921Y004485D01*
X007918Y004484D01*
X007832Y004397D01*
X007785Y004284D01*
X007785Y004161D01*
X007825Y004065D01*
X007735Y004065D01*
X007735Y003530D01*
X007675Y003530D01*
X007675Y004065D01*
X007568Y004065D01*
X007535Y004056D01*
X007505Y004039D01*
X007481Y004015D01*
X007464Y003985D01*
X007455Y003952D01*
X007446Y003985D01*
X007429Y004015D01*
X007405Y004039D01*
X007375Y004056D01*
X007342Y004065D01*
X007235Y004065D01*
X007235Y003530D01*
X007175Y003530D01*
X007175Y004065D01*
X007068Y004065D01*
X007035Y004056D01*
X007005Y004039D01*
X006981Y004015D01*
X006964Y003985D01*
X006955Y003952D01*
X006955Y003530D01*
X007175Y003530D01*
X007175Y003470D01*
X006955Y003470D01*
X006955Y003048D01*
X006964Y003015D01*
X006981Y002985D01*
X007005Y002961D01*
X007035Y002944D01*
X007068Y002935D01*
X007175Y002935D01*
X007175Y003470D01*
X007235Y003470D01*
X007235Y003530D01*
X007455Y003530D01*
X007455Y003952D01*
X007455Y003530D01*
X007675Y003530D01*
X007675Y003470D01*
X007455Y003470D01*
X007235Y003470D01*
X007235Y002935D01*
X007342Y002935D01*
X007375Y002944D01*
X007405Y002961D01*
X007429Y002985D01*
X007446Y003015D01*
X007455Y003048D01*
X007455Y003470D01*
X007455Y003048D01*
X007464Y003015D01*
X007481Y002985D01*
X007505Y002961D01*
X007535Y002944D01*
X007568Y002935D01*
X007675Y002935D01*
X007675Y003470D01*
X007735Y003470D01*
X007735Y003530D01*
X007938Y003530D01*
X007975Y003466D01*
X007975Y003019D01*
X008039Y002955D01*
X008371Y002955D01*
X008435Y003019D01*
X008435Y003248D01*
X008481Y003231D01*
X008503Y003210D01*
X008541Y003210D01*
X008578Y003197D01*
X008605Y003210D01*
X008896Y003210D01*
X009538Y003337D01*
X010142Y003588D01*
X010686Y003951D01*
X011149Y004414D01*
X011149Y004414D01*
X011513Y004958D01*
X011763Y005562D01*
X011763Y005562D01*
X011891Y006204D01*
X011891Y006640D01*
X011782Y006829D01*
X011782Y006829D01*
X011782Y006829D01*
X011593Y006938D01*
X010990Y006938D01*
X010990Y007020D01*
X010926Y007085D01*
X009653Y007085D01*
X009589Y007020D01*
X009589Y006958D01*
X009473Y007162D01*
X009473Y007162D01*
X009165Y007443D01*
X008786Y007615D01*
X008635Y007631D01*
X008628Y007639D01*
X008570Y007639D01*
X008513Y007645D01*
X008505Y007639D01*
X008444Y007639D01*
X008527Y007721D01*
X008527Y007721D01*
X008599Y007896D01*
X008599Y007990D01*
X008607Y008089D01*
X008610Y008097D01*
X008654Y007989D01*
X008741Y007902D01*
X008835Y007864D01*
X008839Y007854D01*
X008992Y007701D01*
X008992Y007701D01*
X009193Y007618D01*
X009589Y007618D01*
X009589Y007535D01*
X009653Y007471D01*
X010926Y007471D01*
X010990Y007535D01*
X010990Y008020D01*
X010926Y008085D01*
X009662Y008085D01*
X009696Y008119D01*
X009743Y008232D01*
X009743Y008355D01*
X009696Y008468D01*
X009694Y008471D01*
X010926Y008471D01*
X010990Y008535D01*
X010990Y009020D01*
X010926Y009085D01*
X009653Y009085D01*
X009589Y009020D01*
X009589Y008938D01*
X009077Y008938D01*
X008791Y008845D01*
X008548Y008669D01*
X008548Y008669D01*
X008548Y008669D01*
X008372Y008426D01*
X008279Y008140D01*
X008279Y007990D01*
X008276Y007960D01*
X008253Y007904D01*
X008210Y007862D01*
X008158Y007840D01*
X008158Y007841D01*
X007976Y007841D01*
X007982Y007846D01*
X007982Y008178D01*
X008075Y008178D01*
X008189Y008225D01*
X008275Y008312D01*
X008322Y008425D01*
X008322Y008548D01*
X008275Y008661D01*
X008189Y008748D01*
X008075Y008795D01*
X007953Y008795D01*
X007839Y008748D01*
X007753Y008661D01*
X007741Y008633D01*
X007664Y008588D01*
X007695Y008703D01*
X007886Y009034D01*
X008155Y009304D01*
X008486Y009495D01*
X008855Y009593D01*
X009046Y009606D01*
X009589Y009606D01*
X009589Y009535D01*
X009653Y009471D01*
X010926Y009471D01*
X010990Y009535D01*
X010990Y010020D01*
X010926Y010085D01*
X009653Y010085D01*
X009589Y010020D01*
X009589Y009926D01*
X008811Y009926D01*
X008358Y009805D01*
X008052Y009628D01*
X008080Y009694D01*
X008080Y009853D01*
X008084Y009897D01*
X008118Y009978D01*
X008180Y010040D01*
X008261Y010074D01*
X008305Y010078D01*
X008628Y010078D01*
X008628Y010035D01*
X008693Y009971D01*
X009099Y009971D01*
X009163Y010035D01*
X009163Y010441D01*
X009099Y010506D01*
X008693Y010506D01*
X008628Y010441D01*
X008628Y010398D01*
X008197Y010398D01*
X007996Y010315D01*
X007843Y010162D01*
X007760Y009961D01*
X007760Y009853D01*
X007750Y009759D01*
X007679Y009587D01*
X007547Y009455D01*
X007375Y009384D01*
X007282Y009375D01*
X006951Y009375D01*
X006951Y009413D01*
X007065Y009479D01*
X007170Y009661D01*
X007170Y009676D01*
X007380Y009676D01*
X007394Y009689D01*
X007407Y009676D01*
X007636Y009676D01*
X007701Y009740D01*
X007701Y010264D01*
X007636Y010329D01*
X007445Y010329D01*
X007445Y010422D01*
X007445Y010422D01*
X007531Y010509D01*
X007578Y010622D01*
X007578Y010745D01*
X007531Y010858D01*
X007444Y010945D01*
X007331Y010991D01*
X007209Y010991D01*
X007095Y010945D01*
X007009Y010858D01*
X006962Y010745D01*
X006962Y010622D01*
X007009Y010509D01*
X007031Y010486D01*
X006896Y010486D01*
X006882Y010473D01*
X006869Y010486D01*
X006640Y010486D01*
X006629Y010475D01*
X006629Y010750D01*
X006634Y010809D01*
X006680Y010918D01*
X006763Y011002D01*
X006872Y011047D01*
X006931Y011053D01*
X008522Y011053D01*
X008566Y011049D01*
X008628Y011023D01*
X008628Y010626D01*
X008693Y010561D01*
X009099Y010561D01*
X009163Y010626D01*
X009163Y011032D01*
X009099Y011096D01*
X008978Y011096D01*
X008966Y011126D01*
X008819Y011273D01*
X008626Y011353D01*
X006811Y011353D01*
X006590Y011261D01*
X006420Y011092D01*
X006420Y011092D01*
X006329Y010870D01*
X006329Y010274D01*
X006319Y010264D01*
X006319Y010162D01*
X004526Y010162D01*
X004221Y010036D01*
X003988Y009803D01*
X003988Y009803D01*
X003862Y009498D01*
X003862Y009190D01*
X003815Y009144D01*
X003815Y008825D01*
X003546Y008825D01*
X003168Y008703D01*
X002848Y008469D01*
X002614Y008149D01*
X002614Y008149D01*
X002492Y007771D01*
X002492Y005719D01*
X002449Y005719D01*
X002384Y005654D01*
X002384Y005248D01*
X002449Y005184D01*
X002508Y005184D01*
X002517Y005089D01*
X002669Y004796D01*
X002669Y004796D01*
X002922Y004584D01*
X002974Y004567D01*
X002973Y004557D01*
X003021Y004502D01*
X003020Y004385D01*
X003119Y004069D01*
X003310Y003799D01*
X003310Y003799D01*
X003310Y003799D01*
X003576Y003602D01*
X003890Y003496D01*
X003964Y003495D01*
X003889Y003369D01*
X003911Y003281D01*
X004226Y003092D01*
X004314Y003114D01*
X004321Y003127D01*
X004316Y003108D01*
X004315Y003074D01*
X004324Y003040D01*
X004340Y003011D01*
X004364Y002986D01*
X004471Y002922D01*
X004614Y003160D01*
X004665Y003129D01*
X004523Y002891D01*
X004630Y002827D01*
X004663Y002818D01*
X004697Y002817D01*
X004730Y002825D01*
X004760Y002842D01*
X004785Y002866D01*
X004869Y003007D01*
X004665Y003129D01*
X004696Y003180D01*
X004900Y003058D01*
X004984Y003199D01*
X004994Y003232D01*
X004994Y003266D01*
X004986Y003300D01*
X004969Y003329D01*
X004946Y003354D01*
X004838Y003418D01*
X004696Y003180D01*
X004645Y003211D01*
X004787Y003449D01*
X004680Y003513D01*
X004647Y003522D01*
X004613Y003523D01*
X004579Y003515D01*
X004549Y003498D01*
X004535Y003484D01*
X004543Y003497D01*
X004520Y003585D01*
X004206Y003773D01*
X004192Y003770D01*
X004158Y003794D01*
X004059Y003794D01*
X003942Y003804D01*
X003721Y003879D01*
X003688Y003903D01*
X003801Y004002D01*
X003644Y004181D01*
X003689Y004220D01*
X003846Y004041D01*
X003823Y004067D02*
X003744Y004067D01*
X003772Y004126D02*
X003692Y004126D01*
X003721Y004184D02*
X003648Y004184D01*
X003647Y004223D02*
X003695Y004223D01*
X004032Y004560D01*
X004605Y004560D01*
X004817Y004349D01*
X004787Y004360D02*
X004173Y004360D01*
X004201Y004418D02*
X004120Y004418D01*
X004148Y004477D02*
X004067Y004477D01*
X004030Y004518D02*
X003900Y004401D01*
X003898Y004403D01*
X003689Y004220D01*
X003650Y004265D01*
X003781Y004380D01*
X003784Y004377D01*
X003990Y004563D01*
X004030Y004518D01*
X004014Y004535D02*
X003959Y004535D01*
X003984Y004477D02*
X003895Y004477D01*
X003919Y004418D02*
X003830Y004418D01*
X003849Y004360D02*
X003758Y004360D01*
X003782Y004301D02*
X003691Y004301D01*
X003670Y004243D02*
X003715Y004243D01*
X003943Y004126D02*
X004557Y004126D01*
X004549Y004184D02*
X003991Y004184D01*
X004080Y004243D02*
X004549Y004243D01*
X004549Y004301D02*
X004145Y004301D01*
X004274Y004418D02*
X004549Y004418D01*
X004549Y004477D02*
X004339Y004477D01*
X004379Y004535D02*
X004549Y004535D01*
X004568Y004594D02*
X004385Y004594D01*
X004363Y004652D02*
X004649Y004652D01*
X004544Y004711D02*
X004310Y004711D01*
X004243Y004711D02*
X004154Y004711D01*
X004178Y004652D02*
X004089Y004652D01*
X004114Y004594D02*
X004042Y004594D01*
X004049Y004535D02*
X004095Y004535D01*
X004218Y004769D02*
X004502Y004769D01*
X004502Y004828D02*
X004204Y004828D01*
X004148Y004886D02*
X004502Y004886D01*
X004502Y004945D02*
X004022Y004945D01*
X004019Y005003D02*
X004502Y005003D01*
X004502Y005062D02*
X003966Y005062D01*
X003913Y005120D02*
X004502Y005120D01*
X004502Y005179D02*
X003860Y005179D01*
X003807Y005237D02*
X004450Y005237D01*
X004387Y005614D02*
X004387Y005614D01*
X004368Y005647D02*
X004172Y005647D01*
X004164Y005639D02*
X004228Y005703D01*
X004228Y006660D01*
X004198Y006691D01*
X004283Y006776D01*
X004330Y006890D01*
X004330Y007012D01*
X004283Y007126D01*
X004196Y007212D01*
X004083Y007259D01*
X003961Y007259D01*
X003847Y007212D01*
X003761Y007126D01*
X003714Y007012D01*
X003714Y006890D01*
X003761Y006776D01*
X003844Y006693D01*
X003811Y006660D01*
X003811Y005703D01*
X003876Y005639D01*
X004164Y005639D01*
X004228Y005705D02*
X004311Y005705D01*
X004311Y005764D02*
X004228Y005764D01*
X004228Y005822D02*
X004311Y005822D01*
X004311Y005881D02*
X004228Y005881D01*
X004228Y005939D02*
X004311Y005939D01*
X004311Y005998D02*
X004228Y005998D01*
X004228Y006056D02*
X004311Y006056D01*
X004311Y006115D02*
X004228Y006115D01*
X004228Y006173D02*
X004311Y006173D01*
X004311Y006232D02*
X004228Y006232D01*
X004228Y006290D02*
X004311Y006290D01*
X004311Y006349D02*
X004228Y006349D01*
X004228Y006407D02*
X004311Y006407D01*
X004311Y006466D02*
X004228Y006466D01*
X004228Y006524D02*
X004311Y006524D01*
X004311Y006583D02*
X004228Y006583D01*
X004228Y006641D02*
X004311Y006641D01*
X004351Y006700D02*
X004206Y006700D01*
X004265Y006758D02*
X004466Y006758D01*
X004446Y006817D02*
X004300Y006817D01*
X004324Y006875D02*
X004446Y006875D01*
X004448Y006934D02*
X004330Y006934D01*
X004330Y006992D02*
X004472Y006992D01*
X004501Y007051D02*
X004314Y007051D01*
X004290Y007109D02*
X004489Y007109D01*
X004549Y007246D02*
X004864Y007246D01*
X004952Y007106D02*
X004965Y007106D01*
X005140Y007207D01*
X005140Y007207D01*
X005140Y007207D01*
X005241Y007382D01*
X005241Y007461D01*
X005573Y007461D01*
X005615Y007457D01*
X005692Y007425D01*
X005751Y007365D01*
X005781Y007294D01*
X005773Y007291D01*
X005686Y007204D01*
X005639Y007091D01*
X005639Y006968D01*
X005686Y006855D01*
X005773Y006769D01*
X005886Y006722D01*
X006008Y006722D01*
X006122Y006769D01*
X006208Y006855D01*
X006255Y006968D01*
X006255Y007091D01*
X006249Y007106D01*
X006851Y007106D01*
X006845Y007082D01*
X006845Y006927D01*
X006845Y006772D01*
X006854Y006739D01*
X006871Y006710D01*
X006895Y006686D01*
X006924Y006668D01*
X006958Y006660D01*
X007030Y006660D01*
X007102Y006660D01*
X007135Y006668D01*
X007154Y006680D01*
X007460Y006680D01*
X007460Y006591D01*
X007567Y006332D01*
X007765Y006134D01*
X007765Y006134D01*
X007765Y006134D01*
X007837Y006105D01*
X007539Y006105D01*
X007475Y006040D01*
X007475Y005079D01*
X007539Y005015D01*
X007555Y005015D01*
X007555Y005000D01*
X007555Y005003D02*
X006874Y005003D01*
X006875Y005004D02*
X006905Y005021D01*
X006929Y005045D01*
X006946Y005075D01*
X006955Y005108D01*
X006955Y005530D01*
X006735Y005530D01*
X006735Y005590D01*
X006675Y005590D01*
X006675Y006125D01*
X006568Y006125D01*
X006535Y006116D01*
X006505Y006099D01*
X006481Y006075D01*
X006464Y006045D01*
X006455Y006012D01*
X006455Y005590D01*
X006675Y005590D01*
X006675Y005530D01*
X006455Y005530D01*
X006455Y005108D01*
X006464Y005075D01*
X006481Y005045D01*
X006505Y005021D01*
X006535Y005004D01*
X006568Y004995D01*
X006675Y004995D01*
X006675Y005530D01*
X006735Y005530D01*
X006735Y004995D01*
X006842Y004995D01*
X006875Y005004D01*
X006939Y005062D02*
X006992Y005062D01*
X006975Y005079D02*
X007039Y005015D01*
X007371Y005015D01*
X007435Y005079D01*
X007435Y006040D01*
X007398Y006077D01*
X007468Y006147D01*
X007515Y006260D01*
X007515Y006382D01*
X007468Y006496D01*
X007381Y006582D01*
X007268Y006629D01*
X007146Y006629D01*
X007032Y006582D01*
X006946Y006496D01*
X006899Y006382D01*
X006899Y006260D01*
X006946Y006147D01*
X007013Y006079D01*
X006975Y006040D01*
X006975Y005079D01*
X006975Y005120D02*
X006955Y005120D01*
X006955Y005179D02*
X006975Y005179D01*
X006975Y005237D02*
X006955Y005237D01*
X006955Y005296D02*
X006975Y005296D01*
X006975Y005354D02*
X006955Y005354D01*
X006955Y005413D02*
X006975Y005413D01*
X006975Y005471D02*
X006955Y005471D01*
X006955Y005530D02*
X006975Y005530D01*
X006975Y005588D02*
X006735Y005588D01*
X006735Y005590D02*
X006955Y005590D01*
X006955Y006012D01*
X006946Y006045D01*
X006929Y006075D01*
X006905Y006099D01*
X006875Y006116D01*
X006842Y006125D01*
X006735Y006125D01*
X006735Y005590D01*
X006735Y005647D02*
X006675Y005647D01*
X006675Y005705D02*
X006735Y005705D01*
X006735Y005764D02*
X006675Y005764D01*
X006675Y005822D02*
X006735Y005822D01*
X006735Y005881D02*
X006675Y005881D01*
X006675Y005939D02*
X006735Y005939D01*
X006735Y005998D02*
X006675Y005998D01*
X006675Y006056D02*
X006735Y006056D01*
X006735Y006115D02*
X006675Y006115D01*
X006533Y006115D02*
X005748Y006115D01*
X005748Y006163D02*
X005539Y006163D01*
X005539Y006201D01*
X005501Y006201D01*
X005501Y006745D01*
X005404Y006745D01*
X005371Y006736D01*
X005342Y006719D01*
X005317Y006695D01*
X005300Y006665D01*
X005291Y006632D01*
X005291Y006201D01*
X005501Y006201D01*
X005501Y006163D01*
X005291Y006163D01*
X005291Y005732D01*
X005300Y005698D01*
X005317Y005669D01*
X005342Y005645D01*
X005371Y005628D01*
X005404Y005619D01*
X005501Y005619D01*
X005501Y006163D01*
X005539Y006163D01*
X005539Y005619D01*
X005635Y005619D01*
X005669Y005628D01*
X005698Y005645D01*
X005722Y005669D01*
X005739Y005698D01*
X005748Y005732D01*
X005748Y006163D01*
X005748Y006201D02*
X005748Y006632D01*
X005739Y006665D01*
X005722Y006695D01*
X005698Y006719D01*
X005669Y006736D01*
X005635Y006745D01*
X005539Y006745D01*
X005539Y006201D01*
X005748Y006201D01*
X005748Y006232D02*
X006910Y006232D01*
X006899Y006290D02*
X005748Y006290D01*
X005748Y006349D02*
X006899Y006349D01*
X006909Y006407D02*
X005748Y006407D01*
X005748Y006466D02*
X006933Y006466D01*
X006974Y006524D02*
X005748Y006524D01*
X005748Y006583D02*
X007033Y006583D01*
X007030Y006660D02*
X007030Y006927D01*
X007030Y006660D01*
X007030Y006700D02*
X007030Y006700D01*
X007030Y006758D02*
X007030Y006758D01*
X007030Y006817D02*
X007030Y006817D01*
X007030Y006875D02*
X007030Y006875D01*
X007030Y006927D02*
X007030Y006927D01*
X006845Y006927D01*
X007030Y006927D01*
X007030Y006927D01*
X006845Y006934D02*
X006241Y006934D01*
X006255Y006992D02*
X006845Y006992D01*
X006845Y007051D02*
X006255Y007051D01*
X006164Y007247D02*
X006136Y007245D01*
X006108Y007240D01*
X006081Y007230D01*
X006055Y007218D01*
X006032Y007202D01*
X006011Y007183D01*
X005992Y007162D01*
X005976Y007139D01*
X005964Y007113D01*
X005954Y007086D01*
X005949Y007058D01*
X005947Y007030D01*
X005947Y007227D01*
X005945Y007235D01*
X005941Y007241D01*
X005935Y007245D01*
X005927Y007247D01*
X005766Y007285D02*
X005185Y007285D01*
X005218Y007343D02*
X005760Y007343D01*
X005715Y007402D02*
X005241Y007402D01*
X005241Y007460D02*
X005577Y007460D01*
X005573Y007601D02*
X005219Y007601D01*
X005199Y007599D01*
X005179Y007594D01*
X005160Y007585D01*
X005143Y007573D01*
X005129Y007559D01*
X005117Y007542D01*
X005108Y007523D01*
X005103Y007503D01*
X005101Y007483D01*
X005100Y007483D02*
X005098Y007455D01*
X005093Y007427D01*
X005085Y007399D01*
X005073Y007373D01*
X005058Y007349D01*
X005041Y007327D01*
X005020Y007306D01*
X004998Y007289D01*
X004974Y007274D01*
X004948Y007262D01*
X004920Y007254D01*
X004892Y007249D01*
X004864Y007247D01*
X004952Y007106D02*
X005015Y007043D01*
X005024Y007023D01*
X005098Y006987D01*
X005098Y006987D01*
X005098Y006987D01*
X005143Y006922D01*
X005180Y006885D01*
X005180Y006869D01*
X005189Y006855D01*
X005180Y006804D01*
X005180Y006709D01*
X005228Y006660D01*
X005228Y005703D01*
X005207Y005682D01*
X005279Y005610D01*
X005326Y005497D01*
X005326Y005374D01*
X005279Y005261D01*
X005232Y005214D01*
X005232Y005005D01*
X005292Y005005D01*
X005292Y005282D01*
X005417Y005282D01*
X005450Y005273D01*
X005480Y005256D01*
X005504Y005232D01*
X005521Y005202D01*
X005530Y005169D01*
X005530Y005005D01*
X005292Y005005D01*
X005292Y004945D01*
X005530Y004945D01*
X005530Y004780D01*
X005521Y004747D01*
X005504Y004718D01*
X005480Y004693D01*
X005450Y004676D01*
X005417Y004667D01*
X005292Y004667D01*
X005292Y004945D01*
X005292Y005003D02*
X006536Y005003D01*
X006471Y005062D02*
X005530Y005062D01*
X005530Y005120D02*
X006455Y005120D01*
X006455Y005179D02*
X005527Y005179D01*
X005498Y005237D02*
X006455Y005237D01*
X006455Y005296D02*
X005294Y005296D01*
X005292Y005237D02*
X005256Y005237D01*
X005232Y005179D02*
X005292Y005179D01*
X005292Y005120D02*
X005232Y005120D01*
X005232Y005062D02*
X005292Y005062D01*
X005292Y004886D02*
X005232Y004886D01*
X005232Y004828D02*
X005292Y004828D01*
X005292Y004769D02*
X005232Y004769D01*
X005232Y004711D02*
X005292Y004711D01*
X005104Y004594D02*
X005066Y004594D01*
X004985Y004652D02*
X006721Y004652D01*
X006603Y004594D02*
X005554Y004594D01*
X005577Y004535D02*
X005832Y004535D01*
X005774Y004477D02*
X005577Y004477D01*
X005497Y004711D02*
X007677Y004711D01*
X007673Y004715D02*
X007673Y004715D01*
X007650Y004769D02*
X005527Y004769D01*
X005530Y004828D02*
X007626Y004828D01*
X007602Y004886D02*
X005530Y004886D01*
X005027Y004711D02*
X004957Y004711D01*
X004847Y004652D02*
X004787Y004652D01*
X004787Y004594D02*
X004847Y004594D01*
X004847Y004535D02*
X004787Y004535D01*
X004787Y004477D02*
X004847Y004477D01*
X004847Y004418D02*
X004787Y004418D01*
X004787Y004319D02*
X004847Y004319D01*
X004847Y004041D01*
X004972Y004041D01*
X005005Y004050D01*
X005035Y004067D01*
X005059Y004092D01*
X005076Y004121D01*
X005081Y004140D01*
X005081Y004126D01*
X005146Y004061D01*
X005287Y004061D01*
X005233Y004007D01*
X005186Y003894D01*
X005186Y003772D01*
X005233Y003658D01*
X005320Y003572D01*
X005433Y003525D01*
X005556Y003525D01*
X005669Y003572D01*
X005756Y003658D01*
X005774Y003703D01*
X005774Y003598D01*
X005839Y003534D01*
X005901Y003534D01*
X005901Y003167D01*
X005827Y003167D01*
X005762Y003103D01*
X005762Y003089D01*
X005757Y003108D01*
X005740Y003137D01*
X005716Y003161D01*
X005686Y003178D01*
X005653Y003187D01*
X005528Y003187D01*
X005528Y002910D01*
X005468Y002910D01*
X005468Y002850D01*
X005230Y002850D01*
X005230Y002686D01*
X005239Y002653D01*
X005256Y002623D01*
X005281Y002599D01*
X005310Y002582D01*
X005343Y002573D01*
X005468Y002573D01*
X005468Y002850D01*
X005528Y002850D01*
X005528Y002573D01*
X005653Y002573D01*
X005686Y002582D01*
X005716Y002599D01*
X005740Y002623D01*
X005757Y002653D01*
X005762Y002672D01*
X005762Y002657D01*
X005827Y002593D01*
X006193Y002593D01*
X006258Y002663D02*
X011700Y002663D01*
X011741Y002722D02*
X006258Y002722D01*
X006258Y002780D02*
X011782Y002780D01*
X011823Y002839D02*
X006258Y002839D01*
X006258Y002897D02*
X011865Y002897D01*
X011906Y002956D02*
X008371Y002956D01*
X008430Y003014D02*
X011947Y003014D01*
X011989Y003073D02*
X008435Y003073D01*
X008435Y003131D02*
X012030Y003131D01*
X012071Y003190D02*
X008435Y003190D01*
X008038Y002956D02*
X007896Y002956D01*
X007905Y002961D02*
X007929Y002985D01*
X007946Y003015D01*
X007955Y003048D01*
X007955Y003470D01*
X007735Y003470D01*
X007735Y002935D01*
X007842Y002935D01*
X007875Y002944D01*
X007905Y002961D01*
X007946Y003014D02*
X007980Y003014D01*
X007975Y003073D02*
X007955Y003073D01*
X007955Y003131D02*
X007975Y003131D01*
X007975Y003190D02*
X007955Y003190D01*
X007955Y003248D02*
X007975Y003248D01*
X007975Y003307D02*
X007955Y003307D01*
X007955Y003365D02*
X007975Y003365D01*
X007975Y003424D02*
X007955Y003424D01*
X007966Y003482D02*
X007735Y003482D01*
X007735Y003424D02*
X007675Y003424D01*
X007675Y003482D02*
X007235Y003482D01*
X007235Y003424D02*
X007175Y003424D01*
X007175Y003482D02*
X006935Y003482D01*
X006935Y003424D02*
X006955Y003424D01*
X006955Y003365D02*
X006935Y003365D01*
X006935Y003307D02*
X006955Y003307D01*
X006955Y003248D02*
X006935Y003248D01*
X006935Y003190D02*
X006955Y003190D01*
X006955Y003131D02*
X006935Y003131D01*
X006935Y003073D02*
X006955Y003073D01*
X006964Y003014D02*
X006930Y003014D01*
X006871Y002956D02*
X007014Y002956D01*
X007175Y002956D02*
X007235Y002956D01*
X007235Y003014D02*
X007175Y003014D01*
X007175Y003073D02*
X007235Y003073D01*
X007235Y003131D02*
X007175Y003131D01*
X007175Y003190D02*
X007235Y003190D01*
X007235Y003248D02*
X007175Y003248D01*
X007175Y003307D02*
X007235Y003307D01*
X007235Y003365D02*
X007175Y003365D01*
X007175Y003541D02*
X007235Y003541D01*
X007235Y003599D02*
X007175Y003599D01*
X007175Y003658D02*
X007235Y003658D01*
X007235Y003716D02*
X007175Y003716D01*
X007175Y003775D02*
X007235Y003775D01*
X007235Y003833D02*
X007175Y003833D01*
X007175Y003892D02*
X007235Y003892D01*
X007235Y003950D02*
X007175Y003950D01*
X007175Y004009D02*
X007235Y004009D01*
X007059Y004184D02*
X007785Y004184D01*
X007785Y004243D02*
X007083Y004243D01*
X007102Y004301D02*
X007792Y004301D01*
X007816Y004360D02*
X007102Y004360D01*
X007098Y004418D02*
X007853Y004418D01*
X007911Y004477D02*
X007074Y004477D01*
X007043Y004535D02*
X007853Y004535D01*
X007891Y004498D02*
X007891Y004498D01*
X007794Y004594D02*
X006984Y004594D01*
X006866Y004652D02*
X007736Y004652D01*
X007492Y005062D02*
X007417Y005062D01*
X007435Y005120D02*
X007475Y005120D01*
X007475Y005179D02*
X007435Y005179D01*
X007435Y005237D02*
X007475Y005237D01*
X007475Y005296D02*
X007435Y005296D01*
X007435Y005354D02*
X007475Y005354D01*
X007475Y005413D02*
X007435Y005413D01*
X007435Y005471D02*
X007475Y005471D01*
X007475Y005530D02*
X007435Y005530D01*
X007435Y005588D02*
X007475Y005588D01*
X007475Y005647D02*
X007435Y005647D01*
X007435Y005705D02*
X007475Y005705D01*
X007475Y005764D02*
X007435Y005764D01*
X007435Y005822D02*
X007475Y005822D01*
X007475Y005881D02*
X007435Y005881D01*
X007435Y005939D02*
X007475Y005939D01*
X007475Y005998D02*
X007435Y005998D01*
X007419Y006056D02*
X007491Y006056D01*
X007436Y006115D02*
X007812Y006115D01*
X007726Y006173D02*
X007479Y006173D01*
X007503Y006232D02*
X007668Y006232D01*
X007609Y006290D02*
X007515Y006290D01*
X007515Y006349D02*
X007561Y006349D01*
X007567Y006332D02*
X007567Y006332D01*
X007536Y006407D02*
X007505Y006407D01*
X007512Y006466D02*
X007481Y006466D01*
X007488Y006524D02*
X007440Y006524D01*
X007464Y006583D02*
X007380Y006583D01*
X007460Y006641D02*
X005746Y006641D01*
X005717Y006700D02*
X006881Y006700D01*
X006848Y006758D02*
X006097Y006758D01*
X006170Y006817D02*
X006845Y006817D01*
X006845Y006875D02*
X006217Y006875D01*
X006164Y007246D02*
X006837Y007246D01*
X006837Y007247D02*
X006848Y007249D01*
X006858Y007254D01*
X006865Y007261D01*
X006870Y007271D01*
X006872Y007282D01*
X006872Y007479D02*
X006872Y007479D01*
X006872Y007664D01*
X006872Y007675D01*
X006872Y007675D01*
X006604Y007675D01*
X006604Y007603D01*
X006612Y007577D01*
X006604Y007551D01*
X006604Y007479D01*
X006872Y007479D01*
X006872Y007479D01*
X006872Y007479D01*
X006872Y007675D01*
X006872Y007675D01*
X006604Y007675D01*
X006604Y007748D01*
X006613Y007781D01*
X006630Y007810D01*
X006655Y007835D01*
X006684Y007852D01*
X006717Y007861D01*
X006865Y007861D01*
X006865Y008213D01*
X006929Y008278D01*
X007130Y008278D01*
X007216Y008278D01*
X007200Y008332D01*
X007084Y008500D01*
X006921Y008624D01*
X006729Y008692D01*
X006627Y008702D01*
X006474Y008702D01*
X006459Y008692D01*
X006410Y008702D01*
X006360Y008702D01*
X006347Y008715D01*
X006322Y008720D01*
X006322Y008638D01*
X006275Y008525D01*
X006189Y008438D01*
X006174Y008432D01*
X006174Y008118D01*
X006085Y007963D01*
X006085Y007963D01*
X006085Y007963D01*
X005930Y007874D01*
X005364Y007874D01*
X005322Y007773D01*
X005291Y007741D01*
X005671Y007741D01*
X005853Y007665D01*
X005853Y007665D01*
X005853Y007665D01*
X005992Y007526D01*
X006054Y007378D01*
X006068Y007386D01*
X006610Y007386D01*
X006604Y007406D01*
X006604Y007479D01*
X006872Y007479D01*
X007140Y007479D01*
X007140Y007551D01*
X007133Y007577D01*
X007140Y007603D01*
X007140Y007632D01*
X007153Y007625D01*
X007153Y007446D01*
X007140Y007446D01*
X007140Y007479D01*
X006872Y007479D01*
X006872Y007519D02*
X006872Y007519D01*
X006872Y007577D02*
X006872Y007577D01*
X006872Y007636D02*
X006872Y007636D01*
X006865Y007870D02*
X005363Y007870D01*
X005338Y007811D02*
X006631Y007811D01*
X006606Y007753D02*
X005303Y007753D01*
X005783Y007694D02*
X006604Y007694D01*
X006604Y007636D02*
X005883Y007636D01*
X005941Y007577D02*
X006611Y007577D01*
X006604Y007519D02*
X005995Y007519D01*
X006020Y007460D02*
X006604Y007460D01*
X006606Y007402D02*
X006044Y007402D01*
X005708Y007226D02*
X005151Y007226D01*
X005072Y007168D02*
X005671Y007168D01*
X005647Y007109D02*
X004970Y007109D01*
X005008Y007051D02*
X005639Y007051D01*
X005639Y006992D02*
X005088Y006992D01*
X005135Y006934D02*
X005653Y006934D01*
X005678Y006875D02*
X005180Y006875D01*
X005182Y006817D02*
X005724Y006817D01*
X005797Y006758D02*
X005180Y006758D01*
X005189Y006700D02*
X005323Y006700D01*
X005294Y006641D02*
X005228Y006641D01*
X005228Y006583D02*
X005291Y006583D01*
X005291Y006524D02*
X005228Y006524D01*
X005228Y006466D02*
X005291Y006466D01*
X005291Y006407D02*
X005228Y006407D01*
X005228Y006349D02*
X005291Y006349D01*
X005291Y006290D02*
X005228Y006290D01*
X005228Y006232D02*
X005291Y006232D01*
X005228Y006173D02*
X005501Y006173D01*
X005539Y006173D02*
X006935Y006173D01*
X006978Y006115D02*
X006877Y006115D01*
X006940Y006056D02*
X006991Y006056D01*
X006975Y005998D02*
X006955Y005998D01*
X006955Y005939D02*
X006975Y005939D01*
X006975Y005881D02*
X006955Y005881D01*
X006955Y005822D02*
X006975Y005822D01*
X006975Y005764D02*
X006955Y005764D01*
X006955Y005705D02*
X006975Y005705D01*
X006975Y005647D02*
X006955Y005647D01*
X007205Y005560D02*
X007205Y006240D01*
X007205Y006241D02*
X007197Y006251D01*
X007192Y006262D01*
X007189Y006275D01*
X007190Y006288D01*
X007193Y006300D01*
X007198Y006311D01*
X007207Y006321D01*
X006470Y006056D02*
X005748Y006056D01*
X005748Y005998D02*
X006455Y005998D01*
X006455Y005939D02*
X005748Y005939D01*
X005748Y005881D02*
X006455Y005881D01*
X006455Y005822D02*
X005748Y005822D01*
X005748Y005764D02*
X006455Y005764D01*
X006455Y005705D02*
X005741Y005705D01*
X005700Y005647D02*
X006455Y005647D01*
X006455Y005530D02*
X005312Y005530D01*
X005326Y005471D02*
X006455Y005471D01*
X006455Y005413D02*
X005326Y005413D01*
X005318Y005354D02*
X006455Y005354D01*
X006675Y005354D02*
X006735Y005354D01*
X006735Y005296D02*
X006675Y005296D01*
X006675Y005237D02*
X006735Y005237D01*
X006735Y005179D02*
X006675Y005179D01*
X006675Y005120D02*
X006735Y005120D01*
X006735Y005062D02*
X006675Y005062D01*
X006675Y005003D02*
X006735Y005003D01*
X006735Y005413D02*
X006675Y005413D01*
X006675Y005471D02*
X006735Y005471D01*
X006735Y005530D02*
X006675Y005530D01*
X006675Y005588D02*
X005288Y005588D01*
X005242Y005647D02*
X005340Y005647D01*
X005299Y005705D02*
X005228Y005705D01*
X005228Y005764D02*
X005291Y005764D01*
X005291Y005822D02*
X005228Y005822D01*
X005228Y005881D02*
X005291Y005881D01*
X005291Y005939D02*
X005228Y005939D01*
X005228Y005998D02*
X005291Y005998D01*
X005291Y006056D02*
X005228Y006056D01*
X005228Y006115D02*
X005291Y006115D01*
X005501Y006115D02*
X005539Y006115D01*
X005539Y006056D02*
X005501Y006056D01*
X005501Y005998D02*
X005539Y005998D01*
X005539Y005939D02*
X005501Y005939D01*
X005501Y005881D02*
X005539Y005881D01*
X005539Y005822D02*
X005501Y005822D01*
X005501Y005764D02*
X005539Y005764D01*
X005539Y005705D02*
X005501Y005705D01*
X005501Y005647D02*
X005539Y005647D01*
X005539Y006232D02*
X005501Y006232D01*
X005501Y006290D02*
X005539Y006290D01*
X005539Y006349D02*
X005501Y006349D01*
X005501Y006407D02*
X005539Y006407D01*
X005539Y006466D02*
X005501Y006466D01*
X005501Y006524D02*
X005539Y006524D01*
X005539Y006583D02*
X005501Y006583D01*
X005501Y006641D02*
X005539Y006641D01*
X005539Y006700D02*
X005501Y006700D01*
X005927Y007246D02*
X005925Y007283D01*
X005919Y007320D01*
X005910Y007355D01*
X005896Y007390D01*
X005880Y007423D01*
X005859Y007454D01*
X005836Y007483D01*
X005810Y007509D01*
X005781Y007532D01*
X005750Y007553D01*
X005717Y007569D01*
X005682Y007583D01*
X005647Y007592D01*
X005610Y007598D01*
X005573Y007600D01*
X006025Y007928D02*
X006865Y007928D01*
X006865Y007987D02*
X006098Y007987D01*
X006132Y008045D02*
X006865Y008045D01*
X006865Y008104D02*
X006166Y008104D01*
X006174Y008162D02*
X006865Y008162D01*
X006872Y008221D02*
X006174Y008221D01*
X006174Y008279D02*
X007215Y008279D01*
X007195Y008338D02*
X006174Y008338D01*
X006174Y008396D02*
X007155Y008396D01*
X007115Y008455D02*
X006205Y008455D01*
X006264Y008513D02*
X007066Y008513D01*
X006989Y008572D02*
X006295Y008572D01*
X006319Y008630D02*
X006903Y008630D01*
X006737Y008689D02*
X006322Y008689D01*
X006951Y009391D02*
X007391Y009391D01*
X007533Y009449D02*
X007014Y009449D01*
X007065Y009479D02*
X007065Y009479D01*
X007065Y009479D01*
X007082Y009508D02*
X007600Y009508D01*
X007658Y009566D02*
X007115Y009566D01*
X007149Y009625D02*
X007695Y009625D01*
X007719Y009683D02*
X007644Y009683D01*
X007701Y009742D02*
X007743Y009742D01*
X007754Y009800D02*
X007701Y009800D01*
X007701Y009859D02*
X007760Y009859D01*
X007760Y009917D02*
X007701Y009917D01*
X007701Y009976D02*
X007766Y009976D01*
X007790Y010034D02*
X007701Y010034D01*
X007701Y010093D02*
X007814Y010093D01*
X007838Y010151D02*
X007701Y010151D01*
X007701Y010210D02*
X007891Y010210D01*
X007843Y010162D02*
X007843Y010162D01*
X007949Y010268D02*
X007697Y010268D01*
X007638Y010327D02*
X008024Y010327D01*
X007996Y010315D02*
X007996Y010315D01*
X008165Y010385D02*
X007445Y010385D01*
X007466Y010444D02*
X008631Y010444D01*
X008689Y010502D02*
X007525Y010502D01*
X007553Y010561D02*
X012399Y010561D01*
X012370Y010619D02*
X009157Y010619D01*
X009163Y010678D02*
X012340Y010678D01*
X012310Y010736D02*
X009163Y010736D01*
X009163Y010795D02*
X012280Y010795D01*
X012251Y010853D02*
X009163Y010853D01*
X009163Y010912D02*
X012221Y010912D01*
X012191Y010970D02*
X009163Y010970D01*
X009163Y011029D02*
X012161Y011029D01*
X012131Y011087D02*
X009108Y011087D01*
X008946Y011146D02*
X012102Y011146D01*
X012072Y011204D02*
X008888Y011204D01*
X008829Y011263D02*
X012042Y011263D01*
X012012Y011321D02*
X008703Y011321D01*
X008819Y011273D02*
X008819Y011273D01*
X008614Y011029D02*
X006828Y011029D01*
X006731Y010970D02*
X007158Y010970D01*
X007063Y010912D02*
X006677Y010912D01*
X006653Y010853D02*
X007007Y010853D01*
X006983Y010795D02*
X006633Y010795D01*
X006629Y010736D02*
X006962Y010736D01*
X006962Y010678D02*
X006629Y010678D01*
X006629Y010619D02*
X006963Y010619D01*
X006987Y010561D02*
X006629Y010561D01*
X006629Y010502D02*
X007015Y010502D01*
X007382Y010970D02*
X008628Y010970D01*
X008628Y010912D02*
X007477Y010912D01*
X007533Y010853D02*
X008628Y010853D01*
X008628Y010795D02*
X007557Y010795D01*
X007578Y010736D02*
X008628Y010736D01*
X008628Y010678D02*
X007578Y010678D01*
X007577Y010619D02*
X008635Y010619D01*
X009103Y010502D02*
X012429Y010502D01*
X012459Y010444D02*
X009161Y010444D01*
X009163Y010385D02*
X012489Y010385D01*
X012518Y010327D02*
X009163Y010327D01*
X009163Y010268D02*
X012548Y010268D01*
X012578Y010210D02*
X009163Y010210D01*
X009163Y010151D02*
X012608Y010151D01*
X012637Y010093D02*
X009163Y010093D01*
X009162Y010034D02*
X009603Y010034D01*
X009589Y009976D02*
X009104Y009976D01*
X008778Y009917D02*
X008092Y009917D01*
X008080Y009859D02*
X008560Y009859D01*
X008688Y009976D02*
X008117Y009976D01*
X008174Y010034D02*
X008630Y010034D01*
X008358Y009805D02*
X008358Y009805D01*
X008350Y009800D02*
X008080Y009800D01*
X008080Y009742D02*
X008249Y009742D01*
X008148Y009683D02*
X008075Y009683D01*
X008306Y009391D02*
X012995Y009391D01*
X012965Y009449D02*
X008407Y009449D01*
X008535Y009508D02*
X009617Y009508D01*
X009589Y009566D02*
X008753Y009566D01*
X008205Y009332D02*
X013024Y009332D01*
X013054Y009274D02*
X008125Y009274D01*
X008067Y009215D02*
X013084Y009215D01*
X013114Y009157D02*
X008008Y009157D01*
X007950Y009098D02*
X013143Y009098D01*
X013173Y009040D02*
X010971Y009040D01*
X010990Y008981D02*
X013203Y008981D01*
X013233Y008923D02*
X010990Y008923D01*
X010990Y008864D02*
X013262Y008864D01*
X013292Y008806D02*
X010990Y008806D01*
X010990Y008747D02*
X013322Y008747D01*
X013352Y008689D02*
X010990Y008689D01*
X010990Y008630D02*
X013382Y008630D01*
X013411Y008572D02*
X010990Y008572D01*
X010968Y008513D02*
X013441Y008513D01*
X013471Y008455D02*
X009702Y008455D01*
X009726Y008396D02*
X013501Y008396D01*
X013530Y008338D02*
X009743Y008338D01*
X009743Y008279D02*
X013550Y008279D01*
X013541Y008316D02*
X013581Y008142D01*
X013453Y005279D01*
X013409Y005086D01*
X010953Y001605D01*
X010931Y001591D01*
X007857Y000376D01*
X005199Y000573D01*
X001971Y002699D01*
X000435Y005849D01*
X000927Y009766D01*
X002912Y012296D01*
X003507Y012702D01*
X004859Y013325D01*
X005499Y013523D01*
X005663Y013547D01*
X008217Y013563D01*
X008481Y013523D01*
X008951Y013378D01*
X011806Y011637D01*
X011893Y011557D01*
X013541Y008316D01*
X013563Y008221D02*
X009739Y008221D01*
X009714Y008162D02*
X013576Y008162D01*
X013579Y008104D02*
X009681Y008104D01*
X009589Y007577D02*
X008868Y007577D01*
X008786Y007615D02*
X008786Y007615D01*
X008630Y007636D02*
X009150Y007636D01*
X009008Y007694D02*
X008500Y007694D01*
X008540Y007753D02*
X008940Y007753D01*
X008882Y007811D02*
X008564Y007811D01*
X008588Y007870D02*
X008820Y007870D01*
X008839Y007854D02*
X008839Y007854D01*
X008715Y007928D02*
X008599Y007928D01*
X008599Y007987D02*
X008657Y007987D01*
X008631Y008045D02*
X008604Y008045D01*
X008279Y008045D02*
X007982Y008045D01*
X007982Y007987D02*
X008279Y007987D01*
X008263Y007928D02*
X007982Y007928D01*
X007982Y007870D02*
X008219Y007870D01*
X008279Y008104D02*
X007982Y008104D01*
X007982Y008162D02*
X008286Y008162D01*
X008305Y008221D02*
X008178Y008221D01*
X008243Y008279D02*
X008324Y008279D01*
X008343Y008338D02*
X008286Y008338D01*
X008310Y008396D02*
X008362Y008396D01*
X008393Y008455D02*
X008322Y008455D01*
X008322Y008513D02*
X008435Y008513D01*
X008478Y008572D02*
X008312Y008572D01*
X008288Y008630D02*
X008520Y008630D01*
X008576Y008689D02*
X008247Y008689D01*
X008189Y008747D02*
X008657Y008747D01*
X008737Y008806D02*
X007754Y008806D01*
X007788Y008864D02*
X008850Y008864D01*
X008791Y008845D02*
X008791Y008845D01*
X009030Y008923D02*
X007821Y008923D01*
X007855Y008981D02*
X009589Y008981D01*
X009609Y009040D02*
X007891Y009040D01*
X007839Y008747D02*
X007720Y008747D01*
X007691Y008689D02*
X007781Y008689D01*
X007737Y008630D02*
X007675Y008630D01*
X007153Y007577D02*
X007133Y007577D01*
X007140Y007519D02*
X007153Y007519D01*
X007153Y007460D02*
X007140Y007460D01*
X008997Y007519D02*
X009606Y007519D01*
X009339Y007285D02*
X013543Y007285D01*
X013545Y007343D02*
X009274Y007343D01*
X009210Y007402D02*
X013548Y007402D01*
X013551Y007460D02*
X009127Y007460D01*
X009165Y007443D02*
X009165Y007443D01*
X009403Y007226D02*
X013540Y007226D01*
X013537Y007168D02*
X009467Y007168D01*
X009503Y007109D02*
X013535Y007109D01*
X013532Y007051D02*
X010960Y007051D01*
X010990Y006992D02*
X013530Y006992D01*
X013527Y006934D02*
X011600Y006934D01*
X011701Y006875D02*
X013524Y006875D01*
X013522Y006817D02*
X011789Y006817D01*
X011822Y006758D02*
X013519Y006758D01*
X013517Y006700D02*
X011856Y006700D01*
X011890Y006641D02*
X013514Y006641D01*
X013511Y006583D02*
X011891Y006583D01*
X011891Y006524D02*
X013509Y006524D01*
X013506Y006466D02*
X011891Y006466D01*
X011891Y006407D02*
X013504Y006407D01*
X013501Y006349D02*
X011891Y006349D01*
X011891Y006290D02*
X013498Y006290D01*
X013496Y006232D02*
X011891Y006232D01*
X011884Y006173D02*
X013493Y006173D01*
X013491Y006115D02*
X011873Y006115D01*
X011861Y006056D02*
X013488Y006056D01*
X013485Y005998D02*
X011849Y005998D01*
X011838Y005939D02*
X013483Y005939D01*
X013480Y005881D02*
X011826Y005881D01*
X011815Y005822D02*
X013478Y005822D01*
X013475Y005764D02*
X011803Y005764D01*
X011791Y005705D02*
X013472Y005705D01*
X013470Y005647D02*
X011780Y005647D01*
X011768Y005588D02*
X013467Y005588D01*
X013464Y005530D02*
X011749Y005530D01*
X011725Y005471D02*
X013462Y005471D01*
X013459Y005413D02*
X011701Y005413D01*
X011677Y005354D02*
X013457Y005354D01*
X013454Y005296D02*
X011652Y005296D01*
X011628Y005237D02*
X013444Y005237D01*
X013430Y005179D02*
X011604Y005179D01*
X011580Y005120D02*
X013417Y005120D01*
X013392Y005062D02*
X011556Y005062D01*
X011531Y005003D02*
X013351Y005003D01*
X013309Y004945D02*
X011504Y004945D01*
X011465Y004886D02*
X013268Y004886D01*
X013227Y004828D02*
X011426Y004828D01*
X011386Y004769D02*
X013185Y004769D01*
X013144Y004711D02*
X011347Y004711D01*
X011308Y004652D02*
X013103Y004652D01*
X013062Y004594D02*
X011269Y004594D01*
X011230Y004535D02*
X013020Y004535D01*
X012979Y004477D02*
X011191Y004477D01*
X011152Y004418D02*
X012938Y004418D01*
X012897Y004360D02*
X011095Y004360D01*
X011036Y004301D02*
X012855Y004301D01*
X012814Y004243D02*
X010978Y004243D01*
X010919Y004184D02*
X012773Y004184D01*
X012731Y004126D02*
X010861Y004126D01*
X010802Y004067D02*
X012690Y004067D01*
X012649Y004009D02*
X010744Y004009D01*
X010685Y003950D02*
X012608Y003950D01*
X012566Y003892D02*
X010597Y003892D01*
X010510Y003833D02*
X012525Y003833D01*
X012484Y003775D02*
X010422Y003775D01*
X010335Y003716D02*
X012443Y003716D01*
X012401Y003658D02*
X010247Y003658D01*
X010159Y003599D02*
X012360Y003599D01*
X012319Y003541D02*
X010029Y003541D01*
X009887Y003482D02*
X012277Y003482D01*
X012236Y003424D02*
X009746Y003424D01*
X009605Y003365D02*
X012195Y003365D01*
X012154Y003307D02*
X009383Y003307D01*
X009089Y003248D02*
X012112Y003248D01*
X011452Y002312D02*
X002558Y002312D01*
X002647Y002254D02*
X011411Y002254D01*
X011369Y002195D02*
X002736Y002195D01*
X002825Y002137D02*
X011328Y002137D01*
X011287Y002078D02*
X002913Y002078D01*
X003002Y002020D02*
X011246Y002020D01*
X011204Y001961D02*
X003091Y001961D01*
X003180Y001903D02*
X011163Y001903D01*
X011122Y001844D02*
X003269Y001844D01*
X003358Y001786D02*
X011080Y001786D01*
X011039Y001727D02*
X003446Y001727D01*
X003535Y001669D02*
X010998Y001669D01*
X010957Y001610D02*
X003624Y001610D01*
X003713Y001552D02*
X010833Y001552D01*
X010685Y001493D02*
X003802Y001493D01*
X003891Y001435D02*
X010537Y001435D01*
X010389Y001376D02*
X003979Y001376D01*
X004068Y001318D02*
X010241Y001318D01*
X010093Y001259D02*
X004157Y001259D01*
X004246Y001201D02*
X009944Y001201D01*
X009796Y001142D02*
X004335Y001142D01*
X004424Y001084D02*
X009648Y001084D01*
X009500Y001025D02*
X004512Y001025D01*
X004601Y000967D02*
X009352Y000967D01*
X009204Y000908D02*
X004690Y000908D01*
X004779Y000850D02*
X009056Y000850D01*
X008907Y000791D02*
X004868Y000791D01*
X004957Y000733D02*
X008759Y000733D01*
X008611Y000674D02*
X005045Y000674D01*
X005134Y000616D02*
X008463Y000616D01*
X008315Y000557D02*
X005413Y000557D01*
X006203Y000499D02*
X008167Y000499D01*
X008019Y000440D02*
X006993Y000440D01*
X007782Y000382D02*
X007870Y000382D01*
X005815Y002605D02*
X005722Y002605D01*
X005760Y002663D02*
X005762Y002663D01*
X005528Y002663D02*
X005468Y002663D01*
X005468Y002605D02*
X005528Y002605D01*
X005528Y002722D02*
X005468Y002722D01*
X005468Y002780D02*
X005528Y002780D01*
X005528Y002839D02*
X005468Y002839D01*
X005468Y002897D02*
X004804Y002897D01*
X004839Y002956D02*
X005230Y002956D01*
X005230Y002910D02*
X005230Y003074D01*
X005239Y003108D01*
X005256Y003137D01*
X005281Y003161D01*
X005310Y003178D01*
X005343Y003187D01*
X005468Y003187D01*
X005468Y002910D01*
X005230Y002910D01*
X005230Y002839D02*
X004755Y002839D01*
X004610Y002839D02*
X001903Y002839D01*
X001874Y002897D02*
X004527Y002897D01*
X004492Y002956D02*
X004562Y002956D01*
X004527Y003014D02*
X004597Y003014D01*
X004562Y003073D02*
X004632Y003073D01*
X004661Y003131D02*
X004597Y003131D01*
X004667Y003131D02*
X004778Y003131D01*
X004759Y003073D02*
X004876Y003073D01*
X004909Y003073D02*
X005230Y003073D01*
X005230Y003014D02*
X004857Y003014D01*
X004944Y003131D02*
X005253Y003131D01*
X005468Y003131D02*
X005528Y003131D01*
X005528Y003073D02*
X005468Y003073D01*
X005468Y003014D02*
X005528Y003014D01*
X005528Y002956D02*
X005468Y002956D01*
X005230Y002780D02*
X001931Y002780D01*
X001960Y002722D02*
X005230Y002722D01*
X005237Y002663D02*
X002025Y002663D01*
X002114Y002605D02*
X005275Y002605D01*
X004979Y003190D02*
X005901Y003190D01*
X005901Y003248D02*
X004994Y003248D01*
X004982Y003307D02*
X005901Y003307D01*
X005901Y003365D02*
X004927Y003365D01*
X004807Y003365D02*
X004737Y003365D01*
X004702Y003307D02*
X004772Y003307D01*
X004737Y003248D02*
X004667Y003248D01*
X004680Y003190D02*
X004702Y003190D01*
X004772Y003424D02*
X005901Y003424D01*
X005901Y003482D02*
X004731Y003482D01*
X004532Y003541D02*
X005395Y003541D01*
X005292Y003599D02*
X004497Y003599D01*
X004399Y003658D02*
X005234Y003658D01*
X005209Y003716D02*
X004301Y003716D01*
X004185Y003775D02*
X005186Y003775D01*
X005186Y003833D02*
X003857Y003833D01*
X003704Y003892D02*
X005186Y003892D01*
X005209Y003950D02*
X003742Y003950D01*
X003795Y004009D02*
X005234Y004009D01*
X005140Y004067D02*
X005034Y004067D01*
X005077Y004126D02*
X005081Y004126D01*
X004847Y004126D02*
X004787Y004126D01*
X004787Y004184D02*
X004847Y004184D01*
X004847Y004243D02*
X004787Y004243D01*
X004787Y004301D02*
X004847Y004301D01*
X004787Y004319D02*
X004787Y004041D01*
X004662Y004041D01*
X004629Y004050D01*
X004600Y004067D01*
X004787Y004067D02*
X004847Y004067D01*
X005594Y003541D02*
X005832Y003541D01*
X005774Y003599D02*
X005696Y003599D01*
X005755Y003658D02*
X005774Y003658D01*
X005754Y004009D02*
X005818Y004009D01*
X005817Y004067D02*
X005696Y004067D01*
X005654Y004126D02*
X005774Y004126D01*
X006305Y004067D02*
X006634Y004067D01*
X006581Y004126D02*
X006348Y004126D01*
X006348Y004184D02*
X006528Y004184D01*
X006504Y004243D02*
X006348Y004243D01*
X006348Y004301D02*
X006485Y004301D01*
X006485Y004360D02*
X006348Y004360D01*
X006348Y004418D02*
X006489Y004418D01*
X006513Y004477D02*
X006348Y004477D01*
X006290Y004535D02*
X006544Y004535D01*
X007006Y004126D02*
X007799Y004126D01*
X007824Y004067D02*
X006954Y004067D01*
X006954Y004009D02*
X006978Y004009D01*
X006954Y003950D02*
X006955Y003950D01*
X006955Y003892D02*
X006935Y003892D01*
X006935Y003833D02*
X006955Y003833D01*
X006955Y003775D02*
X006935Y003775D01*
X006935Y003716D02*
X006955Y003716D01*
X006955Y003658D02*
X006935Y003658D01*
X006935Y003599D02*
X006955Y003599D01*
X006955Y003541D02*
X006935Y003541D01*
X006475Y003541D02*
X006291Y003541D01*
X006348Y003599D02*
X006475Y003599D01*
X006475Y003482D02*
X006221Y003482D01*
X006221Y003424D02*
X006475Y003424D01*
X006475Y003365D02*
X006221Y003365D01*
X006221Y003307D02*
X006475Y003307D01*
X006475Y003248D02*
X006221Y003248D01*
X006221Y003190D02*
X006475Y003190D01*
X006475Y003131D02*
X006230Y003131D01*
X006258Y003073D02*
X006475Y003073D01*
X006480Y003014D02*
X006258Y003014D01*
X006258Y002956D02*
X006538Y002956D01*
X005791Y003131D02*
X005744Y003131D01*
X006348Y003950D02*
X006475Y003950D01*
X006503Y004009D02*
X006305Y004009D01*
X007432Y004009D02*
X007478Y004009D01*
X007455Y003950D02*
X007455Y003950D01*
X007455Y003892D02*
X007455Y003892D01*
X007455Y003833D02*
X007455Y003833D01*
X007455Y003775D02*
X007455Y003775D01*
X007455Y003716D02*
X007455Y003716D01*
X007455Y003658D02*
X007455Y003658D01*
X007455Y003599D02*
X007455Y003599D01*
X007455Y003541D02*
X007455Y003541D01*
X007455Y003424D02*
X007455Y003424D01*
X007455Y003365D02*
X007455Y003365D01*
X007455Y003307D02*
X007455Y003307D01*
X007455Y003248D02*
X007455Y003248D01*
X007455Y003190D02*
X007455Y003190D01*
X007455Y003131D02*
X007455Y003131D01*
X007455Y003073D02*
X007455Y003073D01*
X007446Y003014D02*
X007464Y003014D01*
X007514Y002956D02*
X007396Y002956D01*
X007675Y002956D02*
X007735Y002956D01*
X007735Y003014D02*
X007675Y003014D01*
X007675Y003073D02*
X007735Y003073D01*
X007735Y003131D02*
X007675Y003131D01*
X007675Y003190D02*
X007735Y003190D01*
X007735Y003248D02*
X007675Y003248D01*
X007675Y003307D02*
X007735Y003307D01*
X007735Y003365D02*
X007675Y003365D01*
X007675Y003541D02*
X007735Y003541D01*
X007735Y003599D02*
X007675Y003599D01*
X007675Y003658D02*
X007735Y003658D01*
X007735Y003716D02*
X007675Y003716D01*
X007675Y003775D02*
X007735Y003775D01*
X007735Y003833D02*
X007675Y003833D01*
X007675Y003892D02*
X007735Y003892D01*
X007735Y003950D02*
X007675Y003950D01*
X007675Y004009D02*
X007735Y004009D01*
X008896Y003210D02*
X008896Y003210D01*
X009570Y006992D02*
X009589Y006992D01*
X009620Y007051D02*
X009536Y007051D01*
X010974Y007519D02*
X013553Y007519D01*
X013556Y007577D02*
X010990Y007577D01*
X010990Y007636D02*
X013558Y007636D01*
X013561Y007694D02*
X010990Y007694D01*
X010990Y007753D02*
X013564Y007753D01*
X013566Y007811D02*
X010990Y007811D01*
X010990Y007870D02*
X013569Y007870D01*
X013571Y007928D02*
X010990Y007928D01*
X010990Y007987D02*
X013574Y007987D01*
X013577Y008045D02*
X010965Y008045D01*
X010963Y009508D02*
X012935Y009508D01*
X012905Y009566D02*
X010990Y009566D01*
X010990Y009625D02*
X012876Y009625D01*
X012846Y009683D02*
X010990Y009683D01*
X010990Y009742D02*
X012816Y009742D01*
X012786Y009800D02*
X010990Y009800D01*
X010990Y009859D02*
X012756Y009859D01*
X012727Y009917D02*
X010990Y009917D01*
X010990Y009976D02*
X012697Y009976D01*
X012667Y010034D02*
X010976Y010034D01*
X011983Y011380D02*
X002193Y011380D01*
X002239Y011438D02*
X011953Y011438D01*
X011923Y011497D02*
X002285Y011497D01*
X002331Y011555D02*
X011893Y011555D01*
X011831Y011614D02*
X002376Y011614D01*
X002422Y011672D02*
X011748Y011672D01*
X011652Y011731D02*
X002468Y011731D01*
X002514Y011789D02*
X011556Y011789D01*
X011461Y011848D02*
X002560Y011848D01*
X002606Y011906D02*
X011365Y011906D01*
X011269Y011965D02*
X002652Y011965D01*
X002697Y012023D02*
X011173Y012023D01*
X011077Y012082D02*
X002743Y012082D01*
X002789Y012140D02*
X010981Y012140D01*
X010885Y012199D02*
X002835Y012199D01*
X002881Y012257D02*
X010789Y012257D01*
X010693Y012316D02*
X002940Y012316D01*
X003026Y012374D02*
X010597Y012374D01*
X010501Y012433D02*
X003112Y012433D01*
X003197Y012491D02*
X010405Y012491D01*
X010309Y012550D02*
X003283Y012550D01*
X003369Y012608D02*
X010213Y012608D01*
X010117Y012667D02*
X003455Y012667D01*
X003557Y012725D02*
X010021Y012725D01*
X009925Y012784D02*
X003684Y012784D01*
X003811Y012842D02*
X009830Y012842D01*
X009734Y012901D02*
X003938Y012901D01*
X004065Y012959D02*
X009638Y012959D01*
X009542Y013018D02*
X004192Y013018D01*
X004319Y013076D02*
X009446Y013076D01*
X009350Y013135D02*
X004446Y013135D01*
X004573Y013193D02*
X009254Y013193D01*
X009158Y013252D02*
X004699Y013252D01*
X004826Y013310D02*
X009062Y013310D01*
X008966Y013369D02*
X005000Y013369D01*
X005190Y013427D02*
X008791Y013427D01*
X008601Y013486D02*
X005379Y013486D01*
X005642Y013544D02*
X008339Y013544D01*
X006735Y011321D02*
X002147Y011321D01*
X002101Y011263D02*
X006594Y011263D01*
X006590Y011261D02*
X006590Y011261D01*
X006533Y011204D02*
X002055Y011204D01*
X002009Y011146D02*
X006474Y011146D01*
X006419Y011087D02*
X001964Y011087D01*
X001918Y011029D02*
X006394Y011029D01*
X006370Y010970D02*
X001872Y010970D01*
X001826Y010912D02*
X006346Y010912D01*
X006329Y010853D02*
X001780Y010853D01*
X001734Y010795D02*
X006329Y010795D01*
X006329Y010736D02*
X001688Y010736D01*
X001642Y010678D02*
X006329Y010678D01*
X006329Y010619D02*
X001597Y010619D01*
X001551Y010561D02*
X006329Y010561D01*
X006329Y010502D02*
X001505Y010502D01*
X001459Y010444D02*
X006329Y010444D01*
X006329Y010385D02*
X001413Y010385D01*
X001367Y010327D02*
X006329Y010327D01*
X006323Y010268D02*
X001321Y010268D01*
X001275Y010210D02*
X006319Y010210D01*
X007388Y009683D02*
X007400Y009683D01*
X004549Y007247D02*
X004502Y007255D01*
X004455Y007267D01*
X004410Y007282D01*
X004366Y007301D01*
X004323Y007323D01*
X004283Y007349D01*
X004244Y007377D01*
X004208Y007409D01*
X004175Y007443D01*
X004144Y007480D01*
X004116Y007519D01*
X004092Y007561D01*
X004070Y007604D01*
X004052Y007648D01*
X004038Y007694D01*
X004027Y007741D01*
X004020Y007788D01*
X004017Y007836D01*
X004018Y007884D01*
X004022Y007932D01*
X004022Y007931D02*
X004022Y008943D01*
X003815Y008923D02*
X000821Y008923D01*
X000829Y008981D02*
X003815Y008981D01*
X003815Y009040D02*
X000836Y009040D01*
X000844Y009098D02*
X003815Y009098D01*
X003828Y009157D02*
X000851Y009157D01*
X000858Y009215D02*
X003862Y009215D01*
X003862Y009274D02*
X000866Y009274D01*
X000873Y009332D02*
X003862Y009332D01*
X003862Y009391D02*
X000880Y009391D01*
X000888Y009449D02*
X003862Y009449D01*
X003866Y009508D02*
X000895Y009508D01*
X000902Y009566D02*
X003890Y009566D01*
X003914Y009625D02*
X000910Y009625D01*
X000917Y009683D02*
X003939Y009683D01*
X003963Y009742D02*
X000924Y009742D01*
X000954Y009800D02*
X003987Y009800D01*
X004044Y009859D02*
X001000Y009859D01*
X001046Y009917D02*
X004103Y009917D01*
X004161Y009976D02*
X001092Y009976D01*
X001138Y010034D02*
X004220Y010034D01*
X004221Y010036D02*
X004221Y010036D01*
X004359Y010093D02*
X001184Y010093D01*
X001230Y010151D02*
X004500Y010151D01*
X003815Y008864D02*
X000814Y008864D01*
X000807Y008806D02*
X003486Y008806D01*
X003306Y008747D02*
X000799Y008747D01*
X000792Y008689D02*
X003149Y008689D01*
X003168Y008703D02*
X003168Y008703D01*
X003069Y008630D02*
X000785Y008630D01*
X000777Y008572D02*
X002988Y008572D01*
X002908Y008513D02*
X000770Y008513D01*
X000763Y008455D02*
X002837Y008455D01*
X002848Y008469D02*
X002848Y008469D01*
X002848Y008469D01*
X002794Y008396D02*
X000755Y008396D01*
X000748Y008338D02*
X002752Y008338D01*
X002709Y008279D02*
X000741Y008279D01*
X000733Y008221D02*
X002667Y008221D01*
X002624Y008162D02*
X000726Y008162D01*
X000719Y008104D02*
X002600Y008104D01*
X002581Y008045D02*
X000711Y008045D01*
X000704Y007987D02*
X002562Y007987D01*
X002543Y007928D02*
X000697Y007928D01*
X000689Y007870D02*
X002524Y007870D01*
X002505Y007811D02*
X000682Y007811D01*
X000674Y007753D02*
X002492Y007753D01*
X002492Y007694D02*
X000667Y007694D01*
X000660Y007636D02*
X002492Y007636D01*
X002492Y007577D02*
X000652Y007577D01*
X000645Y007519D02*
X002492Y007519D01*
X002492Y007460D02*
X000638Y007460D01*
X000630Y007402D02*
X002492Y007402D01*
X002492Y007343D02*
X000623Y007343D01*
X000616Y007285D02*
X002492Y007285D01*
X002492Y007226D02*
X000608Y007226D01*
X000601Y007168D02*
X002492Y007168D01*
X002492Y007109D02*
X000594Y007109D01*
X000586Y007051D02*
X002492Y007051D01*
X002492Y006992D02*
X000579Y006992D01*
X000572Y006934D02*
X002492Y006934D01*
X002492Y006875D02*
X000564Y006875D01*
X000557Y006817D02*
X002492Y006817D01*
X002492Y006758D02*
X000550Y006758D01*
X000542Y006700D02*
X002492Y006700D01*
X002492Y006641D02*
X000535Y006641D01*
X000527Y006583D02*
X002492Y006583D01*
X002492Y006524D02*
X000520Y006524D01*
X000513Y006466D02*
X002492Y006466D01*
X002492Y006407D02*
X000505Y006407D01*
X000498Y006349D02*
X002492Y006349D01*
X002492Y006290D02*
X000491Y006290D01*
X000483Y006232D02*
X002492Y006232D01*
X002492Y006173D02*
X000476Y006173D01*
X000469Y006115D02*
X002492Y006115D01*
X002492Y006056D02*
X000461Y006056D01*
X000454Y005998D02*
X002492Y005998D01*
X002492Y005939D02*
X000447Y005939D01*
X000439Y005881D02*
X002492Y005881D01*
X002492Y005822D02*
X000448Y005822D01*
X000477Y005764D02*
X002492Y005764D01*
X002436Y005705D02*
X000505Y005705D01*
X000534Y005647D02*
X002384Y005647D01*
X002384Y005588D02*
X000562Y005588D01*
X000591Y005530D02*
X002384Y005530D01*
X002384Y005471D02*
X000619Y005471D01*
X000648Y005413D02*
X002384Y005413D01*
X002384Y005354D02*
X000676Y005354D01*
X000705Y005296D02*
X002384Y005296D01*
X002395Y005237D02*
X000733Y005237D01*
X000762Y005179D02*
X002509Y005179D01*
X002514Y005120D02*
X000790Y005120D01*
X000819Y005062D02*
X002531Y005062D01*
X002517Y005089D02*
X002517Y005089D01*
X002561Y005003D02*
X000847Y005003D01*
X000876Y004945D02*
X002592Y004945D01*
X002622Y004886D02*
X000904Y004886D01*
X000933Y004828D02*
X002653Y004828D01*
X002701Y004769D02*
X000961Y004769D01*
X000990Y004711D02*
X002770Y004711D01*
X002840Y004652D02*
X001019Y004652D01*
X001047Y004594D02*
X002910Y004594D01*
X002922Y004584D02*
X002922Y004584D01*
X002992Y004535D02*
X001076Y004535D01*
X001104Y004477D02*
X003021Y004477D01*
X003020Y004418D02*
X001133Y004418D01*
X001161Y004360D02*
X003028Y004360D01*
X003020Y004385D02*
X003020Y004385D01*
X003046Y004301D02*
X001190Y004301D01*
X001218Y004243D02*
X003064Y004243D01*
X003083Y004184D02*
X001247Y004184D01*
X001275Y004126D02*
X003101Y004126D01*
X003119Y004069D02*
X003119Y004069D01*
X003120Y004067D02*
X001304Y004067D01*
X001332Y004009D02*
X003162Y004009D01*
X003203Y003950D02*
X001361Y003950D01*
X001389Y003892D02*
X003245Y003892D01*
X003286Y003833D02*
X001418Y003833D01*
X001446Y003775D02*
X003343Y003775D01*
X003422Y003716D02*
X001475Y003716D01*
X001503Y003658D02*
X003501Y003658D01*
X003576Y003602D02*
X003576Y003602D01*
X003583Y003599D02*
X001532Y003599D01*
X001560Y003541D02*
X003757Y003541D01*
X003890Y003496D02*
X003890Y003496D01*
X003956Y003482D02*
X001589Y003482D01*
X001617Y003424D02*
X003921Y003424D01*
X003890Y003365D02*
X001646Y003365D01*
X001674Y003307D02*
X003904Y003307D01*
X003965Y003248D02*
X001703Y003248D01*
X001732Y003190D02*
X004063Y003190D01*
X004160Y003131D02*
X001760Y003131D01*
X001789Y003073D02*
X004316Y003073D01*
X004338Y003014D02*
X001817Y003014D01*
X001846Y002956D02*
X004415Y002956D01*
X003357Y004608D02*
X003689Y004940D01*
X003519Y005120D02*
X002850Y005120D01*
X002880Y005062D02*
X003454Y005062D01*
X003389Y005003D02*
X002911Y005003D01*
X002974Y004945D02*
X003356Y004945D01*
X003251Y004886D02*
X003044Y004886D01*
X003179Y004828D02*
X003185Y004828D01*
X003310Y004608D02*
X003357Y004608D01*
X003583Y005179D02*
X002820Y005179D01*
X002909Y005237D02*
X002986Y005237D01*
X002975Y005296D02*
X002919Y005296D01*
X002919Y005354D02*
X002975Y005354D01*
X002975Y005413D02*
X002919Y005413D01*
X002919Y005471D02*
X002975Y005471D01*
X002975Y005530D02*
X002919Y005530D01*
X002919Y005588D02*
X002975Y005588D01*
X002975Y005647D02*
X002919Y005647D01*
X002868Y005705D02*
X003026Y005705D01*
X002812Y005764D02*
X003811Y005764D01*
X003811Y005822D02*
X002812Y005822D01*
X002812Y005881D02*
X003811Y005881D01*
X003811Y005939D02*
X002812Y005939D01*
X002812Y005998D02*
X003811Y005998D01*
X003811Y006056D02*
X002812Y006056D01*
X002812Y006115D02*
X003811Y006115D01*
X003811Y006173D02*
X002812Y006173D01*
X002812Y006232D02*
X003811Y006232D01*
X003811Y006290D02*
X002812Y006290D01*
X002812Y006349D02*
X003811Y006349D01*
X003811Y006407D02*
X002812Y006407D01*
X002812Y006466D02*
X003811Y006466D01*
X003811Y006524D02*
X002812Y006524D01*
X002812Y006583D02*
X003811Y006583D01*
X003811Y006641D02*
X002812Y006641D01*
X002812Y006700D02*
X003837Y006700D01*
X003779Y006758D02*
X002812Y006758D01*
X002812Y006817D02*
X003744Y006817D01*
X003720Y006875D02*
X002812Y006875D01*
X002812Y006934D02*
X003714Y006934D01*
X003714Y006992D02*
X002812Y006992D01*
X002812Y007051D02*
X003730Y007051D01*
X003754Y007109D02*
X002812Y007109D01*
X002812Y007168D02*
X003803Y007168D01*
X003881Y007226D02*
X002812Y007226D01*
X002812Y007285D02*
X004117Y007285D01*
X004124Y007276D02*
X004124Y007276D01*
X004163Y007226D02*
X004210Y007226D01*
X004241Y007168D02*
X004312Y007168D01*
X004072Y007343D02*
X002812Y007343D01*
X002812Y007402D02*
X004027Y007402D01*
X003982Y007460D02*
X002812Y007460D01*
X002812Y007519D02*
X003940Y007519D01*
X003942Y007513D02*
X003942Y007513D01*
X003924Y007577D02*
X002812Y007577D01*
X002817Y007636D02*
X003908Y007636D01*
X003893Y007694D02*
X002821Y007694D01*
X002834Y007753D02*
X003877Y007753D01*
X003864Y007801D02*
X003864Y007801D01*
X003865Y007811D02*
X002853Y007811D01*
X002872Y007870D02*
X003873Y007870D01*
X003880Y007928D02*
X002891Y007928D01*
X002910Y007987D02*
X003882Y007987D01*
X003882Y008045D02*
X002949Y008045D01*
X002992Y008104D02*
X003882Y008104D01*
X003840Y008162D02*
X003034Y008162D01*
X003077Y008221D02*
X003815Y008221D01*
X003815Y008279D02*
X003150Y008279D01*
X003230Y008338D02*
X003815Y008338D01*
X003815Y008396D02*
X003311Y008396D01*
X003478Y008455D02*
X003815Y008455D01*
X003811Y005705D02*
X003459Y005705D01*
X003510Y005647D02*
X003868Y005647D01*
X003648Y005237D02*
X003499Y005237D01*
D23*
X005018Y005435D03*
X004754Y006868D03*
X005376Y006931D03*
X005947Y007030D03*
X005061Y007947D03*
X004569Y007612D03*
X004022Y006951D03*
X006014Y008699D03*
X006597Y008526D03*
X008014Y008486D03*
X008916Y008164D03*
X009435Y008294D03*
X008526Y006774D03*
X008530Y006207D03*
X009089Y005175D03*
X009782Y005262D03*
X009392Y004384D03*
X008093Y004223D03*
X006794Y004349D03*
X005494Y003833D03*
X007660Y002664D03*
X007207Y006321D03*
X007270Y010683D03*
M02*
